<?xml version="1.0" encoding="utf-8" ?>
<svg baseProfile="full" height="200mm" version="1.1" viewBox="0,0,200,200" width="200mm" xmlns="http://www.w3.org/2000/svg" xmlns:ev="http://www.w3.org/2001/xml-events" xmlns:xlink="http://www.w3.org/1999/xlink"><defs /><rect fill="#1a1a1a" height="200" width="200" x="0" y="0" /><rect fill="#1a1a1a" height="200" width="180" x="10" y="0" /><text alignment-baseline="middle" fill="#e1ed5e" style="dominant-baseline: central; font-size:9.0px; font-family:Arial;" text-anchor="middle" x="100.0" y="100.0">2026</text><line stroke="#e1ed5e" stroke-width="0.3" x1="100.0" x2="100.0" y1="15.0" y2="10.0" /><path d="M 100.0 14.0 a86.0,86.0 0 0,1 42.46469731375804,11.215312516191453" fill="none" id="id121" stroke="none" /><text fill="#e1ed5e" style="font-size:6.75px; font-family:Arial;" text-anchor="middle"><textPath startOffset="22.20632615414155" xlink:href="#id121">January</textPath></text><path d="M 101.08401301168833 79.027996857942 l 1.8371179019442065 -35.54204792422023 a56.58949525960169,56.58949525960169 0 0,0 0.9723636917464366,0.0586556332962052 l -2.448643642530255 35.50515902154372" fill="#69ff28" stroke="none" /><path d="M 101.44485096284872 79.0497635885617 l 2.4446437534390824 -35.44716091361819 a56.53135938740833,56.53135938740833 0 0,0 0.9702122158050129,0.07530714080916347 l -3.0544461586064364 35.399828510620566" fill="#6aff28" stroke="none" /><path d="M 101.80526077348638 79.07773832637324 l 1.7005185988229738 -19.708341103946278 a40.78156901194749,40.78156901194749 0 0,0 0.6988696173921447,0.06636609118095177 l -2.0395133433053627 19.67614946825015" fill="#ffd013" stroke="none" /><path d="M 102.16513564639614 79.11191278185805 l 3.7010935534782656 -35.70619932115447 a56.89750358247228,56.89750358247228 0 0,0 0.9733084654285111,0.10936254676236036 l -4.3151687224165025 35.63720082092151" fill="#66ff29" stroke="none" /><path d="M 102.52436894288641 79.15227682838746 l 0.8831589912207748 -7.293646286282891 a28.346920848435914,28.346920848435914 0 0,0 0.48390255315800695,0.06282443949617621 l -1.0085762728866279 7.2773635236225775" fill="#ff1a02" stroke="none" /><path d="M 102.88285421437855 79.19881850522331 l 2.724491189563295 -19.658516005549274 a40.84641286939393,40.84641286939393 0 0,0 0.6956163943006394,0.10251577430740207 l -3.0624765642925897 19.608705747080904" fill="#ffd113" stroke="none" /><path d="M 103.2404852339499 79.25152402106235 l 1.2906419252532246 -8.263840459129323 a29.36401911243417,29.36401911243417 0 0,0 0.49872800037072085,0.08229439332757317 l -1.4326991317628208 8.240399802862125" fill="#ff2a04" stroke="none" /><path d="M 103.59715602781102 79.31037775812273 l 9.875881176304192 -56.802721167405075 a78.65485375083739,78.65485375083739 0 0,0 1.3319071306064558,0.24339751478220123 l -10.85218342801355 56.62430817127213" fill="#46fff6" stroke="none" /><path d="M 104.307194497241 79.44645832069477 l 8.242530567946824 -39.33260865738961 a61.18698065243143,61.18698065243143 0 0,0 1.0289822573563558,0.22489566660175384 l -8.918355549456708 39.18489949269199" fill="#37ff2e" stroke="none" /><path d="M 104.66035177308747 79.52364482259891 l 13.20125279900419 -58.002819156286094 a80.48613372492824,80.48613372492824 0 0,0 1.3482435891617404,0.3190856975512843 l -14.197720075128453 57.76698754659394" fill="#48f5ff" stroke="none" /><path d="M 105.01212808612495 79.60689891045804 l 3.343049385874178 -13.602035483129846 a35.00683220720221,35.00683220720221 0 0,0 0.5839324836894152,0.1488573918915398 l -3.5766907582486183 13.542475095069438" fill="#ff7f0b" stroke="none" /><path d="M 105.36241919743992 79.69619591428918 l 5.011463762061366 -18.974976528524785 a40.62560835481338,40.62560835481338 0 0,0 0.6745826373759178,0.18438891730159473 l -5.3373442886609945 18.885901070396894" fill="#ffce13" stroke="none" /><path d="M 105.71112130821622 79.79150937346287 l 17.13336392464865 -60.62547187961136 a84.0,84.0 0 0,0 1.3880391291062915,0.40520668432518603 l -18.174393271478365 60.321566866367476" fill="#4dd2ff" stroke="none" /><path d="M 106.0581310904928 79.89281104454417 l 3.1237125048483976 -10.36773167158353 a31.828085695398908,31.828085695398908 0 0,0 0.5232152733651645,0.16256553231600301 l -3.3017131509242805 10.312426004385006" fill="#ff5007" stroke="none" /><path d="M 106.40334571778207 80.00007090966166 l 1.931886985497318 -6.033971055661944 a27.335692071534098,27.335692071534098 0 0,0 0.44689584066901955,0.1473345323987271 l -2.035465648408755 5.99982279900398" fill="#ff0b01" stroke="none" /><path d="M 107.08798089147638 80.2323363322302 l 8.955359130716467 -24.975593195091257 a47.53259717040146,47.53259717040146 0 0,0 0.7678046220063142,0.2827889220546807 l -9.383946078495358 24.817741005230253" fill="#d5ff1c" stroke="none" /><path d="M 107.76421540070413 80.48803036053334 l 7.051046917337996 -17.71973165055118 a40.0710815738921,40.0710815738921 0 0,0 0.6386874936105349,0.2605366651316539 l -7.355018280536918 17.595734099235944" fill="#ffc612" stroke="none" /><path d="M 108.09893153111575 80.62456947434976 l 12.733981058328785 -30.464063606746564 a54.01838041197322,54.01838041197322 0 0,0 0.8548183423219134,0.36598860303338493 l -13.256483158441014 30.240355475750388" fill="#87ff25" stroke="none" /><path d="M 108.43124777332544 80.76684994638697 l 17.83555482081886 -40.68601841396861 a65.42363233852257,65.42363233852257 0 0,0 1.0275182771476077,0.4610174995172641 l -18.53325521643325 40.37298058393482" fill="#34ff5c" stroke="none" /><path d="M 108.76106565485865 80.91482961587045 l 12.57821970678655 -27.40048707429878 a51.14959871873933,51.14959871873933 0 0,0 0.7970125325739845,0.37420807081478097 l -13.048010450660133 27.179914020843995" fill="#a9ff21" stroke="none" /><path d="M 109.08828744355905 81.06846463323043 l 9.876546781374344 -20.57353443696981 a43.82140432913493,43.82140432913493 0 0,0 0.6772049916551304,0.3323015483361844 l -10.229223040039907 20.400477728498792" fill="#fff917" stroke="none" /><path d="M 109.41281617654863 81.2277094730956 l 9.640032020244586 -19.22543459666783 a42.506918718916786,42.506918718916786 0 0,0 0.6512454906061279,0.3335932348005464 l -9.96953799843947 19.056648836554782" fill="#ffe715" stroke="none" /><path d="M 109.73455568895987 81.39251694778311 l 16.189939943169385 -30.946870379568658 a55.92596371831786,55.92596371831786 0 0,0 0.8491557409173143,0.45358958867240917 l -16.720240730615007 30.663602064394496" fill="#71ff27" stroke="none" /><path d="M 110.05341064243156 81.56283822128135 l 3.296841454890189 -6.046147066354692 a27.886585360443295,27.886585360443295 0 0,0 0.4194619311143084,0.23343011052331578 l -3.400427475076533 5.988501558271196" fill="#ff1302" stroke="none" /><line stroke="#e1ed5e" stroke-width="0.3" x1="143.23703022742887" x2="145.7803849466894" y1="26.81831364943548" y2="22.513508569990506" /><path d="M 143.74570117128098 25.957352633546492 a86.0,86.0 0 0,1 28.547481713284135,27.462654790039103" fill="none" id="id122" stroke="none" /><text fill="#e1ed5e" style="font-size:6.75px; font-family:Arial;" text-anchor="middle"><textPath startOffset="19.985693538727396" xlink:href="#id122">February</textPath></text><path d="M 110.99172775467656 82.1063720568725 l 6.518144347363798 -10.611002422408474 a33.45309512295755,33.45309512295755 0 0,0 0.4880660780734781,0.30562693331434393 l -6.699829577809539 10.497231147771185" fill="#ff6809" stroke="none" /><path d="M 111.2981086023043 82.29822771554956 l 33.62485897707481 -52.6831187113514 a83.49913710110334,83.49913710110334 0 0,0 1.2049043742949288,0.7837033216370732 l -34.52673037715402 52.0965164655548" fill="#4cd7ff" stroke="none" /><path d="M 111.60114157652 82.49532879139004 l 8.096243509156844 -12.2162185262414 a35.65555028105216,35.65555028105216 0 0,0 0.5086778801216539,0.34346157534726934 l -8.30532608368504 12.075045038595462" fill="#ff880c" stroke="none" /><path d="M 111.90073688211348 82.69761687909136 l 9.590841988999962 -13.944046002326575 a37.923967294135394,37.923967294135394 0 0,0 0.5346717037734076,0.3745716971108789 l -9.829444832357021 13.776889462451761" fill="#ffa80f" stroke="none" /><path d="M 112.48926042617603 83.11751280151076 l 3.365905081604573 -4.549897072561708 a26.65958305790074,26.65958305790074 0 0,0 0.3665741498650804,0.2760960497992564 l -3.4437253852280367 4.491284433256604" fill="#ff0000" stroke="none" /><path d="M 112.77801427241765 83.33499621200491 l 5.212271993998166 -6.797811512195586 a29.566097168183212,29.566097168183212 0 0,0 0.40120834113929393,0.3131494741204754 l -5.32851289029689 6.707083648851886" fill="#ff2d04" stroke="none" /><line stroke="#e1ed5e" stroke-width="0.3" x1="172.23445277983987" x2="176.4835382374775" y1="55.19839476539836" y2="52.563006222186495" /><path d="M 173.08426987136738 54.67131705675599 a86.0,86.0 0 0,1 12.851231095245387,41.99856678651699" fill="none" id="id123" stroke="none" /><text fill="#e1ed5e" style="font-size:6.75px; font-family:Arial;" text-anchor="middle"><textPath startOffset="22.20632615414155" xlink:href="#id123">March</textPath></text><line stroke="#e1ed5e" stroke-width="0.3" x1="184.98032266829074" x2="189.97916517819016" y1="98.17113171792111" y2="98.06355123074" /><path d="M 185.9800911702706 98.14961562048488 a86.0,86.0 0 0,1 -9.607161424134198,41.387399972396054" fill="none" id="id124" stroke="none" /><text fill="#e1ed5e" style="font-size:6.75px; font-family:Arial;" text-anchor="middle"><textPath startOffset="21.466115282336823" xlink:href="#id124">April</textPath></text><line stroke="#e1ed5e" stroke-width="0.3" x1="174.80103733775053" x2="179.2010983576182" y1="140.37084112569926" y2="142.7455964860345" /><path d="M 175.68104954172406 140.8457921977663 a86.0,86.0 0 0,1 -30.038265399797805,32.042727171017184" fill="none" id="id125" stroke="none" /><text fill="#e1ed5e" style="font-size:6.75px; font-family:Arial;" text-anchor="middle"><textPath startOffset="22.206326154141568" xlink:href="#id125">May</textPath></text><line stroke="#e1ed5e" stroke-width="0.3" x1="143.8653032363475" x2="146.44561519142675" y1="172.8068346515853" y2="177.08958963109032" /><path d="M 144.38136562736335 173.6633856474863 a86.0,86.0 0 0,1 -40.68145358897372,12.25698825130547" fill="none" id="id126" stroke="none" /><text fill="#e1ed5e" style="font-size:6.75px; font-family:Arial;" text-anchor="middle"><textPath startOffset="21.466115282336833" xlink:href="#id126">June</textPath></text><line stroke="#e1ed5e" stroke-width="0.3" x1="102.19456741930631" x2="102.32365962044197" y1="184.97166512339345" y2="189.96999836594603" /><path d="M 102.22038585953345 185.97133177190398 a86.0,86.0 0 0,1 -42.740103519485714,-10.115201625700543" fill="none" id="id127" stroke="none" /><text fill="#e1ed5e" style="font-size:6.75px; font-family:Arial;" text-anchor="middle"><textPath startOffset="22.20632615414155" xlink:href="#id127">July</textPath></text><line stroke="#e1ed5e" stroke-width="0.3" x1="58.666819895761336" x2="56.23545636021788" y1="174.27360380694188" y2="178.64263932499728" /><path d="M 58.180547188652646 175.14741091055294 a86.0,86.0 0 0,1 -31.652253787137756,-30.449443065178592" fill="none" id="id128" stroke="none" /><text fill="#e1ed5e" style="font-size:6.75px; font-family:Arial;" text-anchor="middle"><textPath startOffset="22.20632615414155" xlink:href="#id128">August</textPath></text><line stroke="#e1ed5e" stroke-width="0.3" x1="26.63291911575756" x2="22.317208475507996" y1="142.92168965132927" y2="145.44649492493687" /><path d="M 25.769776987707644 143.4266507060508 a86.0,86.0 0 0,1 -11.730757126820373,-40.83630448921669" fill="none" id="id129" stroke="none" /><text fill="#e1ed5e" style="font-size:6.75px; font-family:Arial;" text-anchor="middle"><textPath startOffset="21.46611528233685" xlink:href="#id129">September</textPath></text><line stroke="#e1ed5e" stroke-width="0.3" x1="15.007084014347285" x2="10.007500721073583" y1="101.09737516637583" y2="101.16192664675087" /><path d="M 14.007167355692545 101.11028546245083 a86.0,86.0 0 0,1 10.666146001902534,-42.60595125391555" fill="none" id="id130" stroke="none" /><text fill="#e1ed5e" style="font-size:6.75px; font-family:Arial;" text-anchor="middle"><textPath startOffset="22.20632615414155" xlink:href="#id130">October</textPath></text><line stroke="#e1ed5e" stroke-width="0.3" x1="26.266209847984243" x2="21.928928074336255" y1="57.711370442889674" y2="55.22380399835377" /><path d="M 25.398753493254645 57.213857153982495 a86.0,86.0 0 0,1 29.58750427330803,-30.492523968695096" fill="none" id="id131" stroke="none" /><text fill="#e1ed5e" style="font-size:6.75px; font-family:Arial;" text-anchor="middle"><textPath startOffset="21.46611528233685" xlink:href="#id131">November</textPath></text><line stroke="#e1ed5e" stroke-width="0.3" x1="56.762969772571076" x2="54.21961505331055" y1="26.818313649435495" y2="22.513508569990535" /><path d="M 56.25429882871897 25.957352633546506 a86.0,86.0 0 0,1 42.265352541879196,-11.944610805530505" fill="none" id="id132" stroke="none" /><text fill="#e1ed5e" style="font-size:6.75px; font-family:Arial;" text-anchor="middle"><textPath startOffset="22.20632615414155" xlink:href="#id132">December</textPath></text></svg>