<?xml version="1.0" encoding="utf-8" ?>
<svg baseProfile="full" height="200mm" version="1.1" viewBox="0,0,200,200" width="200mm" xmlns="http://www.w3.org/2000/svg" xmlns:ev="http://www.w3.org/2001/xml-events" xmlns:xlink="http://www.w3.org/1999/xlink"><defs /><rect fill="#1a1a1a" height="200" width="200" x="0" y="0" /><rect fill="#1a1a1a" height="200" width="180" x="10" y="0" /><text alignment-baseline="middle" fill="#e1ed5e" style="dominant-baseline: central; font-size:9.0px; font-family:Arial;" text-anchor="middle" x="100.0" y="100.0">2026</text><line stroke="#e1ed5e" stroke-width="0.3" x1="100.0" x2="100.0" y1="15.0" y2="10.0" /><path d="M 100.0 14.0 a86.0,86.0 0 0,1 42.46469731375804,11.215312516191453" fill="none" id="id121" stroke="none" /><text fill="#e1ed5e" style="font-size:6.75px; font-family:Arial;" text-anchor="middle"><textPath startOffset="22.20632615414155" xlink:href="#id121">January</textPath></text><path d="M 101.08401301168833 79.027996857942 l 0.18453621564195877 -3.5701546499327117 a24.574920675947876,24.574920675947876 0 0,0 0.4222649536494329,0.02547217515970252 l -0.24596321813100358 3.566449205392705" fill="#ff2e04" stroke="none" /><path d="M 101.44485096284872 79.0497635885617 l 0.2455614342307481 -3.56062336735605 a24.569080999661313,24.569080999661313 0 0,0 0.4216637062204398,0.03272921901123348 l -0.30681532981352905 3.555868886156352" fill="#ff2e04" stroke="none" /><path d="M 101.80526077348638 79.07773832637324 l 0.17081498499549683 -1.9796784300311974 a22.98703408260397,22.98703408260397 0 0,0 0.39392647471663467,0.03740806538019193 l -0.2048665868023757 1.9764448201358273" fill="#ff1802" stroke="none" /><path d="M 102.16513564639614 79.11191278185805 l 0.37177025893271787 -3.5866434542443635 a24.605859730119967,24.605859730119967 0 0,0 0.4209163858965856,0.0472948603353539 l -0.43345334833902877 3.5797126404384088" fill="#ff2f04" stroke="none" /><path d="M 102.52436894288641 79.15227682838746 l 0.08871222575185685 -0.7326377269946994 a21.73798909071463,21.73798909071463 0 0,0 0.3710832819465864,0.04817726015816963 l -0.10131023620628934 0.731002143672393" fill="#ff0601" stroke="none" /><path d="M 102.88285421437855 79.19881850522331 l 0.2736717622422572 -1.9746735606690067 a22.99354756769283,22.99354756769283 0 0,0 0.39158123143791373,0.05770889454878801 l -0.3076219741088267 1.9696701819592497" fill="#ff1802" stroke="none" /><path d="M 103.2404852339499 79.25152402106235 l 0.1296433812892624 -0.8300925288370252 a21.840155350362753,21.840155350362753 0 0,0 0.3709402641363893,0.061208321921333284 l -0.1439128515645269 0.8277379439760673" fill="#ff0701" stroke="none" /><path d="M 103.59715602781102 79.31037775812273 l 0.9920200203134169 -5.70576291881166 a26.791358580366854,26.791358580366854 0 0,0 0.4536732296885768,0.082905882919281 l -1.0900883711048945 5.68784155454164" fill="#ff4d07" stroke="none" /><path d="M 104.307194497241 79.44645832069477 l 0.8279519766871593 -3.950911776146451 a25.03673238382146,25.03673238382146 0 0,0 0.4210430573698826,0.0920237043722388 l -0.8958377582105699 3.936074573678342" fill="#ff3505" stroke="none" /><path d="M 104.66035177308747 79.52364482259891 l 1.3260494771091913 -5.826311273946216 a26.975308383393642,26.975308383393642 0 0,0 0.4518702155313879,0.10694308067515318 l -1.4261433796031027 5.802622281130195" fill="#ff5007" stroke="none" /><path d="M 105.01212808612495 79.60689891045804 l 0.3358051661902158 -1.366307600850244 a22.406968929927448,22.406968929927448 0 0,0 0.3737600975078286,0.09527977097046621 l -0.3592741523830694 1.36032483371091" fill="#ff1001" stroke="none" /><path d="M 105.36241919743992 79.69619591428918 l 0.5033953218238815 -1.9060128676353716 a22.971368027950586,22.971368027950586 0 0,0 0.38143640565549203,0.10426097850934533 l -0.5361296167030843 1.8970653482997326" fill="#ff1802" stroke="none" /><path d="M 105.71112130821622 79.79150937346287 l 1.72102516475676 -6.089753488511399 a27.328271894329667,27.328271894329667 0 0,0 0.4515798895260154,0.13182855288855352 l -1.8255952720062025 6.059226606704143" fill="#ff5407" stroke="none" /><path d="M 106.0581310904928 79.89281104454417 l 0.3137730484190202 -1.0414257927814872 a22.087667783739462,22.087667783739462 0 0,0 0.36309457150729024,0.11281525082112336 l -0.33165299263702863 1.0358704070778433" fill="#ff0b01" stroke="none" /><path d="M 106.40334571778207 80.00007090966166 l 0.1940556525927615 -0.6061049117895918 a21.636412413768518,21.636412413768518 0 0,0 0.3537215260330539,0.11661642578598515 l -0.20446000086823285 0.6026747617443705" fill="#ff0400" stroke="none" /><path d="M 107.08798089147638 80.2323363322302 l 0.899554722072088 -2.5087673723921777 a23.665166491381306,23.665166491381306 0 0,0 0.3822687017814821,0.14079278896440212 l -0.9426057496261465 2.492911315621451" fill="#ff2103" stroke="none" /><path d="M 107.76421540070413 80.48803036053334 l 0.70826892115222 -1.7799250758610603 a22.915666500294122,22.915666500294122 0 0,0 0.3652496769895937,0.1489945141172761 l -0.7388024677302012 1.7674696755602048" fill="#ff1702" stroke="none" /><path d="M 108.09893153111575 80.62456947434976 l 1.2791126100690222 -3.060077420788024 a24.316655377101196,24.316655377101196 0 0,0 0.3848009303821997,0.16475167644857613 l -1.3315972982415372 3.0376062163766573" fill="#ff2b04" stroke="none" /><path d="M 108.43124777332544 80.76684994638697 l 1.791559369720063 -4.086860108274553 a25.46229879320487,25.46229879320487 0 0,0 0.39990102128288996,0.17942393141465626 l -1.861642509469733 4.055415846343364" fill="#ff3b05" stroke="none" /><path d="M 108.76106565485865 80.91482961587045 l 1.2634665754152512 -2.7523449562417173 a24.02848981265263,24.02848981265263 0 0,0 0.3744116864888372,0.17579130711911425 l -1.3106564732036863 2.7301886664826" fill="#ff2703" stroke="none" /><path d="M 109.08828744355905 81.06846463323043 l 0.992086879517514 -2.0665860276904686 a23.292381771511078,23.292381771511078 0 0,0 0.35995462593418115,0.17662817168012573 l -1.027512772462127 2.0492026958755107" fill="#ff1c02" stroke="none" /><path d="M 109.41281617654863 81.2277094730956 l 0.9683292649865366 -1.9311710700693039 a23.160343321627835,23.160343321627835 0 0,0 0.3548379794084553,0.18176179503490364 l -1.0014277319837475 1.9142167497218996" fill="#ff1a02" stroke="none" /><path d="M 109.73455568895987 81.39251694778311 l 1.6262593954483184 -3.108574762547423 a24.508269755254105,24.508269755254105 0 0,0 0.37212301011824506,0.19877522456921057 l -1.6795274520948749 3.080120811476458" fill="#ff2d04" stroke="none" /><path d="M 110.05341064243156 81.56283822128135 l 0.33116363681019795 -0.6073279769681919 a21.69174896165707,21.69174896165707 0 0,0 0.3262809982325792,0.18157502225948896 l -0.34156872411481226 0.601537557148523" fill="#ff0500" stroke="none" /><line stroke="#e1ed5e" stroke-width="0.3" x1="143.23703022742887" x2="145.7803849466894" y1="26.81831364943548" y2="22.513508569990506" /><path d="M 143.74570117128098 25.957352633546492 a86.0,86.0 0 0,1 28.547481713284135,27.462654790039103" fill="none" id="id122" stroke="none" /><text fill="#e1ed5e" style="font-size:6.75px; font-family:Arial;" text-anchor="middle"><textPath startOffset="19.985693538727396" xlink:href="#id122">February</textPath></text><path d="M 110.99172775467656 82.1063720568725 l 0.6547395186762879 -1.065862038101454 a22.250897966095653,22.250897966095653 0 0,0 0.32463090377765097,0.2032838421638687 l -0.6729895748262021 1.054433854614641" fill="#ff0d01" stroke="none" /><path d="M 111.2981086023043 82.29822771554956 l 3.377575397070177 -5.291953959471087 a27.27796083709157,27.27796083709157 0 0,0 0.3936248382382755,0.2560245441773814 l -3.4681672610927325 5.233030491134177" fill="#ff5407" stroke="none" /><path d="M 111.60114157652 82.49532879139004 l 0.8132576229943852 -1.2271040056286169 a22.47213185618282,22.47213185618282 0 0,0 0.3205973909899799,0.21646878951235046 l -0.834259708390907 1.2129233038175964" fill="#ff1001" stroke="none" /><path d="M 111.90073688211348 82.69761687909136 l 0.9633881873324655 -1.4006621334883056 a22.699991532825898,22.699991532825898 0 0,0 0.32003622021831124,0.22420582443040069 l -0.9873555471344276 1.3838714662939693" fill="#ff1402" stroke="none" /><path d="M 112.48926042617603 83.11751280151076 l 0.33810099249046976 -0.45703152010134995 a21.568498101570437,21.568498101570437 0 0,0 0.29657079926111807,0.2233709774460093 l -0.34591794550997074 0.4511439531494933" fill="#ff0300" stroke="none" /><path d="M 112.77801427241765 83.33499621200491 l 0.5235662597654009 -0.6828317386599683 a21.860453840531918,21.860453840531918 0 0,0 0.2966436987615047,0.2315351121677365 l -0.535242513686336 0.6737182372690077" fill="#ff0801" stroke="none" /><path d="M 114.16331599549186 84.49514656593476 l 0.22254601627704998 -0.24362538870198583 a21.329969785557676,21.329969785557676 0 0,0 0.2689527541957045,0.249962273494868 l -0.22670665426760128 0.23975852913247733" fill="#ff0000" stroke="none" /><path d="M 114.42810811169701 84.74124197986012 l 3.7897798919943604 -4.00796375199411 a26.515995383161908,26.515995383161908 0 0,0 0.3289457671242587,0.31644556735014717 l -3.8582089027310373 3.9421350978816605" fill="#ff4906" stroke="none" /><path d="M 114.68862486808459 84.99185889309783 l 1.2009735882869328 -1.2270979237706767 a22.71700520508387,22.71700520508387 0 0,0 0.2771087362359561,0.2759187432576925 l -1.2219181246902115 1.2062433298628656" fill="#ff1402" stroke="none" /><path d="M 114.94478906791727 85.2469230424477 l 9.011209106637954 -8.895613101440249 a33.66229923884561,33.66229923884561 0 0,0 0.403523984968432,0.4158669372696517 l -9.162997355309496 8.739181968620482" fill="#ffa90f" stroke="none" /><path d="M 115.19652480421416 85.50635884689758 l 7.253280241083055 -6.917794847937422 a31.023270913920037,31.023270913920037 0 0,0 0.36523649282306164,0.38960882516562917 l -7.371284055876579 6.791916605893738" fill="#ff860c" stroke="none" /><path d="M 115.4437574822437 85.77008943001954 l 2.060395019845159 -1.8984522973077789 a23.80166892457976,23.80166892457976 0 0,0 0.27502982516671254,0.303694802222578 l -2.092768485627907 1.8627047078156518" fill="#ff2303" stroke="none" /><path d="M 115.68641384162765 86.03803664274999 l 13.218471937370936 -11.76532907340794 a38.696072122497725,38.696072122497725 0 0,0 0.438570476796803,0.5013618695514481 l -13.419034277745588 11.536051647653546" fill="#ffe815" stroke="none" /><path d="M 115.9244219780498 86.31012108654704 l 6.578095736257997 -5.655045704930611 a29.674726822224997,29.674726822224997 0 0,0 0.3296570864425837,0.39021001115040643 l -6.674463436187698 5.540976744151098" fill="#ff740a" stroke="none" /><path d="M 116.15771136456269 86.58626213691792 l 29.9204889565045 -24.839260124303856 a59.887330879338315,59.887330879338315 0 0,0 0.6516354957832309,0.7988280675819178 l -30.34362294436414 24.320547887113836" fill="#2fff30" stroke="none" /><path d="M 116.38621287248628 86.86637796730983 l 6.9855144904316955 -5.598920735080726 a29.952392199504448,29.952392199504448 0 0,0 0.3189871567556358,0.4050812954267117 l -7.0808557277812945 5.477847045700976" fill="#ff780b" stroke="none" /><path d="M 116.82858285166822 87.43820079747576 l 1.0747761520798629 -0.8022732709635463 a22.34118834560331,22.34118834560331 0 0,0 0.22738796334906042,0.3101569264643854 l -1.0884267279425497 0.7836539008276672" fill="#ff0f01" stroke="none" /><path d="M 117.04232023915458 87.72973835380427 l 6.980595006459611 -5.02594282781978 a29.60167471790941,29.60167471790941 0 0,0 0.29416647363324516,0.41607761535834287 l -7.066074099896739 4.905038712129644" fill="#ff730a" stroke="none" /><path d="M 117.2510076193507 88.02491185347247 l 14.231666147364958 -9.879159545178021 a38.32449464339828,38.32449464339828 0 0,0 0.37152045119074145,0.5451604189066026 l -14.399611064224432 9.632721103001012" fill="#ffe315" stroke="none" /><path d="M 117.45458315368197 88.32363383020206 l 13.508478038493838 -9.036591397535348 a37.25235253747839,37.25235253747839 0 0,0 0.3519520040127836,0.5360470481505442 l -13.662026677864546 8.802726285407129" fill="#ffd614" stroke="none" /><path d="M 117.65298651832404 88.62581576622439 l 0.39698687083289486 -0.25578684958244197 a21.472255744309166,21.472255744309166 0 0,0 0.19751653600713273,0.31242372626456255 l -0.40133100308598324 0.24891547560367322" fill="#ff0200" stroke="none" /><line stroke="#e1ed5e" stroke-width="0.3" x1="172.23445277983987" x2="176.4835382374775" y1="55.19839476539836" y2="52.563006222186495" /><path d="M 173.08426987136738 54.67131705675599 a86.0,86.0 0 0,1 12.851231095245387,41.99856678651699" fill="none" id="id123" stroke="none" /><text fill="#e1ed5e" style="font-size:6.75px; font-family:Arial;" text-anchor="middle"><textPath startOffset="22.20632615414155" xlink:href="#id123">March</textPath></text><path d="M 117.84615892207809 88.93136811851018 l 3.0871065031386715 -1.914700278720612 a24.632671705377994,24.632671705377994 0 0,0 0.22038523140202207,0.3622553740300383 l -3.1196075328269175 1.8612771314834924" fill="#ff2f04" stroke="none" /><path d="M 118.03404312379186 89.2402003453031 l 7.369352506675 -4.396837470797242 a29.581348152373483,29.581348152373483 0 0,0 0.25713280577813513,0.43952331589845656 l -7.443944986923462 4.269334742544889" fill="#ff730a" stroke="none" /><path d="M 118.21658344932153 89.55222093294921 l 1.514633626998971 -0.868689650089158 a22.74606320968288,22.74606320968288 0 0,0 0.1918710137273637,0.3413171238779326 l -1.5293622820187678 0.8424890162764315" fill="#ff1402" stroke="none" /><path d="M 118.3937258080291 89.86733742301442 l 2.402342102762053 -1.323392670730596 a23.74273872974563,23.74273872974563 0 0,0 0.19411599725092377,0.359667461795287 l -2.424766199231442 1.2818442256028504" fill="#ff2303" stroke="none" /><path d="M 118.89224826269711 90.83032412892265 l 12.45210784405361 -6.043843551808712 a34.84135234139646,34.84135234139646 0 0,0 0.25723172361932684,0.54179561221063 l -12.554297761514693 5.828605523957542" fill="#ffb811" stroke="none" /><path d="M 119.34039704204932 91.81776055985345 l 3.753551878554274 -1.5879953319763191 a25.07564484215405,25.07564484215405 0 0,0 0.16475691312196383,0.39897193352595883 l -3.780330478562435 1.5231488279970573" fill="#ff3505" stroke="none" /><path d="M 119.47837535516314 92.15188598940014 l 4.031757037931719 -1.6244521588572436 a25.34671250824435,25.34671250824435 0 0,0 0.1595713753754327,0.4060917450485372 l -4.0591219631888515 1.554811408912922" fill="#ff3905" stroke="none" /><path d="M 119.61058180528143 92.48833698450437 l 4.205076582134827 -1.6107180578825089 a25.50300807501025,25.50300807501025 0 0,0 0.1534982476232045,0.4112989891028597 l -4.232179418259657 1.538095931750316" fill="#ff3b05" stroke="none" /><path d="M 119.7369772167798 92.82701384747503 l 3.4031060513308056 -1.2367867842000015 a24.620880051337814,24.620880051337814 0 0,0 0.14133196371142817,0.3995644933791211 l -3.423891095852043 1.1780246643942658" fill="#ff2f04" stroke="none" /><path d="M 119.97218684219823 93.5106431181261 l 10.695537012341727 -3.475190637097881 a32.245953136419544,32.245953136419544 0 0,0 0.16697955115490656,0.5293708084381965 l -10.75377204726484 3.290569662233265" fill="#ff960d" stroke="none" /><path d="M 120.28053869075195 94.5502522615342 l 5.380511978753072 -1.4458409332770283 a26.57138808178399,26.57138808178399 0 0,0 0.114894262148748,0.44273446037832825 l -5.404602572772123 1.3530100473498499" fill="#ff4a06" stroke="none" /><path d="M 120.37134235888165 94.90015583598534 l 10.157719093341697 -2.542924443822596 a31.47118531524626,31.47118531524626 0 0,0 0.12703448817363075,0.5266399665219602 l -10.199986381776148 2.3676992456412296" fill="#ff8c0c" stroke="none" /><path d="M 120.45610955862082 95.25157060432595 l 6.752578210701564 -1.5674603609448603 a27.93211688265388,27.93211688265388 0 0,0 0.10468639912285756,0.4692886003277285 l -6.77855899682646 1.450993591067168" fill="#ff5d08" stroke="none" /><path d="M 120.53481517161879 95.60439243477599 l 29.72247853645308 -6.3622852419247 a51.39579582523753,51.39579582523753 0 0,0 0.17773327999227675,0.8666905939319761 l -29.827591112360356 5.849718991829312" fill="#85ff25" stroke="none" /><path d="M 120.6074358757038 95.95851677861258 l 2.5704652942162496 -0.5041137781717777 a23.619431718925473,23.619431718925473 0 0,0 0.07481092392594456,0.39964294702906306 l -2.578761942052054 0.4597927536801518" fill="#ff2103" stroke="none" /><path d="M 120.73433829027371 96.67025291283417 l 11.136118189762561 -1.7883598012910982 a32.278801315531474,32.278801315531474 0 0,0 0.08337784467673125,0.5493558210043131 l -11.165251927878591 1.596404867894703" fill="#ff970d" stroke="none" /><path d="M 120.78858239683441 97.02765380044208 l 4.916754132862236 -0.7029962496720854 a25.96675698319043,25.96675698319043 0 0,0 0.05945645558307939,0.4430196544353058 l -4.928126587503151 0.6182582531721152" fill="#ff4206" stroke="none" /><path d="M 120.83666639777658 97.38593545837742 l 1.1057279978167323 -0.1387191356137696 a22.1143955328972,22.1143955328972 0 0,0 0.04413364334870152,0.37811010424988784 l -1.1079519941690226 0.11966529303902906" fill="#ff0b01" stroke="none" /><path d="M 120.87857604477298 97.74499172005257 l 9.174762525266688 -0.9909279932051381 a30.2281203764773,30.2281203764773 0 0,0 0.051420730717683855,0.5177997409633691 l -9.1904603816666 0.832852721537334" fill="#ff7c0b" stroke="none" /><path d="M 120.91429891909075 98.10471618934814 l 38.80035096132018 -3.516143539359801 a59.959344195083695,59.959344195083695 0 0,0 0.08430145653354415,1.0286912974684672 l -38.855126901673216 2.847738324683565" fill="#2fff31" stroke="none" /><path d="M 120.96714384426684 98.82574320788733 l 11.203017533720535 -0.6274206696362105 a32.220573004866395,32.220573004866395 0 0,0 0.02624655927440344,0.5540233833476216 l -11.212157701228435 0.43448617966558906" fill="#ff960d" stroke="none" /><path d="M 120.98425023603335 99.18683210126433 l 32.89255695075625 -1.2746307882737948 a53.91724451416246,53.91724451416246 0 0,0 0.027955592018090284,0.9277100005501238 l -32.909624237229984 0.708250640298672" fill="#6aff28" stroke="none" /><line stroke="#e1ed5e" stroke-width="0.3" x1="184.98032266829074" x2="189.97916517819016" y1="98.17113171792111" y2="98.06355123074" /><path d="M 185.9800911702706 98.14961562048488 a86.0,86.0 0 0,1 -9.607161424134198,41.387399972396054" fill="none" id="id124" stroke="none" /><text fill="#e1ed5e" style="font-size:6.75px; font-family:Arial;" text-anchor="middle"><textPath startOffset="21.466115282336823" xlink:href="#id124">April</textPath></text><path d="M 120.99980553446 99.90962569577887 l 12.695900185853432 -0.0546377986155444 a33.69601775432717,33.69601775432717 0 0,0 -0.002496237435874351,0.5800376685937921 l -12.694959651128055 -0.1639093481819324" fill="#ffa90f" stroke="none" /><path d="M 120.9904718944345 100.63252640178507 l 24.28587570473515 0.7318300251167094 a45.29689967735611,45.29689967735611 0 0,0 -0.030193332568381318,0.7791557525326166 l -24.269680239315566 -1.1497630246633321" fill="#c8ff1d" stroke="none" /><path d="M 120.9764740272857 100.99374915477107 l 5.348787743208671 0.25339593737009175 a26.354786627212608,26.354786627212608 0 0,0 -0.02536792425316718,0.452961328747904 l -5.343633468067975 -0.3454289824534191" fill="#ff4706" stroke="none" /><path d="M 120.95626037817324 101.35467743843564 l 1.671431640904107 0.10804650700840505 a22.674920230307137,22.674920230307137 0 0,0 -0.028530924976016354,0.38928180337231255 l -1.669324157263753 -0.13680144687748788" fill="#ff1302" stroke="none" /><path d="M 120.92983693683757 101.71520430193887 l 13.190817162825812 1.0809900914204864 a34.23503672079716,34.23503672079716 0 0,0 -0.05318723307072182,0.5869166849147663 l -13.170255333478016 -1.3078881648838232" fill="#ffb010" stroke="none" /><path d="M 120.81339534386255 102.79330883721812 l 4.380490867048737 0.5878936928898841 a25.419764612559938,25.419764612559938 0 0,0 -0.06193458949220211,0.4331703746569871 l -4.369722226539933 -0.6632095395272806" fill="#ff3a05" stroke="none" /><path d="M 120.76222939487914 103.15116336523771 l 41.816375017056664 6.346631978417997 a63.29525927378385,63.29525927378385 0 0,0 -0.1727606294676514,1.075780604607964 l -41.70093263322773 -7.065491812719166" fill="#34ff58" stroke="none" /><path d="M 120.70491114924044 103.5080841355445 l 6.150077206344064 1.0420227415822998 a27.23772883652115,27.23772883652115 0 0,0 -0.0823014665370351,0.4615903316919519 l -6.13122929746784 -1.14773182400747" fill="#ff5307" stroke="none" /><path d="M 120.64145759157962 103.86396538481128 l 5.491746646124224 1.0280242491903187 a26.587138362537658,26.587138362537658 0 0,0 -0.0880794760889065,0.44911535098359384 l -5.473237237059654 -1.1224033272418574" fill="#ff4a06" stroke="none" /><path d="M 120.5718875245553 104.21870165774334 l 32.259934924155125 6.61558356182814 a53.93128219754363,53.93128219754363 0 0,0 -0.19432201477621278,0.9078077599046884 l -32.14127887065447 -7.169905141148997" fill="#6aff28" stroke="none" /><path d="M 120.49622156327973 104.57218783832717 l 0.3652667161248674 0.08148175174900782 a21.37424463894187,21.37424463894187 0 0,0 -0.08319612668804875,0.35840673632718284 l -0.3638100235062658 -0.08775714542475556" fill="#ff0100" stroke="none" /><path d="M 120.41448212921028 104.9243191809786 l 5.881986573591619 1.4188348802221753 a27.0506907431505,27.0506907431505 0 0,0 -0.11308307560723552,0.45171067469968795 l -5.856692183689323 -1.5198733943192593" fill="#ff5107" stroke="none" /><path d="M 120.32669344350535 105.2749913415812 l 1.6228490869613357 0.42114645484306307 a22.676604752312876,22.676604752312876 0 0,0 -0.10130171018341273,0.37698134875366074 l -1.6153593004361457 -0.4490187367722721" fill="#ff1302" stroke="none" /><path d="M 120.23288151984713 105.62410040840565 l 20.04229772303925 5.5711241475398365 a41.80219032424821,41.80219032424821 0 0,0 -0.1986745899356487,0.6916123112235588 l -19.943430496217502 -5.915293934267978" fill="#f1ff19" stroke="none" /><path d="M 120.13307415673323 105.97154293290107 l 0.8289967971174533 0.2458834615462223 a21.86469322091303,21.86469322091303 0 0,0 -0.11012853191139296,0.3599064142806438 l -0.8246414926999277 -0.26011684837892324" fill="#ff0801" stroke="none" /><path d="M 120.02730092923936 106.31721596034902 l 1.3346506213387854 0.4209891405936612 a22.399472807001906,22.399472807001906 0 0,0 -0.11915212789014146,0.36671254242689133 l -1.327206242432397 -0.4439005829983478" fill="#ff0f01" stroke="none" /><path d="M 119.9155931802556 106.66101706037122 l 30.17079771324797 10.090997364426709 a52.81360184673524,52.81360184673524 0 0,0 -0.2957792299090278,0.8596728933041639 l -29.992627652395715 -10.608842960820173" fill="#76ff27" stroke="none" /><path d="M 119.79798401119884 107.00284435728193 l 2.4647341366907196 0.8718134902806994 a23.61437815290825,23.61437815290825 0 0,0 -0.13884775206344643,0.382049380941946 l -2.449362123622046 -0.9141106682287766" fill="#ff2103" stroke="none" /><path d="M 119.54520255179757 107.68017299344265 l 1.1090009735033244 0.4357754443234717 a22.191546640760084,22.191546640760084 0 0,0 -0.14276285413103962,0.3543256960567878 l -1.1013355051148923 -0.454800508223073" fill="#ff0c01" stroke="none" /><path d="M 119.41010516605496 108.01547362559984 l 41.30559577452538 17.057296222145503 a65.68896504394019,65.68896504394019 0 0,0 -0.44058220347293775,1.041406183131076 l -41.005862589860136 -17.765776930942742" fill="#37ff73" stroke="none" /><path d="M 119.26925614724726 108.34839909993367 l 14.642860563492434 6.344014684042582 a36.95806654307563,36.95806654307563 0 0,0 -0.2579301972848857,0.581564503293966 l -14.531489281476274 -6.595127523829237" fill="#ffd213" stroke="none" /><path d="M 119.12269723197855 108.67885076344098 l 6.205451430987791 2.8163488777755474 a27.814649548120286,27.814649548120286 0 0,0 -0.2016236040442106,0.43427930583336116 l -6.1560532101037495 -2.9227482508877394" fill="#ff5b08" stroke="none" /><path d="M 118.97047184881838 109.00673069616215 l 10.201781340977282 4.843564139657268 a32.293203978680545,32.293203978680545 0 0,0 -0.24273224197673693,0.5001003133872867 l -10.116895842385832 -5.01845340900983" fill="#ff970d" stroke="none" /><path d="M 118.81262510543309 109.33194174019688 l 2.25179567146633 1.11699594815625 a23.513615661598244,23.513615661598244 0 0,0 -0.18298220712156202,0.36104125417732946 l -2.232234794558499 -1.1555914140362735" fill="#ff1f03" stroke="none" /><path d="M 118.64920377521936 109.65438752849418 l 2.4915580914970237 1.2898388400383436 a23.80562755129325,23.80562755129325 0 0,0 -0.19151909832968453,0.36228195818310277 l -2.468986484942446 -1.3325358133075806" fill="#ff2303" stroke="none" /><line stroke="#e1ed5e" stroke-width="0.3" x1="174.80103733775053" x2="179.2010983576182" y1="140.37084112569926" y2="142.7455964860345" /><path d="M 175.68104954172406 140.8457921977663 a86.0,86.0 0 0,1 -30.038265399797805,32.042727171017184" fill="none" id="id125" stroke="none" /><text fill="#e1ed5e" style="font-size:6.75px; font-family:Arial;" text-anchor="middle"><textPath startOffset="22.206326154141568" xlink:href="#id125">May</textPath></text><path d="M 118.48025628344425 109.97397251340804 l 3.5762404006969644 1.9301314284177802 a25.063853188113868,25.063853188113868 0 0,0 -0.2081774888595738,0.3779026115193341 l -3.542486502385881 -1.9914045583349194" fill="#ff3505" stroke="none" /><path d="M 118.30583269289576 110.29060199501025 l 15.700639478826185 8.826095739771949 a39.011386566605466,39.011386566605466 0 0,0 -0.3341009524443747,0.582533172039857 l -15.54638653022943 -9.09504875767012" fill="#ffec16" stroke="none" /><path d="M 118.12598468904814 110.60418214915192 l 2.8288672017247056 1.6549623977656458 a24.277406014367457,24.277406014367457 0 0,0 -0.21412570868093964,0.3588870042370065 l -2.799960617345539 -1.7034114958887565" fill="#ff2a04" stroke="none" /><path d="M 117.94076556474637 110.91462005526583 l 43.41886572035397 26.41472688877248 a71.8225904205066,71.8225904205066 0 0,0 -0.6516544355119782,1.0506744413347138 l -42.95774664517403 -27.15819766147247" fill="#3effb6" stroke="none" /><path d="M 117.75023020441432 111.22182372390056 l 3.5274465258763548 2.2300771681837435 a25.173262892386674,25.173262892386674 0 0,0 -0.23470487844096563,0.3642671834521486 l -3.488536784058339 -2.290465951557345" fill="#ff3705" stroke="none" /><path d="M 117.55443506779139 111.5257021239791 l 4.785475932772601 3.141996305184858 a26.7247638104066,26.7247638104066 0 0,0 -0.25579021592969864,0.38237166674265455 l -4.730682611432181 -3.2239048861333197" fill="#ff4c07" stroke="none" /><path d="M 117.35343817320211 111.8261652097733 l 1.0748883366940039 0.7325238333134357 a22.30075981746555,22.30075981746555 0 0,0 -0.2189075427794016,0.315352642269762 l -1.0621198867524662 -0.7509177377702173" fill="#ff0e01" stroke="none" /><path d="M 117.14729908036423 112.12312394758627 l 1.307115143270211 0.9241291483495343 a22.60080126205458,22.60080126205458 0 0,0 -0.2273212350023289,0.31572931334116555 l -1.2910141158922794 -0.9464920671418311" fill="#ff1202" stroke="none" /><path d="M 116.93607887273984 112.41649034213515 l 1.8118304667596234 1.3283225509959897 a23.246590848321716,23.246590848321716 0 0,0 -0.2393720646999311,0.3206779982893061 l -1.7886971353646004 -1.3593134287946107" fill="#ff1b02" stroke="none" /><path d="M 116.71984013943494 112.70617746262583 l 2.2228395467998836 1.6892382652611067 a23.791870621579708,23.791870621579708 0 0,0 -0.2505999803391975,0.3239342558057164 l -2.1934327492426178 -1.7272505151800757" fill="#ff2303" stroke="none" /><path d="M 116.498646956653 112.99209946851258 l 1.5631202631466328 1.2309017820312476 a22.989588940979342,22.989588940979342 0 0,0 -0.24750163184653565,0.3087963408441686 l -1.541700719245243 -1.2576259564536667" fill="#ff1802" stroke="none" /><path d="M 116.27256486870786 113.27417163493432 l 5.272927123412986 4.301334191592775 a27.80479509438671,27.80479509438671 0 0,0 -0.3057256385444892,0.36826622636961526 l -5.1981054849749535 -4.391461675076161" fill="#ff5b08" stroke="none" /><path d="M 116.0416608686014 113.55231037782055 l 1.0140311893115903 0.85667347807106 a22.32745949125653,22.32745949125653 0 0,0 -0.2505539557795053,0.2914508554331769 l -0.9991347239613062 -0.8740014326657649" fill="#ff0e01" stroke="none" /><path d="M 115.80600337817218 113.82643327865902 l 6.132183557178273 5.3641787096479865 a29.147274906861085,29.147274906861085 0 0,0 -0.33358521813005315,0.37478652888173203 l -6.038939489399881 -5.468939408270585" fill="#ff6d0a" stroke="none" /><path d="M 115.56566222782051 114.09645910891815 l 1.1646361163924164 1.0547090866556512 a22.57123790085385,22.57123790085385 0 0,0 -0.26328122856177383,0.2857397749296452 l -1.1463084798349206 -1.0746001163866312" fill="#ff1202" stroke="none" /><path d="M 115.32070863581623 114.36230785411682 l 11.286729647605366 10.580678069037594 a36.470650100714806,36.470650100714806 0 0,0 -0.43329467938468824,0.45430773904554583 l -11.102928416841712 -10.773392924665647" fill="#ffcc13" stroke="none" /><path d="M 115.07121518719521 114.62390073753431 l 0.42705895723533804 0.41438382520014694 a21.595057398527604,21.595057398527604 0 0,0 -0.2611555847057096,0.26454922851449547 l -0.41986274747409286 -0.421673547695307" fill="#ff0400" stroke="none" /><path d="M 114.81725581225074 114.88116024355365 l 2.174213527330334 2.1835905591340414 a24.081439954366388,24.081439954366388 0 0,0 -0.2962591028128575,0.28995188637799063 l -2.136304472141682 -2.220692548434604" fill="#ff2703" stroke="none" /><path d="M 114.55890576462653 115.13401014063108 l 23.01009895474009 23.919041482091366 a54.19013707909232,54.19013707909232 0 0,0 -0.6778003400060734,0.6409025276398607 l -22.59496278034321 -24.311578646477148" fill="#68ff28" stroke="none" /><path d="M 114.29624159901734 115.38237550388516 l 1.1149929314629592 1.1997027216663592 a22.637832670814095,22.637832670814095 0 0,0 -0.2877165589968585,0.2628222549498595 l -1.0941768229992366 -1.2187177432028018" fill="#ff1302" stroke="none" /><path d="M 114.0293411484842 115.62618273729858 l 0.7774044081744413 0.8658897958460283 a22.16366780156509,22.16366780156509 0 0,0 -0.2860776973929645,0.2524303062657629 l -0.7623843578748891 -0.87914324388408" fill="#ff0c01" stroke="none" /><path d="M 113.75828350139079 115.86535959552629 l 1.0336002755757496 1.1918957803411054 a22.57763908447566,22.57763908447566 0 0,0 -0.2958041890248877,0.2520907472218409 l -1.0129306099738147 -1.2095109177858931" fill="#ff1202" stroke="none" /><path d="M 113.48314897796784 116.09983520530334 l 40.449446933903516 48.299505615910014 a84.0,84.0 0 0,0 -1.1165194858212355,0.9188195245712865 l -39.612057319537584 -48.98862025933848" fill="#4dd2ff" stroke="none" /><line stroke="#e1ed5e" stroke-width="0.3" x1="143.8653032363475" x2="146.44561519142675" y1="172.8068346515853" y2="177.08958963109032" /><path d="M 144.38136562736335 173.6633856474863 a86.0,86.0 0 0,1 -40.68145358897372,12.25698825130547" fill="none" id="id126" stroke="none" /><text fill="#e1ed5e" style="font-size:6.75px; font-family:Arial;" text-anchor="middle"><textPath startOffset="21.466115282336833" xlink:href="#id126">June</textPath></text><line stroke="#e1ed5e" stroke-width="0.3" x1="102.19456741930631" x2="102.32365962044197" y1="184.97166512339345" y2="189.96999836594603" /><path d="M 102.22038585953345 185.97133177190398 a86.0,86.0 0 0,1 -42.740103519485714,-10.115201625700543" fill="none" id="id127" stroke="none" /><text fill="#e1ed5e" style="font-size:6.75px; font-family:Arial;" text-anchor="middle"><textPath startOffset="22.20632615414155" xlink:href="#id127">July</textPath></text><line stroke="#e1ed5e" stroke-width="0.3" x1="58.666819895761336" x2="56.23545636021788" y1="174.27360380694188" y2="178.64263932499728" /><path d="M 58.180547188652646 175.14741091055294 a86.0,86.0 0 0,1 -31.652253787137756,-30.449443065178592" fill="none" id="id128" stroke="none" /><text fill="#e1ed5e" style="font-size:6.75px; font-family:Arial;" text-anchor="middle"><textPath startOffset="22.20632615414155" xlink:href="#id128">August</textPath></text><line stroke="#e1ed5e" stroke-width="0.3" x1="26.63291911575756" x2="22.317208475507996" y1="142.92168965132927" y2="145.44649492493687" /><path d="M 25.769776987707644 143.4266507060508 a86.0,86.0 0 0,1 -11.730757126820373,-40.83630448921669" fill="none" id="id129" stroke="none" /><text fill="#e1ed5e" style="font-size:6.75px; font-family:Arial;" text-anchor="middle"><textPath startOffset="21.46611528233685" xlink:href="#id129">September</textPath></text><line stroke="#e1ed5e" stroke-width="0.3" x1="15.007084014347285" x2="10.007500721073583" y1="101.09737516637583" y2="101.16192664675087" /><path d="M 14.007167355692545 101.11028546245083 a86.0,86.0 0 0,1 10.666146001902534,-42.60595125391555" fill="none" id="id130" stroke="none" /><text fill="#e1ed5e" style="font-size:6.75px; font-family:Arial;" text-anchor="middle"><textPath startOffset="22.20632615414155" xlink:href="#id130">October</textPath></text><line stroke="#e1ed5e" stroke-width="0.3" x1="26.266209847984243" x2="21.928928074336255" y1="57.711370442889674" y2="55.22380399835377" /><path d="M 25.398753493254645 57.213857153982495 a86.0,86.0 0 0,1 29.58750427330803,-30.492523968695096" fill="none" id="id131" stroke="none" /><text fill="#e1ed5e" style="font-size:6.75px; font-family:Arial;" text-anchor="middle"><textPath startOffset="21.46611528233685" xlink:href="#id131">November</textPath></text><line stroke="#e1ed5e" stroke-width="0.3" x1="56.762969772571076" x2="54.21961505331055" y1="26.818313649435495" y2="22.513508569990535" /><path d="M 56.25429882871897 25.957352633546506 a86.0,86.0 0 0,1 42.265352541879196,-11.944610805530505" fill="none" id="id132" stroke="none" /><text fill="#e1ed5e" style="font-size:6.75px; font-family:Arial;" text-anchor="middle"><textPath startOffset="22.20632615414155" xlink:href="#id132">December</textPath></text></svg>