<?xml version="1.0" encoding="utf-8" ?>
<svg baseProfile="full" height="200mm" version="1.1" viewBox="0,0,200,200" width="200mm" xmlns="http://www.w3.org/2000/svg" xmlns:ev="http://www.w3.org/2001/xml-events" xmlns:xlink="http://www.w3.org/1999/xlink"><defs /><rect fill="#1a1a1a" height="200" width="200" x="0" y="0" /><rect fill="#1a1a1a" height="200" width="180" x="10" y="0" /><text alignment-baseline="middle" fill="#e1ed5e" style="dominant-baseline: central; font-size:9.0px; font-family:Arial;" text-anchor="middle" x="100.0" y="100.0">2026</text><line stroke="#e1ed5e" stroke-width="0.3" x1="100.0" x2="100.0" y1="15.0" y2="10.0" /><path d="M 100.0 14.0 a86.0,86.0 0 0,1 42.46469731375804,11.215312516191453" fill="none" id="id121" stroke="none" /><text fill="#e1ed5e" style="font-size:6.75px; font-family:Arial;" text-anchor="middle"><textPath startOffset="22.20632615414155" xlink:href="#id121">January</textPath></text><path d="M 101.08401301168833 79.027996857942 l 0.2601488213927627 -5.033004069899803 a26.039722946442595,26.039722946442595 0 0,0 0.4474342988942138,0.026990458799368115 l -0.3467451691265884 5.027780341720131" fill="#ff4106" stroke="none" /><path d="M 101.44485096284872 79.0497635885617 l 0.3461787566869354 -5.019567401546901 a26.03149049787969,26.03149049787969 0 0,0 0.44676212195032544,0.034677339120079115 l -0.432531067999602 5.012864800238358" fill="#ff4106" stroke="none" /><path d="M 101.80526077348638 79.07773832637324 l 0.24080539891973923 -2.790839773741357 a23.801209360766453,23.801209360766453 0 0,0 0.40787891399068177,0.0387330176087827 l -0.2888094400006652 2.786281211617396" fill="#ff2203" stroke="none" /><path d="M 102.16513564639614 79.11191278185805 l 0.524100889106117 -5.056249062721019 a26.083339092194127,26.083339092194127 0 0,0 0.4461906612172641,0.050134719655210484 l -0.6110582538331063 5.046478389595208" fill="#ff4206" stroke="none" /><path d="M 102.52436894288641 79.15227682838746 l 0.12506152731153514 -1.0328316342811499 a22.040375687136798,22.040375687136798 0 0,0 0.37624524104725254,0.048847430598654255 l -0.14282149686663378 1.030525880518359" fill="#ff0801" stroke="none" /><path d="M 102.88285421437855 79.19881850522331 l 0.38580712272727213 -2.783784189224956 a23.81039170724046,23.81039170724046 0 0,0 0.4054921267930231,0.05975899891711883 l -0.433668229948951 2.7767307061468682" fill="#ff2203" stroke="none" /><path d="M 103.2404852339499 79.25152402106235 l 0.18276397793488486 -1.1702179557148606 a22.184403957907964,22.184403957907964 0 0,0 0.3767870938572816,0.06217309892285072 l -0.20288027793104163 1.1668985938523853" fill="#ff0a01" stroke="none" /><path d="M 103.59715602781102 79.31037775812273 l 1.398494264038005 -8.043664997202203 a29.164332966860375,29.164332966860375 0 0,0 0.4938561472759552,0.090249054265629 l -1.536745532416861 8.018400461585836" fill="#ff6c09" stroke="none" /><path d="M 104.307194497241 79.44645832069477 l 1.1672003251810381 -5.569774141166382 a26.690759227265588,26.690759227265588 0 0,0 0.4488588485226287,0.098103158948476 l -1.2629018978571949 5.548857484122036" fill="#ff4a06" stroke="none" /><path d="M 104.66035177308747 79.52364482259891 l 1.8693902840609022 -8.21360731665422 a29.4236550965918,29.4236550965918 0 0,0 0.492883090760258,0.11664950316897295 l -2.010497061783684 8.180211901344379" fill="#ff6f0a" stroke="none" /><path d="M 105.01212808612495 79.60689891045804 l 0.47339931567406796 -1.9261439321526106 a22.983465996544684,22.983465996544684 0 0,0 0.3833763736095036,0.0977311738641022 l -0.5064845779685966 1.9177097621196406" fill="#ff1602" stroke="none" /><path d="M 105.36241919743992 79.69619591428918 l 0.7096585307742536 -2.686990189702574 a23.77912423433328,23.77912423433328 0 0,0 0.39484908632969645,0.10792717080455319 l -0.7558055063276609 2.6743764780717267" fill="#ff2103" stroke="none" /><path d="M 105.71112130821622 79.79150937346287 l 2.4262048868902646 -8.58499339599814 a29.921243285691848,29.921243285691848 0 0,0 0.49442686276249026,0.14433675931764794 l -2.573621967376182 8.541958307761789" fill="#ff760a" stroke="none" /><path d="M 106.0581310904928 79.89281104454417 l 0.442339670004928 -1.468143754967768 a22.533333123920215,22.533333123920215 0 0,0 0.37042077123615924,0.11509153673899589 l -0.4675458139518055 1.4603120833462515" fill="#ff0f01" stroke="none" /><path d="M 106.40334571778207 80.00007090966166 l 0.27356879044576876 -0.8544527581965574 a21.897178577037852,21.897178577037852 0 0,0 0.35798464523440154,0.11802190916025486 l -0.2882362579225878 0.8496171247770664" fill="#ff0601" stroke="none" /><path d="M 107.08798089147638 80.2323363322302 l 1.2681418653311662 -3.536719731712364 a24.7572024501335,24.7572024501335 0 0,0 0.3999086016910361,0.14728971297033006 l -1.328832792794779 3.5143667509357095" fill="#ff2f04" stroke="none" /><path d="M 107.76421540070413 80.48803036053334 l 0.998477856641267 -2.5092386827260484 a23.700599340348674,23.700599340348674 0 0,0 0.37776061426845353,0.15409803956425014 l -1.041522340498108 2.491679756978219" fill="#ff2003" stroke="none" /><path d="M 108.09893153111575 80.62456947434976 l 1.8032213177260767 -4.313925760421859 a25.675634992932306,25.675634992932306 0 0,0 0.40630621605708334,0.1739591174594997 l -1.8772112915734753 4.282247114999569" fill="#ff3c05" stroke="none" /><path d="M 108.43124777332544 80.76684994638697 l 2.5256400586003034 -5.761426485669085 a27.290698916287106,27.290698916287106 0 0,0 0.42861716676813094,0.1923080288383345 l -2.6244393438352147 5.717098126314219" fill="#ff5207" stroke="none" /><path d="M 108.76106565485865 80.91482961587045 l 1.7811644143670855 -3.880101767242448 a25.269395319616773,25.269395319616773 0 0,0 0.39374746361250323,0.18486971374314057 l -1.8476900892791865 3.8488670708593045" fill="#ff3605" stroke="none" /><path d="M 109.08828744355905 81.06846463323043 l 1.398588518399322 -2.9133572374407444 a24.23167143081514,24.23167143081514 0 0,0 0.37447017274580735,0.18375088746026305 l -1.4485299581555613 2.8888511898456493" fill="#ff2803" stroke="none" /><path d="M 109.41281617654863 81.2277094730956 l 1.3650963640390705 -2.7224568144449313 a24.04553101931836,24.04553101931836 0 0,0 0.3683998774202354,0.18870872594351398 l -1.4117567290480615 2.6985555631889167" fill="#ff2503" stroke="none" /><path d="M 109.73455568895987 81.39251694778311 l 2.2926094129167325 -4.382294596617506 a25.945762211402545,25.945762211402545 0 0,0 0.39394927631925053,0.21043406008232124 l -2.367703735764294 4.342181810033431" fill="#ff4006" stroke="none" /><path d="M 110.05341064243156 81.56283822128135 l 0.4668559475147557 -0.8561769669844792 a21.975188942987277,21.975188942987277 0 0,0 0.3305444202466785,0.1839476119944261 l -0.4815244568334693 0.8480139574298732" fill="#ff0701" stroke="none" /><line stroke="#e1ed5e" stroke-width="0.3" x1="143.23703022742887" x2="145.7803849466894" y1="26.81831364943548" y2="22.513508569990506" /><path d="M 143.74570117128098 25.957352633546492 a86.0,86.0 0 0,1 28.547481713284135,27.462654790039103" fill="none" id="id122" stroke="none" /><text fill="#e1ed5e" style="font-size:6.75px; font-family:Arial;" text-anchor="middle"><textPath startOffset="19.985693538727396" xlink:href="#id122">February</textPath></text><path d="M 110.99172775467656 82.1063720568725 l 0.9230151030807872 -1.5025926050058982 a22.76344589288519,22.76344589288519 0 0,0 0.33210875464715656,0.20796647169233373 l -0.9487430101002069 1.4864817919906204" fill="#ff1302" stroke="none" /><path d="M 111.2981086023043 82.29822771554956 l 4.76151662510419 -7.460300302745243 a29.850317574996073,29.850317574996073 0 0,0 0.43074431028737303,0.28016808134340354 l -4.889227961175843 7.377233297242311" fill="#ff750a" stroke="none" /><path d="M 111.60114157652 82.49532879139004 l 1.146485048339552 -1.7299025000599295 a23.07532904036438,23.07532904036438 0 0,0 0.3292028693103603,0.22227924688829878 l -1.176092612056454 1.7099113408729607" fill="#ff1702" stroke="none" /><path d="M 111.90073688211348 82.69761687909136 l 1.3581307094999573 -1.974575028152923 a23.39655285063609,23.39655285063609 0 0,0 0.3298567019123195,0.23108569944269408 l -1.3919185509959278 1.9509044859462934" fill="#ff1c02" stroke="none" /><path d="M 112.48926042617603 83.11751280151076 l 0.47663584300858497 -0.6442974398282557 a21.80143678341448,21.80143678341448 0 0,0 0.29977374880020946,0.22578337263474527 l -0.4876557455671774 0.6359974776876631" fill="#ff0500" stroke="none" /><path d="M 112.77801427241765 83.33499621200491 l 0.7380943893596147 -0.962617941437675 a22.213019632479973,22.213019632479973 0 0,0 0.30142797366005847,0.23526931461296868 l -0.7545549181791035 0.9497702376014822" fill="#ff0b01" stroke="none" /><path d="M 114.16331599549186 84.49514656593476 l 0.31373290949272564 -0.3434494281336295 a21.465172922883617,21.465172922883617 0 0,0 0.2706575506171384,0.25154669597316487 l -0.3195983439047108 0.3379981460858241" fill="#ff0000" stroke="none" /><path d="M 114.42810811169701 84.74124197986012 l 5.3426194354890315 -5.650202821375657 a28.776141353855817,28.776141353855817 0 0,0 0.35698414318367017,0.3434184629045247 l -5.43908682228512 5.557401271708831" fill="#ff6709" stroke="none" /><path d="M 114.68862486808459 84.99185889309783 l 1.6930653011919883 -1.7298939261972353 a23.42053777289147,23.42053777289147 0 0,0 0.28569063420208296,0.2844637878266346 l -1.7225917355613938 1.700494287720482" fill="#ff1c02" stroke="none" /><path d="M 114.94478906791727 85.2469230424477 l 12.70349790289386 -12.540537129013888 a38.85060028270771,38.85060028270771 0 0,0 0.4657183079877917,0.47996365417643955 l -12.91748047458476 12.320009279287335" fill="#ffe915" stroke="none" /><path d="M 115.19652480421416 85.50635884689758 l 10.225268245503836 -9.752319727958321 a35.13024595570913,35.13024595570913 0 0,0 0.4135878470222039,0.44118667862459643 l -10.391623414496502 9.57486363245567" fill="#ffba11" stroke="none" /><path d="M 115.4437574822437 85.77008943001954 l 2.904629501323539 -2.676331721103668 a24.949635935291347,24.949635935291347 0 0,0 0.28829465828633943,0.31834216226194356 l -2.950267800225914 2.6259367715721758" fill="#ff3204" stroke="none" /><path d="M 115.68641384162765 86.03803664274999 l 18.634661403224683 -16.586101980565093 a45.94693136485001,45.94693136485001 0 0,0 0.5207496908792603,0.5953069173612642 l -18.917402957681794 16.262879507000882" fill="#c2ff1e" stroke="none" /><path d="M 115.9244219780498 86.31012108654704 l 9.273430946023868 -7.972166709619031 a33.2291440238731,33.2291440238731 0 0,0 0.36914317255607526,0.4369490825560959 l -9.40928473206706 7.811358677433828" fill="#ffa20e" stroke="none" /><path d="M 116.15771136456269 86.58626213691792 l 42.18022955793173 -35.0169977374166 a75.82118108999529,75.82118108999529 0 0,0 0.825012105314838,1.0113672905865996 l -42.77674015532298 34.285746277221904" fill="#43ffdf" stroke="none" /><path d="M 116.38621287248628 86.86637796730983 l 9.847787087136236 -7.893044870546094 a33.620581121407255,33.620581121407255 0 0,0 0.3580526559934448,0.45469051229516894 l -9.982193823723644 7.722361964297886" fill="#ffa70f" stroke="none" /><path d="M 116.82858285166822 87.43820079747576 l 1.5151592236350708 -1.1309999240529953 a22.89073221297314,22.89073221297314 0 0,0 0.23298120480243117,0.317786101520972 l -1.5344030409511282 1.1047513788605297" fill="#ff1502" stroke="none" /><path d="M 117.04232023915458 87.72973835380427 l 9.84085187416058 -7.085292707972025 a33.12615925867755,33.12615925867755 0 0,0 0.3291910186501318,0.4656173504262012 l -9.961355512614595 6.9148488572140305" fill="#ffa00e" stroke="none" /><path d="M 117.2510076193507 88.02491185347247 l 20.06300585396015 -13.927085819379721 a45.42310224595571,45.42310224595571 0 0,0 0.4403348719382948,0.646137090100111 l -20.299765191567175 13.579670706009203" fill="#c7ff1d" stroke="none" /><path d="M 117.45458315368197 88.32363383020206 l 19.04349576205977 -12.739280435001366 a43.911656353070526,43.911656353070526 0 0,0 0.4148676365455117,0.6318718728913297 l -19.259960033963207 12.409590498132362" fill="#d9ff1c" stroke="none" /><path d="M 117.65298651832404 88.62581576622439 l 0.5596498562426172 -0.360593974549407 a21.665759698445108,21.665759698445108 0 0,0 0.19929651810029236,0.31523923047231683 l -0.5657739705888652 0.350907096362884" fill="#ff0300" stroke="none" /><line stroke="#e1ed5e" stroke-width="0.3" x1="172.23445277983987" x2="176.4835382374775" y1="55.19839476539836" y2="52.563006222186495" /><path d="M 173.08426987136738 54.67131705675599 a86.0,86.0 0 0,1 12.851231095245387,41.99856678651699" fill="none" id="id123" stroke="none" /><text fill="#e1ed5e" style="font-size:6.75px; font-family:Arial;" text-anchor="middle"><textPath startOffset="22.20632615414155" xlink:href="#id123">March</textPath></text><path d="M 117.84615892207809 88.93136811851018 l 4.352029846887421 -2.6992372152900286 a26.121137113240145,26.121137113240145 0 0,0 0.2337023330655816,0.3841451876688144 l -4.397847978239226 2.6239242544141326" fill="#ff4206" stroke="none" /><path d="M 118.03404312379186 89.2402003453031 l 10.38890042461343 -6.198415210284388 a33.09750400502591,33.09750400502591 0 0,0 0.2876966264427179,0.4917667928222613 l -10.494056725526475 6.018669005108231" fill="#ffa00e" stroke="none" /><path d="M 118.21658344932153 89.55222093294921 l 2.1352456564414104 -1.224630015526351 a23.461502120307838,23.461502120307838 0 0,0 0.19790599163875786,0.35205267618137126 l -2.156009289372601 1.187693829410186" fill="#ff1d02" stroke="none" /><path d="M 118.3937258080291 89.86733742301442 l 3.386687347205237 -1.8656448672295447 a24.866559447149363,24.866559447149363 0 0,0 0.2033041360656245,0.3766916875824816 l -3.4182995824893263 1.8070721963146044" fill="#ff3104" stroke="none" /><path d="M 118.89224826269711 90.83032412892265 l 17.55428422663266 -8.520272138537257 a40.51276331082142,40.51276331082142 0 0,0 0.2991034283891041,0.629988101071828 l -17.69834584886352 8.216841621824889" fill="#fffd17" stroke="none" /><path d="M 119.34039704204932 91.81776055985345 l 5.29154721118307 -2.2386668793099305 a26.745615831631852,26.745615831631852 0 0,0 0.1757292836018274,0.42554239896356805 l -5.329298181671094 2.1472499098930595" fill="#ff4b07" stroke="none" /><path d="M 119.47837535516314 92.15188598940014 l 5.683745263287115 -2.29006167198951 a27.12775184545312,27.12775184545312 0 0,0 0.1707839891036908,0.43462662396871066 l -5.722322802272506 2.191886043125015" fill="#ff5007" stroke="none" /><path d="M 119.61058180528143 92.48833698450437 l 5.928081449503543 -2.2707001056485216 a27.348088581749646,27.348088581749646 0 0,0 0.16460347190401192,0.44105546900528003 l -5.96628950990918 2.168321499613908" fill="#ff5307" stroke="none" /><path d="M 119.7369772167798 92.82701384747503 l 4.797508311571713 -1.7435527389812693 a26.104513899795823,26.104513899795823 0 0,0 0.1498485108370424,0.4236419189538023 l -4.826809903218565 1.6607131936008526" fill="#ff4206" stroke="none" /><path d="M 119.97218684219823 93.5106431181261 l 15.077969049294389 -4.8991291233058964 a36.85391487356683,36.85391487356683 0 0,0 0.190841006865416,0.6050181437712896 l -15.16006553992801 4.638860813108188" fill="#ffd013" stroke="none" /><path d="M 120.28053869075195 94.5502522615342 l 7.585144438412276 -2.0382655697416805 a28.854230877964504,28.854230877964504 0 0,0 0.12476523832287398,0.4807713582018339 l -7.619106008605453 1.907397785990996" fill="#ff6809" stroke="none" /><path d="M 120.37134235888165 94.90015583598534 l 14.319783468946147 -3.584872457961459 a35.76169059211559,35.76169059211559 0 0,0 0.14435325568726842,0.5984374388045856 l -14.379369524894235 3.337849787497467" fill="#ffc212" stroke="none" /><path d="M 120.45610955862082 95.25157060432595 l 9.519406566160441 -2.209717827262968 a30.772510130359667,30.772510130359667 0 0,0 0.11533187015695076,0.5170101596064656 l -9.55603282331943 2.0455294981065384" fill="#ff810b" stroke="none" /><path d="M 120.53481517161879 95.60439243477599 l 41.90108555781954 -8.969193398127437 a63.85029056070363,63.85029056070363 0 0,0 0.2208025265023964,1.0767115356468893 l -42.049267380236934 8.246606206317136" fill="#34ff5e" stroke="none" /><path d="M 120.6074358757038 95.95851677861258 l 3.623698006351181 -0.7106713702945446 a24.692728129417308,24.692728129417308 0 0,0 0.07821042553423078,0.41780322055422925 l -3.635394155795271 0.6481900722777527" fill="#ff2e04" stroke="none" /><path d="M 120.73433829027371 96.67025291283417 l 15.699075717354855 -2.521129486229101 a36.900222396733156,36.900222396733156 0 0,0 0.09531521884771077,0.6280082017867619 l -15.740146829641866 2.250522172050257" fill="#ffd013" stroke="none" /><path d="M 120.78858239683441 97.02765380044208 l 6.93136460121096 -0.9910447396979258 a28.001855819067064,28.001855819067064 0 0,0 0.06411625055173123,0.4777405394343607 l -6.947396850820528 0.8715858581989008" fill="#ff5c08" stroke="none" /><path d="M 120.83666639777658 97.38593545837742 l 1.5587934022182115 -0.19555846807091248 a22.571012407727345,22.571012407727345 0 0,0 0.045044912493307984,0.3859173017781879 l -1.5619286677151085 0.1686974279678719" fill="#ff1001" stroke="none" /><path d="M 120.87857604477298 97.74499172005257 l 12.934066352252195 -1.3969547853825042 a34.00928726244699,34.00928726244699 0 0,0 0.05785283307206548,0.5825701338859125 l -12.956196311006488 1.1741091207921568" fill="#ffac0f" stroke="none" /><path d="M 120.91429891909075 98.10471618934814 l 54.69856167310446 -4.956862231243486 a75.92270142924454,75.92270142924454 0 0,0 0.1067455690246109,1.3025663187117453 l -54.77578172594856 4.014581995323971" fill="#43ffe0" stroke="none" /><path d="M 120.96714384426684 98.82574320788733 l 15.79338666559921 -0.8845025197655859 a36.81813538558191,36.81813538558191 0 0,0 0.029991688000853833,0.6330771315516355 l -15.80627196183356 0.6125142815909506" fill="#ffcf13" stroke="none" /><path d="M 120.98425023603335 99.18683210126433 l 46.37008455801414 -1.7969030963749744 a67.40488770221455,67.40488770221455 0 0,0 0.03494881011831641,1.1597808636321751 l -46.3941450625881 0.9984520853178002" fill="#39ff86" stroke="none" /><line stroke="#e1ed5e" stroke-width="0.3" x1="184.98032266829074" x2="189.97916517819016" y1="98.17113171792111" y2="98.06355123074" /><path d="M 185.9800911702706 98.14961562048488 a86.0,86.0 0 0,1 -9.607161424134198,41.387399972396054" fill="none" id="id124" stroke="none" /><text fill="#e1ed5e" style="font-size:6.75px; font-family:Arial;" text-anchor="middle"><textPath startOffset="21.466115282336823" xlink:href="#id124">April</textPath></text><path d="M 120.99980553446 99.90962569577887 l 17.89796901589299 -0.07702530835956463 a38.89813475734255,38.89813475734255 0 0,0 -0.0028816158892988023,0.6695860490635783 l -17.896643102714187 -0.2310702189076984" fill="#ffe915" stroke="none" /><path d="M 120.9904718944345 100.63252640178507 l 34.23686737640803 1.0316929814109572 a55.25240835558348,55.25240835558348 0 0,0 -0.036829327229168006,0.9504012883481044 l -34.21403591632766 -1.6208715167730678" fill="#5dff2a" stroke="none" /><path d="M 120.9764740272857 100.99374915477107 l 7.540421387938138 0.35722340042154305 a28.54887827862416,28.54887827862416 0 0,0 -0.027479857527559298,0.4906713160787015 l -7.53315517952305 -0.4869664328356679" fill="#ff6309" stroke="none" /><path d="M 120.95626037817324 101.35467743843564 l 2.3562907145740075 0.15231791416150803 a23.361208732527093,23.361208732527093 0 0,0 -0.029394453736861524,0.4010639672372502 l -2.3533197021728083 -0.19285501789552845" fill="#ff1b02" stroke="none" /><path d="M 120.92983693683757 101.71520430193887 l 18.595675250946826 1.523919287290036 a39.65801350714622,39.65801350714622 0 0,0 -0.06161231911999261,0.6798868074173722 l -18.56668833554976 -1.8437874832559789" fill="#fff316" stroke="none" /><path d="M 120.81339534386255 102.79330883721812 l 6.175370683852792 0.8287796017573013 a27.230736610648655,27.230736610648655 0 0,0 -0.06634697524765787,0.4640305903537839 l -6.160189657588534 -0.9349556640914946" fill="#ff5107" stroke="none" /><path d="M 120.76222939487914 103.15116336523771 l 58.95038346679723 8.947126303936454 a80.62548767080258,80.62548767080258 0 0,0 -0.22006245271695113,1.3703291031344698 l -58.787639259718986 -9.960534636764129" fill="#49f1ff" stroke="none" /><path d="M 120.70491114924044 103.5080841355445 l 8.670034394815659 1.468985299953521 a29.79360075388723,29.79360075388723 0 0,0 -0.09002428396952257,0.5049039931642436 l -8.643463668506946 -1.618008043850983" fill="#ff740a" stroke="none" /><path d="M 120.64145759157962 103.86396538481128 l 7.741956842492171 1.449251009400413 a28.876434741636565,28.876434741636565 0 0,0 -0.09566359525711986,0.48778661122923167 l -7.715863314259387 -1.5823013476975898" fill="#ff6809" stroke="none" /><path d="M 120.5718875245553 104.21870165774334 l 45.47824945651461 9.32627918291181 a67.42467724202922,67.42467724202922 0 0,0 -0.24294061986725268,1.1349376969229743 l -45.31097479792292 -10.107730699250952" fill="#39ff86" stroke="none" /><path d="M 120.49622156327973 104.57218783832717 l 0.5149325587030339 0.11486841002337231 a21.527589131459084,21.527589131459084 0 0,0 -0.0837929977373832,0.360978041186149 l -0.5128789950350978 -0.1237151085580862" fill="#ff0100" stroke="none" /><path d="M 120.41448212921028 104.9243191809786 l 8.292095235857799 2.0001939486875155 a29.529924925396575,29.529924925396575 0 0,0 -0.12344729991267087,0.49311059885816705 l -8.256436621650067 -2.1426323869430783" fill="#ff710a" stroke="none" /><path d="M 120.32669344350535 105.2749913415812 l 2.2878017510147686 0.5937086846613097 a23.363583477304854,23.363583477304854 0 0,0 -0.10437060521692561,0.388401848830337 l -2.2772430694560657 -0.6330014666671949" fill="#ff1b02" stroke="none" /><path d="M 120.23288151984713 105.62410040840565 l 28.254508810171924 7.853858798249407 a50.32576283964191,50.32576283964191 0 0,0 -0.2391848421771517,0.832633813722042 l -28.11513133110867 -8.33905008747603" fill="#91ff24" stroke="none" /><path d="M 120.13307415673323 105.97154293290107 l 1.1686732545058458 0.3466327327603335 a22.218996073504005,22.218996073504005 0 0,0 -0.1119130917318135,0.36573845902771834 l -1.1625333902678996 -0.36669816434010893" fill="#ff0b01" stroke="none" /><path d="M 120.02730092923936 106.31721596034902 l 1.8815156954668641 0.5934869118432871 a22.97289838228365,22.97289838228365 0 0,0 -0.12220241742463846,0.3761003683108308 l -1.8710210270259788 -0.6257861801319131" fill="#ff1602" stroke="none" /><path d="M 119.9155931802556 106.66101706037122 l 42.53310082401126 14.225722912441626 a65.84903408198524,65.84903408198524 0 0,0 -0.3687833419796743,1.0718570154488356 l -42.28192665108835 -14.955752630979761" fill="#37ff74" stroke="none" /><path d="M 119.79798401119884 107.00284435728193 l 3.474644142213607 1.229033830469784 a24.68560389508403,24.68560389508403 0 0,0 -0.14514634207036922,0.39938039550422993 l -3.452973539138011 -1.2886620229801453" fill="#ff2e04" stroke="none" /><path d="M 119.54520255179757 107.68017299344265 l 1.5634074600298562 0.6143318146970937 a22.67977571854877,22.67977571854877 0 0,0 -0.14590373375260035,0.36212110169583855 l -1.5526011120198635 -0.6411522842357459" fill="#ff1201" stroke="none" /><path d="M 119.41010516605496 108.01547362559984 l 58.230315498164885 24.046420876799505 a84.0,84.0 0 0,0 -0.5633960752307643,1.331701897335346 l -57.80776844174181 -25.045197299801014" fill="#4dd2ff" stroke="none" /><path d="M 119.26925614724726 108.34839909993367 l 20.642684711829425 8.943436588914212 a43.49678844039579,43.49678844039579 0 0,0 -0.3035639110237007,0.684456480826401 l -20.48567971607445 -9.2974414062333" fill="#deff1b" stroke="none" /><path d="M 119.12269723197855 108.67885076344098 l 8.748097875344346 3.9703309111187166 a30.60691126119051,30.60691126119051 0 0,0 -0.22186422828971458,0.4778758097677117 l -8.678459030214801 -4.120326788165259" fill="#ff7f0b" stroke="none" /><path d="M 118.97047184881838 109.00673069616215 l 14.381899957844754 6.828185447981984 a36.920526464583006,36.920526464583006 0 0,0 -0.2775135650716516,0.5717601408504152 l -14.262233136158388 -7.074734544797675" fill="#ffd113" stroke="none" /><path d="M 118.81262510543309 109.33194174019688 l 3.174455420099632 1.5746783275166953 a24.54355457829433,24.54355457829433 0 0,0 -0.19099715892181743,0.37685551445790766 l -3.1468795913915457 -1.6290880536772974" fill="#ff2c04" stroke="none" /><line stroke="#e1ed5e" stroke-width="0.3" x1="174.80103733775053" x2="179.2010983576182" y1="140.37084112569926" y2="142.7455964860345" /><path d="M 175.68104954172406 140.8457921977663 a86.0,86.0 0 0,1 -30.038265399797805,32.042727171017184" fill="none" id="id125" stroke="none" /><text fill="#e1ed5e" style="font-size:6.75px; font-family:Arial;" text-anchor="middle"><textPath startOffset="22.206326154141568" xlink:href="#id125">May</textPath></text><line stroke="#e1ed5e" stroke-width="0.3" x1="143.8653032363475" x2="146.44561519142675" y1="172.8068346515853" y2="177.08958963109032" /><path d="M 144.38136562736335 173.6633856474863 a86.0,86.0 0 0,1 -40.68145358897372,12.25698825130547" fill="none" id="id126" stroke="none" /><text fill="#e1ed5e" style="font-size:6.75px; font-family:Arial;" text-anchor="middle"><textPath startOffset="21.466115282336833" xlink:href="#id126">June</textPath></text><line stroke="#e1ed5e" stroke-width="0.3" x1="102.19456741930631" x2="102.32365962044197" y1="184.97166512339345" y2="189.96999836594603" /><path d="M 102.22038585953345 185.97133177190398 a86.0,86.0 0 0,1 -42.740103519485714,-10.115201625700543" fill="none" id="id127" stroke="none" /><text fill="#e1ed5e" style="font-size:6.75px; font-family:Arial;" text-anchor="middle"><textPath startOffset="22.20632615414155" xlink:href="#id127">July</textPath></text><line stroke="#e1ed5e" stroke-width="0.3" x1="58.666819895761336" x2="56.23545636021788" y1="174.27360380694188" y2="178.64263932499728" /><path d="M 58.180547188652646 175.14741091055294 a86.0,86.0 0 0,1 -31.652253787137756,-30.449443065178592" fill="none" id="id128" stroke="none" /><text fill="#e1ed5e" style="font-size:6.75px; font-family:Arial;" text-anchor="middle"><textPath startOffset="22.20632615414155" xlink:href="#id128">August</textPath></text><line stroke="#e1ed5e" stroke-width="0.3" x1="26.63291911575756" x2="22.317208475507996" y1="142.92168965132927" y2="145.44649492493687" /><path d="M 25.769776987707644 143.4266507060508 a86.0,86.0 0 0,1 -11.730757126820373,-40.83630448921669" fill="none" id="id129" stroke="none" /><text fill="#e1ed5e" style="font-size:6.75px; font-family:Arial;" text-anchor="middle"><textPath startOffset="21.46611528233685" xlink:href="#id129">September</textPath></text><line stroke="#e1ed5e" stroke-width="0.3" x1="15.007084014347285" x2="10.007500721073583" y1="101.09737516637583" y2="101.16192664675087" /><path d="M 14.007167355692545 101.11028546245083 a86.0,86.0 0 0,1 10.666146001902534,-42.60595125391555" fill="none" id="id130" stroke="none" /><text fill="#e1ed5e" style="font-size:6.75px; font-family:Arial;" text-anchor="middle"><textPath startOffset="22.20632615414155" xlink:href="#id130">October</textPath></text><line stroke="#e1ed5e" stroke-width="0.3" x1="26.266209847984243" x2="21.928928074336255" y1="57.711370442889674" y2="55.22380399835377" /><path d="M 25.398753493254645 57.213857153982495 a86.0,86.0 0 0,1 29.58750427330803,-30.492523968695096" fill="none" id="id131" stroke="none" /><text fill="#e1ed5e" style="font-size:6.75px; font-family:Arial;" text-anchor="middle"><textPath startOffset="21.46611528233685" xlink:href="#id131">November</textPath></text><line stroke="#e1ed5e" stroke-width="0.3" x1="56.762969772571076" x2="54.21961505331055" y1="26.818313649435495" y2="22.513508569990535" /><path d="M 56.25429882871897 25.957352633546506 a86.0,86.0 0 0,1 42.265352541879196,-11.944610805530505" fill="none" id="id132" stroke="none" /><text fill="#e1ed5e" style="font-size:6.75px; font-family:Arial;" text-anchor="middle"><textPath startOffset="22.20632615414155" xlink:href="#id132">December</textPath></text></svg>