<?xml version="1.0" encoding="utf-8" ?>
<svg baseProfile="full" height="200mm" version="1.1" viewBox="0,0,200,200" width="200mm" xmlns="http://www.w3.org/2000/svg" xmlns:ev="http://www.w3.org/2001/xml-events" xmlns:xlink="http://www.w3.org/1999/xlink"><defs /><rect fill="#1a1a1a" height="200" width="200" x="0" y="0" /><rect fill="#1a1a1a" height="200" width="180" x="10" y="0" /><text alignment-baseline="middle" fill="#e1ed5e" style="dominant-baseline: central; font-size:9.0px; font-family:Arial;" text-anchor="middle" x="100.0" y="100.0">2026</text><line stroke="#e1ed5e" stroke-width="0.3" x1="100.0" x2="100.0" y1="15.0" y2="10.0" /><path d="M 100.0 14.0 a86.0,86.0 0 0,1 42.46469731375804,11.215312516191453" fill="none" id="id121" stroke="none" /><text fill="#e1ed5e" style="font-size:6.75px; font-family:Arial;" text-anchor="middle"><textPath startOffset="22.20632615414155" xlink:href="#id121">January</textPath></text><path d="M 101.08401301168833 79.027996857942 l 0.2989606466310713 -5.783882253159877 a26.791603524642536,26.791603524642536 0 0,0 0.4603536821015926,0.02776979127574237 l -0.3984763775722758 5.777879192503831" fill="#ff4b06" stroke="none" /><path d="M 101.44485096284872 79.0497635885617 l 0.3978254615761473 -5.768440956759438 a26.782142870035123,26.782142870035123 0 0,0 0.45964509715524204,0.035677305943824615 l -0.4970607480937305 5.760738388627149" fill="#ff4a06" stroke="none" /><path d="M 101.80526077348638 79.07773832637324 l 0.2767313624097053 -3.2072075473359813 a24.219124181921227,24.219124181921227 0 0,0 0.41504067795021404,0.039413113392211326 l -0.33189716745016357 3.2019688894285916" fill="#ff2603" stroke="none" /><path d="M 102.16513564639614 79.11191278185805 l 0.6022919491552349 -5.8105951863477365 a26.84172680049527,26.84172680049527 0 0,0 0.45916390485872716,0.05159241473831486 l -0.7022225575236873 5.799366818138821" fill="#ff4b07" stroke="none" /><path d="M 102.52436894288641 79.15227682838746 l 0.14371956356964713 -1.1869206694561212 a22.195590226011745,22.195590226011745 0 0,0 0.3788948661000199,0.04919142797525165 l -0.16412915817751314 1.1842709183167328" fill="#ff0a01" stroke="none" /><path d="M 102.88285421437855 79.19881850522331 l 0.44336601745076015 -3.199099334129053 a24.2296764505218,24.2296764505218 0 0,0 0.41263256632780476,0.060811314092265444 l -0.4983675642072207 3.1909935358758186" fill="#ff2703" stroke="none" /><path d="M 103.2404852339499 79.25152402106235 l 0.2100306921698013 -1.3448037737277154 a22.361106197725082,22.361106197725082 0 0,0 0.3797882618645487,0.06266831735904958 l -0.23314816017322523 1.340989193429041" fill="#ff0c01" stroke="none" /><path d="M 103.59715602781102 79.31037775812273 l 1.6071368197952458 -9.243706260028379 a30.382376787319373,30.382376787319373 0 0,0 0.5144819722886067,0.09401829194973546 l -1.7660139131867534 9.214672486727904" fill="#ff7b0b" stroke="none" /><path d="M 104.307194497241 79.44645832069477 l 1.3413359403127691 -6.400733510601428 a27.53976846520661,27.53976846520661 0 0,0 0.463136648029283,0.10122373290852163 l -1.45131531249558 6.376696279597035" fill="#ff5507" stroke="none" /><path d="M 104.66035177308747 79.52364482259891 l 2.1482862199284103 -9.439002419516465 a30.680387407452862,30.680387407452862 0 0,0 0.513934931655009,0.12163179375106037 l -2.310444838545943 9.400624713624534" fill="#ff7f0b" stroke="none" /><path d="M 105.01212808612495 79.60689891045804 l 0.5440261646042699 -2.213506993335463 a23.27938098555705,23.27938098555705 0 0,0 0.38831239219787983,0.09898947490731776 l -0.5820474454871747 2.203814522259277" fill="#ff1902" stroke="none" /><path d="M 105.36241919743992 79.69619591428918 l 0.8155330941408183 -3.0878645550041854 a24.193744156580188,24.193744156580188 0 0,0 0.40173379309433443,0.10980902123463347 l -0.8685647764588637 3.073368992943258" fill="#ff2603" stroke="none" /><path d="M 105.71112130821622 79.79150937346287 l 2.7881724697460326 -9.865795905783344 a31.252211204204734,31.252211204204734 0 0,0 0.5164201431253598,0.15075720095102654 l -2.9575828305948195 9.816340375913613" fill="#ff870c" stroke="none" /><path d="M 106.0581310904928 79.89281104454417 l 0.5083327038241457 -1.6871773778666186 a22.762092404546948,22.762092404546948 0 0,0 0.37418129741713646,0.11625995052872898 l -0.5372993739520006 1.6781772924553688" fill="#ff1202" stroke="none" /><path d="M 106.40334571778207 80.00007090966166 l 0.31438275234877616 -0.9819292962334031 a22.031029416542427,22.031029416542427 0 0,0 0.3601728972562679,0.11874334144731664 l -0.3312384718474615 0.9763722305268502" fill="#ff0701" stroke="none" /><path d="M 107.08798089147638 80.2323363322302 l 1.4573370352001356 -4.064365974386892 a25.317742698206995,25.317742698206995 0 0,0 0.4089631330844815,0.1506245732968698 l -1.5270824940571934 4.038678133283697" fill="#ff3605" stroke="none" /><path d="M 107.76421540070413 80.48803036053334 l 1.1474416223381876 -2.8835941486235224 a24.103504066478713,24.103504066478713 0 0,0 0.38418245764249154,0.15671767071940457 l -1.1969079495690664 2.8634155917205386" fill="#ff2503" stroke="none" /><path d="M 108.09893153111575 80.62456947434976 l 2.072245448894115 -4.957524035471314 a26.373196977846444,26.373196977846444 0 0,0 0.41734484355874973,0.17868528167325193 l -2.15727405024318 4.921119225835271" fill="#ff4506" stroke="none" /><path d="M 108.43124777332544 80.76684994638697 l 2.902442459796935 -6.620978632351891 a28.22921366972179,28.22921366972179 0 0,0 0.44335711666172617,0.1989214146963642 l -3.015981694925441 6.570036887138995" fill="#ff5e08" stroke="none" /><path d="M 108.76106565485865 80.91482961587045 l 2.0468978572518397 -4.458977469584016 a25.906350060103748,25.906350060103748 0 0,0 0.40367248596980554,0.1895296448199143 l -2.123348554521243 4.423082842124098" fill="#ff3e05" stroke="none" /><path d="M 109.08828744355905 81.06846463323043 l 1.6072451360453694 -3.348003496266569 a24.71380725648958,24.71380725648958 0 0,0 0.3819209788712838,0.18740696566753862 l -1.6646373819270852 3.3198413704641982" fill="#ff2d04" stroke="none" /><path d="M 109.41281617654863 81.2277094730956 l 1.5687562585213333 -3.128622475835926 a24.49989639774602,24.49989639774602 0 0,0 0.37536117719699086,0.1922745740675184 l -1.6223779233070796 3.101155376455907" fill="#ff2a04" stroke="none" /><path d="M 109.73455568895987 81.39251694778311 l 2.634645772710523 -5.036092876833103 a26.683624707152166,26.683624707152166 0 0,0 0.40515266259309574,0.21641852103197215 l -2.7209434818319296 4.989995629299377" fill="#ff4906" stroke="none" /><path d="M 110.05341064243156 81.56283822128135 l 0.5365065857509814 -0.9839107412055736 a22.120678215730937,22.120678215730937 0 0,0 0.33273282770182855,0.18516545837387863 l -0.553363502524845 0.9745298852715151" fill="#ff0801" stroke="none" /><line stroke="#e1ed5e" stroke-width="0.3" x1="143.23703022742887" x2="145.7803849466894" y1="26.81831364943548" y2="22.513508569990506" /><path d="M 143.74570117128098 25.957352633546492 a86.0,86.0 0 0,1 28.547481713284135,27.462654790039103" fill="none" id="id122" stroke="none" /><text fill="#e1ed5e" style="font-size:6.75px; font-family:Arial;" text-anchor="middle"><textPath startOffset="19.985693538727396" xlink:href="#id122">February</textPath></text><path d="M 110.99172775467656 82.1063720568725 l 1.0607205160105844 -1.7267656813152321 a23.026535894390676,23.026535894390676 0 0,0 0.33594712310732955,0.21037005766996147 l -1.0902867914901773 1.7082512823223264" fill="#ff1602" stroke="none" /><path d="M 111.2981086023043 82.29822771554956 l 5.471891364199533 -8.573308887697856 a31.170704026048565,31.170704026048565 0 0,0 0.4497976737814957,0.29256091896376685 l -5.618656063765308 8.477849044574562" fill="#ff860c" stroke="none" /><path d="M 111.60114157652 82.49532879139004 l 1.3175301335959948 -1.9879881340911996 a23.384949155479188,23.384949155479188 0 0,0 0.33362004707253656,0.22526174503117688 l -1.3515548750750734 1.9650144767613527" fill="#ff1b02" stroke="none" /><path d="M 111.90073688211348 82.69761687909136 l 1.5607513920219462 -2.269163565984107 a23.7540966208338,23.7540966208338 0 0,0 0.33489753889286245,0.23461712788623373 l -1.5995800704984595 2.2419615953339376" fill="#ff2003" stroke="none" /><path d="M 112.48926042617603 83.11751280151076 l 0.5477455522208905 -0.740420726115802 a21.92100382281488,21.92100382281488 0 0,0 0.30141781749118984,0.22702165108767322 l -0.5604095234704632 0.7308824855222814" fill="#ff0600" stroke="none" /><path d="M 112.77801427241765 83.33499621200491 l 0.8482113227973098 -1.106231735704817 a22.393991069269116,22.393991069269116 0 0,0 0.3038837340377218,0.23718607454036053 l -0.867127611994462 1.0914672719412324" fill="#ff0c01" stroke="none" /><path d="M 114.16331599549186 84.49514656593476 l 0.36053899067944023 -0.3946889421608505 a21.534572469235183,21.534572469235183 0 0,0 0.27153261979533405,0.2523599774058135 l -0.3672794942696211 0.3884243786803965" fill="#ff0000" stroke="none" /><path d="M 114.42810811169701 84.74124197986012 l 6.139689400038024 -6.493161414423242 a29.93627053544677,29.93627053544677 0 0,0 0.37137619515408227,0.3572636054972534 l -6.250548838804525 6.386514722163686" fill="#ff750a" stroke="none" /><path d="M 114.68862486808459 84.99185889309783 l 1.9456551620074631 -1.9879782810865958 a23.781659874161164,23.781659874161164 0 0,0 0.29009570820749464,0.2888499450443392 l -1.9795866703822804 1.954192485392138" fill="#ff2003" stroke="none" /><path d="M 114.94478906791727 85.2469230424477 l 14.598743623718995 -14.411470592560027 a41.513746611267734,41.513746611267734 0 0,0 0.497642550934764,0.5128643927534743 l -14.844650438356869 14.158042004256439" fill="#f6ff19" stroke="none" /><path d="M 115.19652480421416 85.50635884689758 l 11.750784763451675 -11.207276651934444 a37.23834943921219,37.23834943921219 0 0,0 0.4384065170121972,0.46766150533819967 l -11.941958602434335 11.00334572971819" fill="#ffd413" stroke="none" /><path d="M 115.4437574822437 85.77008943001954 l 3.3379736617308744 -3.0756159403559753 a25.53888549965526,25.53888549965526 0 0,0 0.295103475146203,0.325860627898798 l -3.3904207774931128 3.0177025251876284" fill="#ff3905" stroke="none" /><path d="M 115.68641384162765 86.03803664274999 l 21.414782481171386 -19.060596725565564 a49.66878539894088,49.66878539894088 0 0,0 0.5629321452930334,0.6435287547307608 l -21.739706490042266 18.689152414631852" fill="#99ff23" stroke="none" /><path d="M 115.9244219780498 86.31012108654704 l 10.656942042901797 -9.161541081749103 a35.053620483645645,35.053620483645645 0 0,0 0.3894113151278626,0.4609401704598368 l -10.813063971516776 8.97674196166016" fill="#ffb811" stroke="none" /><path d="M 116.15771136456269 86.58626213691792 l 48.47313409368808 -40.241213589246215 a84.0,84.0 0 0,0 0.9140060316943646,1.1204633215675965 l -49.158638617458855 39.400866098070516" fill="#4dd2ff" stroke="none" /><path d="M 116.38621287248628 86.86637796730983 l 11.316986868106824 -9.070614987810847 a35.50345641666155,35.50345641666155 0 0,0 0.37810491201887614,0.480154841108985 l -11.471445860719664 8.874467752748822" fill="#ffbe11" stroke="none" /><path d="M 116.82858285166822 87.43820079747576 l 1.7412071245292797 -1.2997347703685702 a23.17281216947452,23.17281216947452 0 0,0 0.2358522063721871,0.32170214443562256 l -1.7633219434150933 1.269570182261454" fill="#ff1802" stroke="none" /><path d="M 117.04232023915458 87.72973835380427 l 11.309016984773796 -8.142353589016338 a34.93527133322023,34.93527133322023 0 0,0 0.34716905957001143,0.4910460143469046 l -11.447498664147691 7.94648107433764" fill="#ffb711" stroke="none" /><path d="M 117.2510076193507 88.02491185347247 l 23.056222862556314 -16.004879668326712 a49.066805765627876,49.066805765627876 0 0,0 0.47565720007934137,0.6979682481007322 l -23.32830452830439 15.605633396955572" fill="#9fff22" stroke="none" /><path d="M 117.45458315368197 88.32363383020206 l 4.195171423063811 -2.8063894307571773 a26.047304716970913,26.047304716970913 0 0,0 0.2460891855097344,0.37481071273989214 l -4.24285724393147 2.733760654039611" fill="#ff4006" stroke="none" /><line stroke="#e1ed5e" stroke-width="0.3" x1="172.23445277983987" x2="176.4835382374775" y1="55.19839476539836" y2="52.563006222186495" /><path d="M 173.08426987136738 54.67131705675599 a86.0,86.0 0 0,1 12.851231095245387,41.99856678651699" fill="none" id="id123" stroke="none" /><text fill="#e1ed5e" style="font-size:6.75px; font-family:Arial;" text-anchor="middle"><textPath startOffset="22.20632615414155" xlink:href="#id123">March</textPath></text><line stroke="#e1ed5e" stroke-width="0.3" x1="184.98032266829074" x2="189.97916517819016" y1="98.17113171792111" y2="98.06355123074" /><path d="M 185.9800911702706 98.14961562048488 a86.0,86.0 0 0,1 -9.607161424134198,41.387399972396054" fill="none" id="id124" stroke="none" /><text fill="#e1ed5e" style="font-size:6.75px; font-family:Arial;" text-anchor="middle"><textPath startOffset="21.466115282336823" xlink:href="#id124">April</textPath></text><line stroke="#e1ed5e" stroke-width="0.3" x1="174.80103733775053" x2="179.2010983576182" y1="140.37084112569926" y2="142.7455964860345" /><path d="M 175.68104954172406 140.8457921977663 a86.0,86.0 0 0,1 -30.038265399797805,32.042727171017184" fill="none" id="id125" stroke="none" /><text fill="#e1ed5e" style="font-size:6.75px; font-family:Arial;" text-anchor="middle"><textPath startOffset="22.206326154141568" xlink:href="#id125">May</textPath></text><line stroke="#e1ed5e" stroke-width="0.3" x1="143.8653032363475" x2="146.44561519142675" y1="172.8068346515853" y2="177.08958963109032" /><path d="M 144.38136562736335 173.6633856474863 a86.0,86.0 0 0,1 -40.68145358897372,12.25698825130547" fill="none" id="id126" stroke="none" /><text fill="#e1ed5e" style="font-size:6.75px; font-family:Arial;" text-anchor="middle"><textPath startOffset="21.466115282336833" xlink:href="#id126">June</textPath></text><line stroke="#e1ed5e" stroke-width="0.3" x1="102.19456741930631" x2="102.32365962044197" y1="184.97166512339345" y2="189.96999836594603" /><path d="M 102.22038585953345 185.97133177190398 a86.0,86.0 0 0,1 -42.740103519485714,-10.115201625700543" fill="none" id="id127" stroke="none" /><text fill="#e1ed5e" style="font-size:6.75px; font-family:Arial;" text-anchor="middle"><textPath startOffset="22.20632615414155" xlink:href="#id127">July</textPath></text><line stroke="#e1ed5e" stroke-width="0.3" x1="58.666819895761336" x2="56.23545636021788" y1="174.27360380694188" y2="178.64263932499728" /><path d="M 58.180547188652646 175.14741091055294 a86.0,86.0 0 0,1 -31.652253787137756,-30.449443065178592" fill="none" id="id128" stroke="none" /><text fill="#e1ed5e" style="font-size:6.75px; font-family:Arial;" text-anchor="middle"><textPath startOffset="22.20632615414155" xlink:href="#id128">August</textPath></text><line stroke="#e1ed5e" stroke-width="0.3" x1="26.63291911575756" x2="22.317208475507996" y1="142.92168965132927" y2="145.44649492493687" /><path d="M 25.769776987707644 143.4266507060508 a86.0,86.0 0 0,1 -11.730757126820373,-40.83630448921669" fill="none" id="id129" stroke="none" /><text fill="#e1ed5e" style="font-size:6.75px; font-family:Arial;" text-anchor="middle"><textPath startOffset="21.46611528233685" xlink:href="#id129">September</textPath></text><line stroke="#e1ed5e" stroke-width="0.3" x1="15.007084014347285" x2="10.007500721073583" y1="101.09737516637583" y2="101.16192664675087" /><path d="M 14.007167355692545 101.11028546245083 a86.0,86.0 0 0,1 10.666146001902534,-42.60595125391555" fill="none" id="id130" stroke="none" /><text fill="#e1ed5e" style="font-size:6.75px; font-family:Arial;" text-anchor="middle"><textPath startOffset="22.20632615414155" xlink:href="#id130">October</textPath></text><line stroke="#e1ed5e" stroke-width="0.3" x1="26.266209847984243" x2="21.928928074336255" y1="57.711370442889674" y2="55.22380399835377" /><path d="M 25.398753493254645 57.213857153982495 a86.0,86.0 0 0,1 29.58750427330803,-30.492523968695096" fill="none" id="id131" stroke="none" /><text fill="#e1ed5e" style="font-size:6.75px; font-family:Arial;" text-anchor="middle"><textPath startOffset="21.46611528233685" xlink:href="#id131">November</textPath></text><line stroke="#e1ed5e" stroke-width="0.3" x1="56.762969772571076" x2="54.21961505331055" y1="26.818313649435495" y2="22.513508569990535" /><path d="M 56.25429882871897 25.957352633546506 a86.0,86.0 0 0,1 42.265352541879196,-11.944610805530505" fill="none" id="id132" stroke="none" /><text fill="#e1ed5e" style="font-size:6.75px; font-family:Arial;" text-anchor="middle"><textPath startOffset="22.20632615414155" xlink:href="#id132">December</textPath></text></svg>