<?xml version="1.0" encoding="utf-8" ?>
<svg baseProfile="full" height="200mm" version="1.1" viewBox="0,0,200,200" width="200mm" xmlns="http://www.w3.org/2000/svg" xmlns:ev="http://www.w3.org/2001/xml-events" xmlns:xlink="http://www.w3.org/1999/xlink"><defs /><rect fill="#1a1a1a" height="200" width="200" x="0" y="0" /><rect fill="#1a1a1a" height="200" width="180" x="10" y="0" /><text alignment-baseline="middle" fill="#e1ed5e" style="dominant-baseline: central; font-size:9.0px; font-family:Arial;" text-anchor="middle" x="100.0" y="100.0">2026</text><line stroke="#e1ed5e" stroke-width="0.3" x1="100.0" x2="100.0" y1="15.0" y2="10.0" /><path d="M 100.0 14.0 a86.0,86.0 0 0,1 42.46469731375804,11.215312516191453" fill="none" id="id121" stroke="none" /><text fill="#e1ed5e" style="font-size:6.75px; font-family:Arial;" text-anchor="middle"><textPath startOffset="22.20632615414155" xlink:href="#id121">January</textPath></text><path d="M 101.08401301168833 79.027996857942 l 0.22875224362338836 -4.4255859664919255 a25.43149396205986,25.43149396205986 0 0,0 0.43698324648654574,0.02636002277755144 l -0.304897538949546 4.42099267433407" fill="#ff3905" stroke="none" /><path d="M 101.44485096284872 79.0497635885617 l 0.3043994851213828 -4.413770929175616 a25.42425506292053,25.42425506292053 0 0,0 0.43634052156336794,0.03386842235422882 l -0.38033019604709195 4.407877244632922" fill="#ff3905" stroke="none" /><path d="M 101.80526077348638 79.07773832637324 l 0.2117433205524715 -2.454021726559647 a23.463139839356543,23.463139839356543 0 0,0 0.4020854508453459,0.03818285847496375 l -0.2539538984880616 2.450013323569505" fill="#ff1d03" stroke="none" /><path d="M 102.16513564639614 79.11191278185805 l 0.4608487312230897 -4.446025591135983 a25.46984620653843,25.46984620653843 0 0,0 0.4356960387559581,0.04895552654177897 l -0.5373114734887731 4.437434111123603" fill="#ff3a05" stroke="none" /><path d="M 102.52436894288641 79.15227682838746 l 0.10996822822537405 -0.9081822948962143 a21.914815878732973,21.914815878732973 0 0,0 0.3741018438089598,0.048569156121211224 l -0.12558480054217994 0.9061548156108664" fill="#ff0701" stroke="none" /><path d="M 102.88285421437855 79.19881850522331 l 0.33924522301219495 -2.447817659289382 a23.471213996088874,23.471213996088874 0 0,0 0.39971591390468897,0.05890773528724521 l -0.38133011734553973 2.4416154398411676" fill="#ff1e03" stroke="none" /><path d="M 103.2404852339499 79.25152402106235 l 0.16070674386420006 -1.028987874959466 a22.041461811271557,22.041461811271557 0 0,0 0.3743593181945663,0.06177249513651811 l -0.17839526819764154 1.0260691168833231" fill="#ff0901" stroke="none" /><path d="M 103.59715602781102 79.31037775812273 l 1.2297142031258603 -7.072899293619897 a28.17900420943311,28.17900420943311 0 0,0 0.4771710180636337,0.08719995355073921 l -1.351280342292395 7.050683858718419" fill="#ff5f08" stroke="none" /><path d="M 104.307194497241 79.44645832069477 l 1.0263344331666417 -4.897574874436031 a26.003958634862062,26.003958634862062 0 0,0 0.4373089139386776,0.09557879060403258 l -1.1104860712588474 4.879182585736128" fill="#ff4106" stroke="none" /><path d="M 104.66035177308747 79.52364482259891 l 1.6437792006794423 -7.222331786348813 a28.407029532322035,28.407029532322035 0 0,0 0.4758533387250931,0.11261911107147037 l -1.767856226367059 7.192966763136474" fill="#ff6209" stroke="none" /><path d="M 105.01212808612495 79.60689891045804 l 0.4162661779917344 -1.6936834219066836 a22.744087458982886,22.744087458982886 0 0,0 0.37938341294533806,0.09671327928382854 l -0.4453584796220975 1.6862671464539873" fill="#ff1302" stroke="none" /><path d="M 105.36241919743992 79.69619591428918 l 0.6240119799581915 -2.3627054360569812 a23.443720100319297,23.443720100319297 0 0,0 0.38927974682999317,0.10640485993626585 l -0.6645896160118955 2.351614035294422" fill="#ff1d03" stroke="none" /><path d="M 105.71112130821622 79.79150937346287 l 2.1333935260396957 -7.548896398272054 a28.84456530145507,28.84456530145507 0 0,0 0.4766355392914434,0.13914298412623713 l -2.2630192830545663 7.511055085227113" fill="#ff6809" stroke="none" /><path d="M 106.0581310904928 79.89281104454417 l 0.3889550274167466 -1.2909579067571573 a22.34827976710013,22.34827976710013 0 0,0 0.36737871763600327,0.11414635587746927 l -0.4111191177634681 1.2840714159971673" fill="#ff0e01" stroke="none" /><path d="M 106.40334571778207 80.00007090966166 l 0.24055259702801374 -0.7513314281465049 a21.78890079658826,21.78890079658826 0 0,0 0.35621447275831536,0.11743831112622792 l -0.25344989202874657 0.7470793927610407" fill="#ff0500" stroke="none" /><path d="M 107.08798089147638 80.2323363322302 l 1.1150936428394806 -3.1098836787534982 a24.30375700191137,24.30375700191137 0 0,0 0.39258399643699216,0.14459199904037914 l -1.1684599650490493 3.0902284119067946" fill="#ff2904" stroke="none" /><path d="M 107.76421540070413 80.48803036053334 l 0.8779745712171644 -2.206406223127125 a23.374672139297985,23.374672139297985 0 0,0 0.3725657051479024,0.1519789056975774 l -0.9158241459534543 2.1909664312459682" fill="#ff1c02" stroke="none" /><path d="M 108.09893153111575 80.62456947434976 l 1.585595967611938 -3.7932910525524486 a25.111346687142998,25.111346687142998 0 0,0 0.3973765889474275,0.17013591714936735 l -1.6506563143496809 3.7654356074402906" fill="#ff3505" stroke="none" /><path d="M 108.43124777332544 80.76684994638697 l 2.220828166342783 -5.066097274675876 a26.531493409640817,26.531493409640817 0 0,0 0.41669337858477695,0.18695817265054654 l -2.30770366339434 5.027118771508798" fill="#ff4906" stroke="none" /><path d="M 108.76106565485865 80.91482961587045 l 1.5662010454910493 -3.4118239705716236 a24.754134856536773,24.754134856536773 0 0,0 0.3857186802612825,0.18110009230551122 l -1.6246979370519299 3.3843588956261095" fill="#ff3004" stroke="none" /><path d="M 109.08828744355905 81.06846463323043 l 1.2297970822121735 -2.5617529265483223 a23.84165073858426,23.84165073858426 0 0,0 0.3684428907891692,0.18079332638033882 l -1.2737112400117745 2.540204440033152" fill="#ff2303" stroke="none" /><path d="M 109.41281617654863 81.2277094730956 l 1.2003469950940715 -2.393891700673243 a23.677975052756018,23.677975052756018 0 0,0 0.36276857849330146,0.18582415591230148 l -1.2413760611761284 2.372875019448441" fill="#ff2103" stroke="none" /><path d="M 109.73455568895987 81.39251694778311 l 2.015921287473462 -3.853408659812574 a25.348873065152304,25.348873065152304 0 0,0 0.3848863686547088,0.20559296867629162 l -2.0819527026564817 3.8181369646345282" fill="#ff3805" stroke="none" /><path d="M 110.05341064243156 81.56283822128135 l 0.4105125092290518 -0.7528475473685784 a21.857496326413365,21.857496326413365 0 0,0 0.32877412203383183,0.18296244295563815 l -0.4234107203349187 0.7456697068527604" fill="#ff0601" stroke="none" /><line stroke="#e1ed5e" stroke-width="0.3" x1="143.23703022742887" x2="145.7803849466894" y1="26.81831364943548" y2="22.513508569990506" /><path d="M 143.74570117128098 25.957352633546492 a86.0,86.0 0 0,1 28.547481713284135,27.462654790039103" fill="none" id="id122" stroke="none" /><text fill="#e1ed5e" style="font-size:6.75px; font-family:Arial;" text-anchor="middle"><textPath startOffset="19.985693538727396" xlink:href="#id122">February</textPath></text><path d="M 110.99172775467656 82.1063720568725 l 0.8116191901143739 -1.321249228833035 a22.55062091900432,22.55062091900432 0 0,0 0.3290037310331579,0.2060221061901032 l -0.8342420735197951 1.3070827813199877" fill="#ff1001" stroke="none" /><path d="M 111.2981086023043 82.29822771554956 l 4.186863523775892 -6.5599391272302485 a28.782199401177756,28.782199401177756 0 0,0 0.4153312137623241,0.27014297462033926 l -4.299161763322496 6.486897228450381" fill="#ff6709" stroke="none" /><path d="M 111.60114157652 82.49532879139004 l 1.0081192206994076 -1.521125777237238 a22.824863828705904,22.824863828705904 0 0,0 0.32562962161381975,0.2198665740929606 l -1.0341535367197694 1.5035472908456073" fill="#ff1402" stroke="none" /><path d="M 111.90073688211348 82.69761687909136 l 1.1942220044229757 -1.7362695147895932 a23.10732010473865,23.10732010473865 0 0,0 0.3257789490802745,0.22822897299183045 l -1.223932093086901 1.7154556990338272" fill="#ff1802" stroke="none" /><path d="M 112.48926042617603 83.11751280151076 l 0.41911209858962717 -0.5665391222318976 a21.704713791693827,21.704713791693827 0 0,0 0.2984437899488126,0.22478167520081166 l -0.4288020422968227 0.5592408575252387" fill="#ff0400" stroke="none" /><path d="M 112.77801427241765 83.33499621200491 l 0.6490160004105411 -0.8464424811809741 a22.066623946260677,22.066623946260677 0 0,0 0.2994414020106492,0.2337187639301274 l -0.6634899575806206 0.8351453280276226" fill="#ff0901" stroke="none" /><path d="M 114.16331599549186 84.49514656593476 l 0.2758694295085932 -0.301999551011316 a21.409032603771916,21.409032603771916 0 0,0 0.2699496690027565,0.2508887971603222 l -0.28102698230619655 0.2972061677763532" fill="#ff0000" stroke="none" /><path d="M 114.42810811169701 84.74124197986012 l 4.697834786070017 -4.968296859456145 a27.837662273093876,27.837662273093876 0 0,0 0.34534178479997013,0.3322185233636338 l -4.782659814482406 4.886695249330209" fill="#ff5a08" stroke="none" /><path d="M 114.68862486808459 84.99185889309783 l 1.4887343489588818 -1.5211182381282105 a23.128410358961894,23.128410358961894 0 0,0 0.2821271777621563,0.28091563400112374 l -1.5146973268883608 1.4952667534769681" fill="#ff1902" stroke="none" /><path d="M 114.94478906791727 85.2469230424477 l 11.170350999840517 -11.027057470974718 a36.69626509485035,36.69626509485035 0 0,0 0.43989339585705,0.4533488121518457 l -11.358508659400675 10.833144463272758" fill="#ffce13" stroke="none" /><path d="M 115.19652480421416 85.50635884689758 l 8.991211416170813 -8.575341630839157 a33.42490912706743,33.42490912706743 0 0,0 0.3935109426847046,0.4197700368990248 l -9.137489680825981 8.419302177062077" fill="#ffa50f" stroke="none" /><path d="M 115.4437574822437 85.77008943001954 l 2.5540785146179696 -2.3533333059334014 a24.472966269293234,24.472966269293234 0 0,0 0.2827867094396789,0.3122601475763555 l -2.594208864673684 2.3090203710874966" fill="#ff2c04" stroke="none" /><path d="M 115.68641384162765 86.03803664274999 l 16.385700240071863 -14.58437528453143 a42.93616135055407,42.93616135055407 0 0,0 0.48662646419839023,0.5562981704688569 l -16.6343185678481 14.300161557859624" fill="#e4ff1a" stroke="none" /><path d="M 115.9244219780498 86.31012108654704 l 8.154248493737496 -7.010029919035305 a31.75324546187756,31.75324546187756 0 0,0 0.3527473882663998,0.4175416454536988 l -8.273706495491014 6.8686293239525" fill="#ff8f0d" stroke="none" /><path d="M 116.15771136456269 86.58626213691792 l 37.08962468586019 -30.790901740414355 a69.20497784799637,69.20497784799637 0 0,0 0.753021037813614,0.9231147541497375 l -37.61414421575021 30.147902816656515" fill="#3bff9a" stroke="none" /><path d="M 116.38621287248628 86.86637796730983 l 8.65928732195485 -6.94045705643057 a32.097441194992875,32.097441194992875 0 0,0 0.3418315117445407,0.4340913063820502 l -8.777472914293353 6.790373356095482" fill="#ff930d" stroke="none" /><path d="M 116.82858285166822 87.43820079747576 l 1.3322992201064647 -0.9945029494267857 a22.662545436466285,22.662545436466285 0 0,0 0.2306587264467401,0.314618243653863 l -1.3492205590668314 0.971422262101429" fill="#ff1202" stroke="none" /><path d="M 117.04232023915458 87.72973835380427 l 8.653189098946596 -6.230190069668036 a31.662689617836506,31.662689617836506 0 0,0 0.3146477974432903,0.44504699540023807 l -8.75914951619377 6.080316573936005" fill="#ff8e0d" stroke="none" /><path d="M 117.2510076193507 88.02491185347247 l 17.641662100761824 -12.246267775738678 a42.475551590414426,42.475551590414426 0 0,0 0.41176110052542375,0.6042086063699251 l -17.84984766695598 11.940781146098347" fill="#e9ff1a" stroke="none" /><path d="M 117.45458315368197 88.32363383020206 l 16.745193611416642 -11.201815045913435 a41.146517550352996,41.146517550352996 0 0,0 0.3887432154902013,0.5920825873305849 l -16.935533462264768 10.911914394605176" fill="#f9ff18" stroke="none" /><path d="M 117.65298651832404 88.62581576622439 l 0.4921074005779321 -0.31707497375402854 a21.585411165493696,21.585411165493696 0 0,0 0.19855741718370498,0.3140701503177446 l -0.4974924140075928 0.30855717572207775" fill="#ff0300" stroke="none" /><line stroke="#e1ed5e" stroke-width="0.3" x1="172.23445277983987" x2="176.4835382374775" y1="55.19839476539836" y2="52.563006222186495" /><path d="M 173.08426987136738 54.67131705675599 a86.0,86.0 0 0,1 12.851231095245387,41.99856678651699" fill="none" id="id123" stroke="none" /><text fill="#e1ed5e" style="font-size:6.75px; font-family:Arial;" text-anchor="middle"><textPath startOffset="22.20632615414155" xlink:href="#id123">March</textPath></text><path d="M 117.84615892207809 88.93136811851018 l 3.826796471579724 -2.373474405010386 a25.50308249825988,25.50308249825988 0 0,0 0.2281726807821967,0.3750558932391003 l -3.867084950648145 2.3072507385642043" fill="#ff3a05" stroke="none" /><path d="M 118.03404312379186 89.2402003453031 l 9.135095320391128 -5.450347146186749 a31.63749268044768,31.63749268044768 0 0,0 0.2750056291824551,0.47007376465726763 l -9.22756062404391 5.292293969175586" fill="#ff8d0d" stroke="none" /><path d="M 118.21658344932153 89.55222093294921 l 1.877549288838159 -1.0768331071439206 a23.164430842660007,23.164430842660007 0 0,0 0.19540009131367178,0.3475949591189155 l -1.895807021444264 1.0443546380902111" fill="#ff1902" stroke="none" /><path d="M 118.3937258080291 89.86733742301442 l 2.977958250883283 -1.6404858069254724 a24.399916032305466,24.399916032305466 0 0,0 0.1994889505950657,0.36962272833179 l -3.005755300696814 1.5889820952612235" fill="#ff2b04" stroke="none" /><path d="M 118.89224826269711 90.83032412892265 l 15.435710531174408 -7.491986154454529 a38.15782667300107,38.15782667300107 0 0,0 0.28171706506929983,0.5933679858448659 l -15.562385790085465 7.225175752969123" fill="#ffe115" stroke="none" /><path d="M 119.34039704204932 91.81776055985345 l 4.652926314702438 -1.9684889157901142 a26.052194760857795,26.052194760857795 0 0,0 0.1711732326674002,0.4145095602431341 l -4.686121234256036 1.888104785093677" fill="#ff4206" stroke="none" /><path d="M 119.47837535516314 92.15188598940014 l 4.997791165072347 -2.013681025725769 a26.388211930041653,26.388211930041653 0 0,0 0.16612818210667474,0.4227781029944499 l -5.031712897060722 1.927353917835535" fill="#ff4706" stroke="none" /><path d="M 119.61058180528143 92.48833698450437 l 5.212639152836266 -1.996656148515669 a26.581956889217885,26.581956889217885 0 0,0 0.1599922561640358,0.4286997033743722 l -5.246235997501927 1.9066333081119635" fill="#ff4906" stroke="none" /><path d="M 119.7369772167798 92.82701384747503 l 4.218511481999025 -1.5331286099332875 a25.488465490382385,25.488465490382385 0 0,0 0.14631218998814682,0.41364426370788765 l -4.244276752796981 1.4602867197987852" fill="#ff3a05" stroke="none" /><path d="M 119.97218684219823 93.5106431181261 l 13.258254374724812 -4.307867984014188 a34.94055363436489,34.94055363436489 0 0,0 0.18093302865905025,0.5736071452579081 l -13.330442887152069 4.0790106723298605" fill="#ffb811" stroke="none" /><path d="M 120.28053869075195 94.5502522615342 l 6.669716200153983 -1.7922734367294146 a27.9063274077184,27.9063274077184 0 0,0 0.120666518697578,0.46497731951260723 l -6.699579050721864 1.677199691667957" fill="#ff5b08" stroke="none" /><path d="M 120.37134235888165 94.90015583598534 l 12.591571928657864 -3.1522249974921026 a33.98014661201401,33.98014661201401 0 0,0 0.13716199404891577,0.5686250166590628 l -12.6439667229676 2.9350147491736336" fill="#ffac0f" stroke="none" /><path d="M 120.45610955862082 95.25157060432595 l 8.370538057079186 -1.9430336376494732 a29.593095314381678,29.593095314381678 0 0,0 0.11091155748693043,0.4971947646429777 l -8.402744001568154 1.7986607034565316" fill="#ff720a" stroke="none" /><path d="M 120.53481517161879 95.60439243477599 l 36.844169734429656 -7.886728459231114 a58.67881804421562,58.67881804421562 0 0,0 0.2029189086307963,0.9895046636673527 l -36.97446793897545 7.25134813940035" fill="#3bff2e" stroke="none" /><path d="M 120.6074358757038 95.95851677861258 l 3.1863648073767252 -0.6249025829271261 a24.247063892786514,24.247063892786514 0 0,0 0.07679885248286115,0.4102625408701419 l -3.196649383769446 0.5699619645944214" fill="#ff2903" stroke="none" /><path d="M 120.73433829027371 96.67025291283417 l 13.804401549590432 -2.216861961366669 a34.981272442023624,34.981272442023624 0 0,0 0.09035846999876246,0.5953494200206495 l -13.840515913028495 1.9789134289539376" fill="#ffb911" stroke="none" /><path d="M 120.78858239683441 97.02765380044208 l 6.094839082530052 -0.8714385347715603 a27.15682292759996,27.15682292759996 0 0,0 0.0621813666303282,0.4633234067979452 l -6.108936448218215 0.7663967859089507" fill="#ff5107" stroke="none" /><path d="M 120.83666639777658 97.38593545837742 l 1.3706673210885059 -0.17195710551859697 a22.381411651622454,22.381411651622454 0 0,0 0.044666526742898054,0.3826755237449591 l -1.3734242008349928 0.1483378434487851" fill="#ff0e01" stroke="none" /><path d="M 120.87857604477298 97.74499172005257 l 11.373092837443755 -1.2283605195128777 a32.43923556252831,32.43923556252831 0 0,0 0.05518203499832271,0.5556755617659198 l -11.392551998124306 1.0324094270425228" fill="#ff980e" stroke="none" /><path d="M 120.91429891909075 98.10471618934814 l 48.09715699923988 -4.3586334570283265 a69.29424600324822,69.29424600324822 0 0,0 0.0974261134088008,1.188845354883406 l -48.16505759646817 3.5300741849371517" fill="#3bff9b" stroke="none" /><path d="M 120.96714384426684 98.82574320788733 l 13.887330393525394 -0.7777545744919795 a34.90909226502856,34.90909226502856 0 0,0 0.028436600404695072,0.6002516902273696 l -13.898660602163586 0.5385917776416101" fill="#ffb811" stroke="none" /><path d="M 120.98425023603335 99.18683210126433 l 40.77381870447736 -1.580040273367251 a61.80442156202009,61.80442156202009 0 0,0 0.032045020283780624,1.0634182157851393 l -40.79497541921678 0.8779519101571125" fill="#32ff46" stroke="none" /><line stroke="#e1ed5e" stroke-width="0.3" x1="184.98032266829074" x2="189.97916517819016" y1="98.17113171792111" y2="98.06355123074" /><path d="M 185.9800911702706 98.14961562048488 a86.0,86.0 0 0,1 -9.607161424134198,41.387399972396054" fill="none" id="id124" stroke="none" /><text fill="#e1ed5e" style="font-size:6.75px; font-family:Arial;" text-anchor="middle"><textPath startOffset="21.466115282336823" xlink:href="#id124">April</textPath></text><path d="M 120.99980553446 99.90962569577887 l 15.737917038286874 -0.06772935586908607 a36.738062776900044,36.738062776900044 0 0,0 -0.0027215954209729456,0.6324029277622564 l -15.736751145576397 -0.20318305009685506" fill="#ffcf13" stroke="none" /><path d="M 120.9904718944345 100.63252640178507 l 30.104922963174356 0.9071810626116665 a51.11858834837755,51.11858834837755 0 0,0 -0.034073867073077205,0.879295105331366 l -30.084846963250076 -1.4252534149570386" fill="#88ff25" stroke="none" /><path d="M 120.9764740272857 100.99374915477107 l 6.630390639950132 0.31411118406657257 a27.63782689396869,27.63782689396869 0 0,0 -0.026602920717423286,0.4750130202408951 l -6.624001368345179 -0.428195920642891" fill="#ff5808" stroke="none" /><path d="M 120.95626037817324 101.35467743843564 l 2.071917084621304 0.13393512383388784 a23.07624156179912,23.07624156179912 0 0,0 -0.02903589119789389,0.3961716662723004 l -2.0693046347590727 -0.16957992660295848" fill="#ff1802" stroke="none" /><path d="M 120.92983693683757 101.71520430193887 l 16.351419209098676 1.3400020580614038 a37.40623404890013,37.40623404890013 0 0,0 -0.058113975599979883,0.6412828781862956 l -16.32593063722162 -1.62126632479627" fill="#ffd714" stroke="none" /><path d="M 120.81339534386255 102.79330883721812 l 5.430083794247487 0.7287566876386211 a26.47876777408271,26.47876777408271 0 0,0 -0.06451482290818934,0.45121652115879596 l -5.416734920322696 -0.8221186807778265" fill="#ff4806" stroke="none" /><path d="M 120.76222939487914 103.15116336523771 l 51.83583922577062 7.867324576179056 a73.42946713659114,73.42946713659114 0 0,0 -0.20042134449784904,1.2480239035052192 l -51.692736126911484 -8.75842770937748" fill="#40ffc6" stroke="none" /><path d="M 120.70491114924044 103.5080841355445 l 7.623674055058406 1.2916978882130445 a28.73232756239573,28.73232756239573 0 0,0 -0.08681754303379977,0.48691888701179886 l -7.600310069685418 -1.4227355259580619" fill="#ff6709" stroke="none" /><path d="M 120.64145759157962 103.86396538481128 l 6.8076033874539625 1.2743452697534592 a27.925851553954768,27.925851553954768 0 0,0 -0.09251444592001369,0.4717291666049406 l -6.784659008558284 -1.3913381634263449" fill="#ff5c08" stroke="none" /><path d="M 120.5718875245553 104.21870165774334 l 39.989616495457526 8.20071863607731 a61.821822761874245,61.821822761874245 0 0,0 -0.2227527450992533,1.040626666896451 l -39.84252971163383 -8.887859122389932" fill="#32ff46" stroke="none" /><path d="M 120.49622156327973 104.57218783832717 l 0.4527868990042963 0.10100528756433116 a21.463915988111943,21.463915988111943 0 0,0 -0.08354515932297282,0.35991035978340297 l -0.4509811737507706 -0.10878430469629904" fill="#ff0100" stroke="none" /><path d="M 120.41448212921028 104.9243191809786 l 7.291347234964067 1.7587965649608077 a28.500473975538885,28.500473975538885 0 0,0 -0.1191437691562086,0.47592013272383377 l -7.259992151512797 -1.8840445370820373" fill="#ff6309" stroke="none" /><path d="M 120.32669344350535 105.2749913415812 l 2.0116938478073134 0.522055771569002 a23.078329705781616,23.078329705781616 0 0,0 -0.10309630973895618,0.3836597213072592 l -2.0024094617265797 -0.5566064260518095" fill="#ff1802" stroke="none" /><path d="M 120.23288151984713 105.62410040840565 l 24.844557235358767 6.906000233183531 a46.786524842284365,46.786524842284365 0 0,0 -0.22236379398911457,0.7740775382652795 l -24.722000804483553 -7.332635246953392" fill="#b8ff1f" stroke="none" /><path d="M 120.13307415673323 105.97154293290107 l 1.027629599087226 0.30479867218971185 a22.07187910861663,22.07187910861663 0 0,0 -0.11117209000823067,0.36331682252097686 l -1.0222307365728625 -0.32244246726274584" fill="#ff0a01" stroke="none" /><path d="M 120.02730092923936 106.31721596034902 l 1.654441232700657 0.521860763844479 a22.734795218260764,22.734795218260764 0 0,0 -0.12093584749707152,0.3722022668960767 l -1.6452131341873384 -0.5502619307183511" fill="#ff1302" stroke="none" /><path d="M 119.9155931802556 106.66101706037122 l 37.39990898157125 12.508863257437746 a60.43633922948592,60.43633922948592 0 0,0 -0.3384698875053744,0.9837519273330118 l -37.179048263122645 -13.150787887860057" fill="#30ff36" stroke="none" /><path d="M 119.79798401119884 107.00284435728193 l 3.055299805199648 1.0807054389247042 a24.240799460839014,24.240799460839014 0 0,0 -0.1425309822500571,0.3921840485310783 l -3.036244561944364 -1.1331372844619136" fill="#ff2803" stroke="none" /><path d="M 119.54520255179757 107.68017299344265 l 1.3747245221589208 0.5401899581509972 a22.477048646020926,22.477048646020926 0 0,0 -0.14459954815651635,0.3588842200018404 l -1.365222359745012 -0.5637735459956512" fill="#ff0f01" stroke="none" /><path d="M 119.41010516605496 108.01547362559984 l 51.202674091659546 21.144330761258637 a76.39671973572273,76.39671973572273 0 0,0 -0.5124001435667959,1.2111625788364122 l -50.831122966900445 -22.02256786576121" fill="#44ffe4" stroke="none" /><path d="M 119.26925614724726 108.34839909993367 l 18.151381263081 7.864080161750613 a40.781718796610356,40.781718796610356 0 0,0 -0.2846154509345463,0.6417327055727294 l -18.013324727415178 -8.175361203816031" fill="#fdff18" stroke="none" /><path d="M 119.12269723197855 108.67885076344098 l 7.692316289224163 3.491163630814607 a29.447482074002053,29.447482074002053 0 0,0 -0.21345972580081715,0.4597732591062683 l -7.631081946583515 -3.6230569571997058" fill="#ff700a" stroke="none" /><path d="M 118.97047184881838 109.00673069616215 l 12.646191765586162 6.004112310561878 a34.99912607307399,34.99912607307399 0 0,0 -0.26307133676027483,0.5420048728822543 l -12.540967172211174 -6.220906139409407" fill="#ffb911" stroke="none" /><path d="M 118.81262510543309 109.33194174019688 l 2.7913399558857988 1.384635142593 a24.115893648285844,24.115893648285844 0 0,0 -0.18766911520455895,0.37028896847216747 l -2.767092170894971 -1.4324783227678617" fill="#ff2703" stroke="none" /><path d="M 118.64920377521936 109.65438752849418 l 3.0885509468438435 1.5988922691675276 a24.47787340765211,24.47787340765211 0 0,0 -0.19692739601006728,0.3725124192241911 l -3.060571042608883 -1.651819703477853" fill="#ff2c04" stroke="none" /><line stroke="#e1ed5e" stroke-width="0.3" x1="174.80103733775053" x2="179.2010983576182" y1="140.37084112569926" y2="142.7455964860345" /><path d="M 175.68104954172406 140.8457921977663 a86.0,86.0 0 0,1 -30.038265399797805,32.042727171017184" fill="none" id="id125" stroke="none" /><text fill="#e1ed5e" style="font-size:6.75px; font-family:Arial;" text-anchor="middle"><textPath startOffset="22.206326154141568" xlink:href="#id125">May</textPath></text><path d="M 118.48025628344425 109.97397251340804 l 4.433129901088247 2.3926029543991145 a26.0375777529803,26.0375777529803 0 0,0 -0.21626513337430095,0.3925840355287141 l -4.391288358262436 -2.4685575083256337" fill="#ff4206" stroke="none" /><path d="M 118.30583269289576 110.29060199501025 l 19.462610602527207 10.940883315960855 a43.32702710167825,43.32702710167825 0 0,0 -0.3710609208042183,0.6469759922402487 l -19.27139768557061 -11.27427915405942" fill="#dfff1b" stroke="none" /><path d="M 118.12598468904814 110.60418214915192 l 3.5066814232425734 2.0515017081295084 a25.062692932350764,25.062692932350764 0 0,0 -0.2210519065511542,0.37049571026164324 l -3.4708486409931916 -2.111559512277256" fill="#ff3404" stroke="none" /><path d="M 117.94076556474637 110.91462005526583 l 53.8222966942391 32.74386016579747 a84.0,84.0 0 0,0 -0.7621414413281484,1.228814674538906 l -53.25069061324299 -33.665471171701654" fill="#4dd2ff" stroke="none" /><path d="M 117.75023020441432 111.22182372390056 l 4.372644709596351 2.7644175637864974 a26.173202704643636,26.173202704643636 0 0,0 -0.24402789521027887,0.3787367125151718 l -4.324411951009021 -2.8392758762231223" fill="#ff4406" stroke="none" /><path d="M 117.55443506779139 111.5257021239791 l 5.93210580708666 3.8948382124728593 a28.096452917324967,28.096452917324967 0 0,0 -0.26891903739791456,0.40199747349574855 l -5.864183664278024 -3.9963726001744146" fill="#ff5e08" stroke="none" /><path d="M 117.35343817320211 111.8261652097733 l 1.332438284853708 0.9080411115787135 a22.6124299808863,22.6124299808863 0 0,0 -0.221966943005696,0.3197599364765901 l -1.3166104346858758 -0.9308423102423232" fill="#ff1101" stroke="none" /><path d="M 117.14729908036423 112.12312394758627 l 1.6203080823837026 1.1455562548919045 a22.984363226569148,22.984363226569148 0 0,0 -0.23117914156335692,0.3210876081323903 l -1.600349148444743 -1.173277468475426" fill="#ff1702" stroke="none" /><path d="M 116.93607887273984 112.41649034213515 l 2.2459563446376265 1.6465969172437385 a23.784888024659985,23.784888024659985 0 0,0 -0.2449149551548357,0.32810360585986326 l -2.217280122787699 -1.6850134026129169" fill="#ff2203" stroke="none" /><path d="M 116.71984013943494 112.70617746262583 l 2.755445763187383 2.0939902872111187 a24.46082023179503,24.46082023179503 0 0,0 -0.25764603240606704,0.3330422279195222 l -2.7189929135632473 -2.1411105092438936" fill="#ff2c04" stroke="none" /><path d="M 116.498646956653 112.99209946851258 l 1.937653625355214 1.5258335245477548 a23.46630685773,23.46630685773 0 0,0 -0.2526338881312904,0.3151996196798792 l -1.9111018251690697 -1.5589609778058842" fill="#ff1e03" stroke="none" /><path d="M 116.27256486870786 113.27417163493432 l 6.536353342606868 5.331960685754508 a29.435266431704434,29.435266431704434 0 0,0 -0.3236533696799933,0.3898613334207382 l -6.443603973033332 -5.443683276289017" fill="#ff700a" stroke="none" /><path d="M 116.0416608686014 113.55231037782055 l 1.2569993854711774 1.0619377853809675 a22.645527063008917,22.645527063008917 0 0,0 -0.254123241767414,0.2956027414061013 l -1.2385336341329847 -1.0834176259485968" fill="#ff1202" stroke="none" /><line stroke="#e1ed5e" stroke-width="0.3" x1="143.8653032363475" x2="146.44561519142675" y1="172.8068346515853" y2="177.08958963109032" /><path d="M 144.38136562736335 173.6633856474863 a86.0,86.0 0 0,1 -40.68145358897372,12.25698825130547" fill="none" id="id126" stroke="none" /><text fill="#e1ed5e" style="font-size:6.75px; font-family:Arial;" text-anchor="middle"><textPath startOffset="21.466115282336833" xlink:href="#id126">June</textPath></text><line stroke="#e1ed5e" stroke-width="0.3" x1="102.19456741930631" x2="102.32365962044197" y1="184.97166512339345" y2="189.96999836594603" /><path d="M 102.22038585953345 185.97133177190398 a86.0,86.0 0 0,1 -42.740103519485714,-10.115201625700543" fill="none" id="id127" stroke="none" /><text fill="#e1ed5e" style="font-size:6.75px; font-family:Arial;" text-anchor="middle"><textPath startOffset="22.20632615414155" xlink:href="#id127">July</textPath></text><line stroke="#e1ed5e" stroke-width="0.3" x1="58.666819895761336" x2="56.23545636021788" y1="174.27360380694188" y2="178.64263932499728" /><path d="M 58.180547188652646 175.14741091055294 a86.0,86.0 0 0,1 -31.652253787137756,-30.449443065178592" fill="none" id="id128" stroke="none" /><text fill="#e1ed5e" style="font-size:6.75px; font-family:Arial;" text-anchor="middle"><textPath startOffset="22.20632615414155" xlink:href="#id128">August</textPath></text><line stroke="#e1ed5e" stroke-width="0.3" x1="26.63291911575756" x2="22.317208475507996" y1="142.92168965132927" y2="145.44649492493687" /><path d="M 25.769776987707644 143.4266507060508 a86.0,86.0 0 0,1 -11.730757126820373,-40.83630448921669" fill="none" id="id129" stroke="none" /><text fill="#e1ed5e" style="font-size:6.75px; font-family:Arial;" text-anchor="middle"><textPath startOffset="21.46611528233685" xlink:href="#id129">September</textPath></text><line stroke="#e1ed5e" stroke-width="0.3" x1="15.007084014347285" x2="10.007500721073583" y1="101.09737516637583" y2="101.16192664675087" /><path d="M 14.007167355692545 101.11028546245083 a86.0,86.0 0 0,1 10.666146001902534,-42.60595125391555" fill="none" id="id130" stroke="none" /><text fill="#e1ed5e" style="font-size:6.75px; font-family:Arial;" text-anchor="middle"><textPath startOffset="22.20632615414155" xlink:href="#id130">October</textPath></text><line stroke="#e1ed5e" stroke-width="0.3" x1="26.266209847984243" x2="21.928928074336255" y1="57.711370442889674" y2="55.22380399835377" /><path d="M 25.398753493254645 57.213857153982495 a86.0,86.0 0 0,1 29.58750427330803,-30.492523968695096" fill="none" id="id131" stroke="none" /><text fill="#e1ed5e" style="font-size:6.75px; font-family:Arial;" text-anchor="middle"><textPath startOffset="21.46611528233685" xlink:href="#id131">November</textPath></text><line stroke="#e1ed5e" stroke-width="0.3" x1="56.762969772571076" x2="54.21961505331055" y1="26.818313649435495" y2="22.513508569990535" /><path d="M 56.25429882871897 25.957352633546506 a86.0,86.0 0 0,1 42.265352541879196,-11.944610805530505" fill="none" id="id132" stroke="none" /><text fill="#e1ed5e" style="font-size:6.75px; font-family:Arial;" text-anchor="middle"><textPath startOffset="22.20632615414155" xlink:href="#id132">December</textPath></text></svg>