<?xml version="1.0" encoding="utf-8" ?>
<svg baseProfile="full" height="200mm" version="1.1" viewBox="0,0,200,200" width="200mm" xmlns="http://www.w3.org/2000/svg" xmlns:ev="http://www.w3.org/2001/xml-events" xmlns:xlink="http://www.w3.org/1999/xlink"><defs /><rect fill="#1a1a1a" height="200" width="200" x="0" y="0" /><rect fill="#1a1a1a" height="200" width="180" x="10" y="0" /><text alignment-baseline="middle" fill="#e1ed5e" style="dominant-baseline: central; font-size:9.0px; font-family:Arial;" text-anchor="middle" x="100.0" y="100.0">2026</text><line stroke="#e1ed5e" stroke-width="0.3" x1="100.0" x2="100.0" y1="15.0" y2="10.0" /><path d="M 100.0 14.0 a86.0,86.0 0 0,1 42.46469731375804,11.215312516191453" fill="none" id="id121" stroke="none" /><text fill="#e1ed5e" style="font-size:6.75px; font-family:Arial;" text-anchor="middle"><textPath startOffset="22.20632615414155" xlink:href="#id121">January</textPath></text><path d="M 101.08401301168833 79.027996857942 l 0.01935861705894602 -0.3745240817301571 a21.375024057695306,21.375024057695306 0 0,0 0.36728189938013234,0.022155447173970156 l -0.02580256527869028 0.37413536517588286" fill="#ff0500" stroke="none" /><path d="M 101.44485096284872 79.0497635885617 l 0.025760416475332306 -0.3735242105187494 a21.374411451348163,21.374411451348163 0 0,0 0.36683559922246656,0.028473502677492685 l -0.032186205060140034 0.37302544565279216" fill="#ff0500" stroke="none" /><path d="M 101.80526077348638 79.07773832637324 l 0.01791920285649112 -0.20767650671446705 a21.208448145283512,21.208448145283512 0 0,0 0.3634470276617643,0.034513674621102025 l -0.021491357608499604 0.2073372875781868" fill="#ff0300" stroke="none" /><path d="M 102.16513564639614 79.11191278185805 l 0.03900024746658607 -0.3762538259287072 a21.37826969324603,21.37826969324603 0 0,0 0.3657041092934717,0.041091117743629856 l -0.04547106026978302 0.37552675471447655" fill="#ff0500" stroke="none" /><path d="M 102.52436894288641 79.15227682838746 l 0.009306281700872183 -0.07685674679351227 a21.077418127120062,21.077418127120062 0 0,0 0.3598068552216324,0.04671325633365662 l -0.010627865430350728 0.07668516729571896" fill="#ff0100" stroke="none" /><path d="M 102.88285421437855 79.19881850522331 l 0.028709306878677288 -0.2071514750881494 a21.2091314369784,21.2091314369784 0 0,0 0.36119253809663016,0.053230391089702685 l -0.032270825403963255 0.20662659983747778" fill="#ff0300" stroke="none" /><path d="M 103.2404852339499 79.25152402106235 l 0.013600130271855153 -0.08708016111280072 a21.088135792972224,21.088135792972224 0 0,0 0.3581677206824097,0.059100742812051285 l -0.015097057093140055 0.08683315536112476" fill="#ff0100" stroke="none" /><path d="M 103.59715602781102 79.31037775812273 l 0.10406702890946658 -0.5985582775183681 a21.607537618663898,21.607537618663898 0 0,0 0.36589265705473756,0.0668645443497468 l -0.11435480706710502 0.5966782518178828" fill="#ff0801" stroke="none" /><path d="M 104.307194497241 79.44645832069477 l 0.08685560828331916 -0.4144670889777839 a21.423470027907506,21.423470027907506 0 0,0 0.36027877686830273,0.07874298619534015 l -0.09397710930514984 0.41291060468657326" fill="#ff0600" stroke="none" /><path d="M 104.66035177308747 79.52364482259891 l 0.13910810915500113 -0.6112043016931756 a21.626834718598868,21.626834718598868 0 0,0 0.36227657999902857,0.08573916179891154 l -0.1496083761165532 0.6087192277533955" fill="#ff0901" stroke="none" /><path d="M 105.01212808612495 79.60689891045804 l 0.035227359551498104 -0.14333135388939316 a21.147596896541685,21.147596896541685 0 0,0 0.35275310564431916,0.08992462100427244 l -0.03768935388084231 0.14270373671625286" fill="#ff0200" stroke="none" /><path d="M 105.36241919743992 79.69619591428918 l 0.05280826438622196 -0.1999486826237222 a21.20680471094839,21.20680471094839 0 0,0 0.35213607454896456,0.09625209119151158 l -0.05624222815889738 0.19901005060591698" fill="#ff0200" stroke="none" /><path d="M 105.71112130821622 79.79150937346287 l 0.18054270267456465 -0.6388404864452392 a21.66386205992708,21.66386205992708 0 0,0 0.3579796217469049,0.10450406803549103 l -0.1915125421448967 0.6356380894910447" fill="#ff0901" stroke="none" /><path d="M 106.0581310904928 79.89281104454417 l 0.03291609869981957 -0.10924990006775649 a21.114100877378007,21.114100877378007 0 0,0 0.34709030785392125,0.10784264819925805 l -0.03479177926445903 0.10866711698597786" fill="#ff0100" stroke="none" /><path d="M 106.40334571778207 80.00007090966166 l 0.02035724561489803 -0.06358292785003404 a21.06676231094718,21.06676231094718 0 0,0 0.3444086371944854,0.1135461127567618 l -0.02144870505180088 0.06322309083403603" fill="#ff0000" stroke="none" /><path d="M 107.08798089147638 80.2323363322302 l 0.09436703428419388 -0.26318013883165137 a21.279587057345367,21.279587057345367 0 0,0 0.3437339061958419,0.12660009854169318 l -0.09888326625261219 0.2615167724836335" fill="#ff0400" stroke="none" /><path d="M 107.76421540070413 80.48803036053334 l 0.07430035763788116 -0.1867215484903181 a21.20096138886796,21.20096138886796 0 0,0 0.3379192265279947,0.13784573714724682 l -0.07750345375426339 0.18541492515949198" fill="#ff0200" stroke="none" /><path d="M 108.09893153111575 80.62456947434976 l 0.1341842364516597 -0.3210148574559421 a21.34793095294839,21.34793095294839 0 0,0 0.33782210443979155,0.14463779490491643 l -0.1396900986817665 0.3186575345882348" fill="#ff0500" stroke="none" /><path d="M 108.43124777332544 80.76684994638697 l 0.18794203433795498 -0.42872863483378243 a21.468113715455473,21.468113715455473 0 0,0 0.33716989457837065,0.15127830343079157 l -0.19529404738310588 0.4254300008864596" fill="#ff0601" stroke="none" /><path d="M 108.76106565485865 80.91482961587045 l 0.1325429022978206 -0.2887324411452267 a21.317701185895192,21.317701185895192 0 0,0 0.33217220538234793,0.15595930437001135 l -0.13749331897976647 0.2864081541352125" fill="#ff0400" stroke="none" /><path d="M 109.08828744355905 81.06846463323043 l 0.10407404271824401 -0.2167934754175802 a21.24048038870426,21.24048038870426 0 0,0 0.3282450566017126,0.16106842372183103 l -0.1077903663303884 0.2149698915609172" fill="#ff0300" stroke="none" /><path d="M 109.41281617654863 81.2277094730956 l 0.10158177007496112 -0.20258788276725703 a21.22662900576864,21.22662900576864 0 0,0 0.32521167935478,0.16658605345567412 l -0.1050539370184967 0.20080930399908237" fill="#ff0300" stroke="none" /><path d="M 109.73455568895987 81.39251694778311 l 0.17060137905981285 -0.3261024304520146 a21.368032098713986,21.368032098713986 0 0,0 0.3244429943150953,0.1733062113906839 l -0.17618941990321932 0.3231174925595766" fill="#ff0500" stroke="none" /><path d="M 110.05341064243156 81.56283822128135 l 0.034740443801529956 -0.06371123247765535 a21.072567345130913,21.072567345130913 0 0,0 0.3169674478920995,0.17639204157857966 l -0.03583198076566573 0.06310379333889579" fill="#ff0100" stroke="none" /><line stroke="#e1ed5e" stroke-width="0.3" x1="143.23703022742887" x2="145.7803849466894" y1="26.81831364943548" y2="22.513508569990506" /><path d="M 143.74570117128098 25.957352633546492 a86.0,86.0 0 0,1 28.547481713284135,27.462654790039103" fill="none" id="id122" stroke="none" /><text fill="#e1ed5e" style="font-size:6.75px; font-family:Arial;" text-anchor="middle"><textPath startOffset="19.985693538727396" xlink:href="#id122">February</textPath></text><path d="M 110.99172775467656 82.1063720568725 l 0.06868490052925441 -0.1118133639052603 a21.131224402869755,21.131224402869755 0 0,0 0.3082953544744358,0.1930545226888215 l -0.07059940737595342 0.11061449989349458" fill="#ff0100" stroke="none" /><path d="M 111.2981086023043 82.29822771554956 l 0.3543217165917231 -0.5551479954142984 a21.65858422062863,21.65858422062863 0 0,0 0.3125364377942263,0.20328239290797015 l -0.3638251801702296 0.5489666783468002" fill="#ff0901" stroke="none" /><path d="M 111.60114157652 82.49532879139004 l 0.08531410942317731 -0.1287283173865089 a21.1544327587134,21.1544327587134 0 0,0 0.3017985117620478,0.20377570234126202 l -0.08751731559176694 0.12724070274657676" fill="#ff0200" stroke="none" /><path d="M 111.90073688211348 82.69761687909136 l 0.10106343046432816 -0.14693528734638925 a21.178336187143227,21.178336187143227 0 0,0 0.29858313621151533,0.2091765681073593 l -0.10357770625949443 0.14517387647509436" fill="#ff0200" stroke="none" /><path d="M 112.48926042617603 83.11751280151076 l 0.03546820128560383 -0.047944508619793824 a21.05963781693883,21.05963781693883 0 0,0 0.2895738771474523,0.21810104077140421 l -0.036288232191439125 0.04732687834254225" fill="#ff0000" stroke="none" /><path d="M 112.77801427241765 83.33499621200491 l 0.054924279727552594 -0.07163189132511319 a21.090265189073104,21.090265189073104 0 0,0 0.28619233247334175,0.22337765500299786 l -0.056149167360324666 0.07067584709888891" fill="#ff0100" stroke="none" /><path d="M 114.16331599549186 84.49514656593476 l 34.498119492687444 -37.76575250140866 a72.15048690412826,72.15048690412826 0 0,0 0.9097561958369673,0.8455192352184606 l -35.14308357231926 37.16632868011556" fill="#3fffba" stroke="none" /><path d="M 114.42810811169701 84.74124197986012 l 0.3975636837007467 -0.4204520786940244 a21.578650873217896,21.578650873217896 0 0,0 0.2676952444147969,0.2575226130323727 l -0.4047421717279642 0.41354637889934975" fill="#ff0801" stroke="none" /><path d="M 114.68862486808459 84.99185889309783 l 0.12598712785279725 -0.12872767937429624 a21.18012099217384,21.18012099217384 0 0,0 0.25836136887235983,0.2572518830474469 l -0.12818429689247726 0.12653994567673066" fill="#ff0200" stroke="none" /><path d="M 114.94478906791727 85.2469230424477 l 0.9453133398592733 -0.9331868378044783 a22.328327890532837,22.328327890532837 0 0,0 0.26765895532388995,0.27584608134767646 l -0.9612365588862724 0.9167765609066875" fill="#ff1302" stroke="none" /><path d="M 115.19652480421416 85.50635884689758 l 0.7608992853781054 -0.7257054713498764 a22.051482835635493,22.051482835635493 0 0,0 0.25961176933221586,0.2769357346164626 l -0.7732783766807841 0.7125003198553591" fill="#ff0f01" stroke="none" /><path d="M 115.4437574822437 85.77008943001954 l 0.21614401292768673 -0.19915554732933036 a21.29390673070981,21.29390673070981 0 0,0 0.24605247068265415,0.27169728364932777 l -0.21954012422637653 0.19540547641045355" fill="#ff0400" stroke="none" /><path d="M 115.68641384162765 86.03803664274999 l 1.0163556492078591 -0.9046248859326129 a22.360634039676107,22.360634039676107 0 0,0 0.25342918271433534,0.2897133655064146 l -1.0317766955000427 0.8869959642232506" fill="#ff1302" stroke="none" /><path d="M 115.9244219780498 86.31012108654704 l 0.6900696207099934 -0.5932378306976483 a21.91001494778805,21.91001494778805 0 0,0 0.24339875931702692,0.28810735911067464 l -0.7001789935141376 0.5812715219578671" fill="#ff0d01" stroke="none" /><path d="M 116.15771136456269 86.58626213691792 l 3.138783820348889 -2.6057417678213852 a25.07944285797128,25.07944285797128 0 0,0 0.2728900243299988,0.33453090294889565 l -3.1831723367552964 2.5513266952643887" fill="#ff3905" stroke="none" /><path d="M 116.38621287248628 86.86637796730983 l 0.7328095436960821 -0.5873500877687655 a21.93914320150552,21.93914320150552 0 0,0 0.2336476120133993,0.2967087399705265 l -0.7428112363034454 0.5746489538452006" fill="#ff0d01" stroke="none" /><path d="M 116.82858285166822 87.43820079747576 l 0.11274849156205835 -0.08416180517836513 a21.14069623946787,21.14069623946787 0 0,0 0.215169389707946,0.29349080574941455 l -0.11418049378363074 0.08220855575745686" fill="#ff0200" stroke="none" /><path d="M 117.04232023915458 87.72973835380427 l 0.7322934693525615 -0.5272423205680876 a21.90235147800313,21.90235147800313 0 0,0 0.21765449286090602,0.30785684460596696 l -0.7412605820173503 0.5145589756303275" fill="#ff0c01" stroke="none" /><path d="M 117.2510076193507 88.02491185347247 l 1.4929610109277702 -1.0363649532642092 a22.817411592486632,22.817411592486632 0 0,0 0.22119365509509065,0.3245743949885881 l -1.5105791316915944 1.0105125350052147" fill="#ff1902" stroke="none" /><path d="M 117.45458315368197 88.32363383020206 l 1.4170955684046482 -0.947976047815281 a22.70493942332963,22.70493942332963 0 0,0 0.21451125598014736,0.3267153596291134 l -1.4332034597427203 0.9234426242084935" fill="#ff1802" stroke="none" /><path d="M 117.65298651832404 88.62581576622439 l 0.04164557500623049 -0.026833105103813207 a21.04954159310228,21.04954159310228 0 0,0 0.19362812130763346,0.3062731880147646 l -0.04210129255981965 0.026112269374842387" fill="#ff0000" stroke="none" /><line stroke="#e1ed5e" stroke-width="0.3" x1="172.23445277983987" x2="176.4835382374775" y1="55.19839476539836" y2="52.563006222186495" /><path d="M 173.08426987136738 54.67131705675599 a86.0,86.0 0 0,1 12.851231095245387,41.99856678651699" fill="none" id="id123" stroke="none" /><text fill="#e1ed5e" style="font-size:6.75px; font-family:Arial;" text-anchor="middle"><textPath startOffset="22.20632615414155" xlink:href="#id123">March</textPath></text><path d="M 117.84615892207809 88.93136811851018 l 0.3238503206893276 -0.20086002820349136 a21.3810823810418,21.3810823810418 0 0,0 0.19129369499707244,0.3144365372847608 l -0.327259813972624 0.19525571771164915" fill="#ff0500" stroke="none" /><path d="M 118.03404312379186 89.2402003453031 l 0.773075749130449 -0.46124655028546746 a21.900219136679425,21.900219136679425 0 0,0 0.1903653871609848,0.32539615450500864 l -0.7809008107617588 0.4478709834265635" fill="#ff0c01" stroke="none" /><path d="M 118.21658344932153 89.55222093294921 l 0.15889137136401027 -0.09112915977302694 a21.183169297795438,21.183169297795438 0 0,0 0.17868745591967383,0.31786504559896833 l -0.1604364685761194 0.0883806042392647" fill="#ff0200" stroke="none" /><path d="M 118.3937258080291 89.86733742301442 l 48.98969329545202 -26.987247558955406 a76.93122187106948,76.93122187106948 0 0,0 0.628974652975711,1.1653945072693843 l -49.446976047646196 26.139972068353565" fill="#44ffea" stroke="none" /><path d="M 118.89224826269711 90.83032412892265 l 1.3062779384044212 -0.6340243430083763 a22.45201546819905,22.45201546819905 0 0,0 0.16576195381344805,0.34913694929982403 l -1.3169980860596253 0.6114449780680119" fill="#ff1402" stroke="none" /><path d="M 119.34039704204932 91.81776055985345 l 0.3937632143102081 -0.1665873195469037 a21.427552106739903,21.427552106739903 0 0,0 0.14078749970695614,0.3409280977047 l -0.39657240090336165 0.1597846513889006" fill="#ff0600" stroke="none" /><path d="M 119.47837535516314 92.15188598940014 l 0.42294809341632567 -0.17041179241970514 a21.455988233094015,21.455988233094015 0 0,0 0.13507714467035078,0.34375659961756294 l -0.42581878796837686 0.1631061879063578" fill="#ff0601" stroke="none" /><path d="M 119.61058180528143 92.48833698450437 l 0.4411300349576507 -0.16897102806624906 a21.472384288548533,21.472384288548533 0 0,0 0.1292386118096347,0.34629522625458325 l -0.44397323526891064 0.1613526647823325" fill="#ff0601" stroke="none" /><path d="M 119.7369772167798 92.82701384747503 l 0.3569999884820194 -0.12974408115828487 a21.379845387456225,21.379845387456225 0 0,0 0.12272735686764055,0.3469667645084323 l -0.3591804261594695 0.12357969022323802" fill="#ff0500" stroke="none" /><path d="M 119.97218684219823 93.5106431181261 l 1.1220063473255117 -0.36456196154439807 a22.179747289568336,22.179747289568336 0 0,0 0.1148536137689309,0.3641173422277507 l -1.1281154448626487 0.3451944528902282" fill="#ff1001" stroke="none" /><path d="M 120.28053869075195 94.5502522615342 l 0.5644381002146722 -0.15167473147799254 a21.584461797847275,21.584461797847275 0 0,0 0.0933308717071359,0.3596419207462404 l -0.5669653037921109 0.14193638518290175" fill="#ff0801" stroke="none" /><path d="M 120.37134235888165 94.90015583598534 l 1.0655870092289643 -0.2667633577861332 a22.098470920550408,22.098470920550408 0 0,0 0.08920121421203667,0.36979662091555104 l -1.0700210237018204 0.24838150521117602" fill="#ff0f01" stroke="none" /><path d="M 120.45610955862082 95.25157060432595 l 0.7083735584736466 -0.16443311561933566 a21.727207912399816,21.727207912399816 0 0,0 0.08143110559426699,0.3650396793438767 l -0.7110990510699511 0.15221526672549507" fill="#ff0a01" stroke="none" /><path d="M 120.53481517161879 95.60439243477599 l 3.1180117031678716 -0.6674302016530539 a24.188645489101987,24.188645489101987 0 0,0 0.08364745077529144,0.4078946767678138 l -3.12903844985816 0.6136598687218282" fill="#ff2d04" stroke="none" /><path d="M 120.6074358757038 95.95851677861258 l 0.2696525076172059 -0.05288363344732545 a21.274789289367032,21.274789289367032 0 0,0 0.06738462897869177,0.35997138247032245 l -0.27052286050575697 0.04823417351444022" fill="#ff0300" stroke="none" /><path d="M 120.73433829027371 96.67025291283417 l 1.1682251465319378 -0.18760638629318147 a22.18319320027101,22.18319320027101 0 0,0 0.05730035694343327,0.3775377590359416 l -1.171281396914671 0.16746951486515713" fill="#ff1001" stroke="none" /><path d="M 120.78858239683441 97.02765380044208 l 0.5157879720246535 -0.07374723245480246 a21.521033479135504,21.521033479135504 0 0,0 0.04927701876605192,0.36717102644697774 l -0.5169809898485417 0.06485786394316034" fill="#ff0701" stroke="none" /><path d="M 120.83666639777658 97.38593545837742 l 0.11599546900116559 -0.01455221467370536 a21.11690472950531,21.11690472950531 0 0,0 0.04214295347001959,0.3610550890631626 l -0.11622877547477409 0.01255338728569006" fill="#ff0100" stroke="none" /><path d="M 120.87857604477298 97.74499172005257 l 0.9624707741813143 -0.10395247072080077 a21.968068234848214,21.968068234848214 0 0,0 0.037369644788462254,0.37630722320140636 l -0.9641175446520052 0.08736971681495942" fill="#ff0d01" stroke="none" /><path d="M 120.91429891909075 98.10471618934814 l 4.070318302561524 -0.3688580914372918 a25.086997354511755,25.086997354511755 0 0,0 0.03527174030052044,0.4304045717083861 l -4.076064526681539 0.29873960252113696" fill="#ff3905" stroke="none" /><path d="M 120.96714384426684 98.82574320788733 l 1.1752431661476102 -0.06581903956414069 a22.177084808136527,22.177084808136527 0 0,0 0.01806523337937891,0.3813285243665668 l -1.1762020077604856 0.04557940857457415" fill="#ff1001" stroke="none" /><path d="M 120.98425023603335 99.18683210126433 l 3.450566122666717 -0.13371407469203783 a24.45315595081745,24.45315595081745 0 0,0 0.012678734929345788,0.4207454873667798 l -3.452356552051708 0.07429843990025896" fill="#ff3004" stroke="none" /><line stroke="#e1ed5e" stroke-width="0.3" x1="184.98032266829074" x2="189.97916517819016" y1="98.17113171792111" y2="98.06355123074" /><path d="M 185.9800911702706 98.14961562048488 a86.0,86.0 0 0,1 -9.607161424134198,41.387399972396054" fill="none" id="id124" stroke="none" /><text fill="#e1ed5e" style="font-size:6.75px; font-family:Arial;" text-anchor="middle"><textPath startOffset="21.466115282336823" xlink:href="#id124">April</textPath></text><path d="M 120.99980553446 99.90962569577887 l 1.3318527697208022 -0.005731732476807321 a22.331865103143016,22.331865103143016 0 0,0 -0.001654368717686317,0.38441702708667114 l -1.331754103713613 -0.017194772813548503" fill="#ff1302" stroke="none" /><path d="M 120.99824983174949 100.27111621757518 l 53.52201954687221 0.691042711311724 a74.52648051576554,74.52648051576554 0 0,0 -0.027602966369458935,1.2826013834151067 l -53.50219451781774 -1.6122339105169456" fill="#41ffd2" stroke="none" /><path d="M 120.9904718944345 100.63252640178507 l 2.5476894390275455 0.07677201550486305 a23.54884589963716,23.54884589963716 0 0,0 -0.015696838876695686,0.4050656640718985 l -2.5459904672996467 -0.1206149265907677" fill="#ff2403" stroke="none" /><path d="M 120.9764740272857 100.99374915477107 l 0.5611100958700788 0.026582288461782712 a21.561739403769394,21.561739403769394 0 0,0 -0.02075435402677751,0.37058293313454094 l -0.560569390955772 -0.036236937931747" fill="#ff0801" stroke="none" /><path d="M 120.95626037817324 101.35467743843564 l 0.17534013561461248 0.011334528273792456 a21.17570610316247,21.17570610316247 0 0,0 -0.026644525140863816,0.3635433763733031 l -0.17511905180941098 -0.014351041143865777" fill="#ff0200" stroke="none" /><path d="M 120.92983693683757 101.71520430193887 l 54.83498138416122 4.493737636403312 a76.01880461575055,76.01880461575055 0 0,0 -0.11810210433919002,1.3032468800933348 l -54.74950468354495 -5.436965905045217" fill="#43ffe1" stroke="none" /><path d="M 120.81339534386255 102.79330883721812 l 0.45953172351782623 0.061672495192521624 a21.463651702878934,21.463651702878934 0 0,0 -0.05229562419175911,0.365755473795744 l -0.4584020483094658 -0.06957344096867497" fill="#ff0601" stroke="none" /><path d="M 120.76222939487914 103.15116336523771 l 4.386711778673842 0.6657881091624555 a25.436948730316583,25.436948730316583 0 0,0 -0.06942863217255231,0.43233215881328796 l -4.3746013921400015 -0.7411994976689483" fill="#ff3e05" stroke="none" /><path d="M 120.70491114924044 103.5080841355445 l 0.6451686955126694 0.10931252248145798 a21.65436371632356,21.65436371632356 0 0,0 -0.06543078174675794,0.36697057197345223 l -0.6431914714267228 -0.12040184518812855" fill="#ff0901" stroke="none" /><path d="M 120.64145759157962 103.86396538481128 l 0.5761070797796118 0.10784402236793676 a21.586114067850865,21.586114067850865 0 0,0 -0.07151178107120687,0.36463703102455325 l -0.5741653657327408 -0.11774478046043492" fill="#ff0801" stroke="none" /><path d="M 120.5718875245553 104.21870165774334 l 3.3842014391089568 0.6940022496363016 a24.45462856222885,24.45462856222885 0 0,0 -0.08811347513322554,0.4116368213361209 l -3.371753925251288 -0.7521528903885916" fill="#ff3004" stroke="none" /><path d="M 120.49622156327973 104.57218783832717 l 0.0383179987583546 0.00854777488480418 a21.039259820227894,21.039259820227894 0 0,0 -0.08189224718788032,0.35278965756615427 l -0.03816518563992144 -0.009206089799523335" fill="#ff0000" stroke="none" /><path d="M 120.41448212921028 104.9243191809786 l 0.6170448723460858 0.148841684113584 a21.63474264187808,21.63474264187808 0 0,0 -0.09044217248071808,0.3612715212527941 l -0.6143913855703068 -0.15944104476377408" fill="#ff0901" stroke="none" /><path d="M 120.32669344350535 105.2749913415812 l 0.17024362350585315 0.04418001592087374 a21.175882816531836,21.175882816531836 0 0,0 -0.09459763343714077,0.35203298520301773 l -0.16945791372693517 -0.04710393429943971" fill="#ff0200" stroke="none" /><path d="M 120.23288151984713 105.62410040840565 l 3.3996001214488865 0.9449811887991064 a24.528494074380664,24.528494074380664 0 0,0 -0.11657734831994619,0.40582104301303423 l -3.382830136242841 -1.0033597073167226" fill="#ff3204" stroke="none" /><path d="M 120.13307415673323 105.97154293290107 l 0.08696521429499059 0.025794198481000508 a21.090709917719348,21.090709917719348 0 0,0 -0.10623011705400438,0.34716616896592384 l -0.08650832473485351 -0.0272873399989815" fill="#ff0100" stroke="none" /><path d="M 120.02730092923936 106.31721596034902 l 0.14001040498257247 0.04416351300137124 a21.146810522048,21.146810522048 0 0,0 -0.11248869531447263,0.3462046056876779 l -0.13922945865185288 -0.04656701866684441" fill="#ff0200" stroke="none" /><path d="M 119.9155931802556 106.66101706037122 l 3.165042250714122 1.0585876221705348 a24.337379241653274,24.337379241653274 0 0,0 -0.1362999499823955,0.3961514552411863 l -3.1463514697884953 -1.1129117805010216" fill="#ff2f04" stroke="none" /><path d="M 119.79798401119884 107.00284435728193 l 0.25856086914063076 0.09145686361051536 a21.274259149258928,21.274259149258928 0 0,0 -0.12508832714386012,0.34418935300110437 l -0.2569482809915439 -0.09589401361775084" fill="#ff0300" stroke="none" /><path d="M 119.54520255179757 107.68017299344265 l 0.11633881777278345 0.04571465780309357 a21.124998201822358,21.124998201822358 0 0,0 -0.13590152528016833,0.33729644054240304 l -0.11553467823522498 -0.047710466188310145" fill="#ff0100" stroke="none" /><path d="M 119.41010516605496 108.01547362559984 l 4.3331289102736 1.789381366019738 a25.68805842818832,25.68805842818832 0 0,0 -0.17229227736594782,0.40724804937713827 l -4.301685651715341 -1.8637039410630398" fill="#ff4206" stroke="none" /><path d="M 119.26925614724726 108.34839909993367 l 1.5360970165670813 0.6655135440893186 a22.674067597701065,22.674067597701065 0 0,0 -0.1582422262785172,0.35679444553036027 l -1.5244137055572913 -0.6918563261123666" fill="#ff1702" stroke="none" /><path d="M 119.12269723197855 108.67885076344098 l 0.6509776821448305 0.29544671889788376 a21.71488510010923,21.71488510010923 0 0,0 -0.15740746212586498,0.3390416697938923 l -0.6457956031791343 -0.30660845597060665" fill="#ff0a01" stroke="none" /><path d="M 118.97047184881838 109.00673069616215 l 21.727074211970304 10.31550020485838 a45.051513430320725,45.051513430320725 0 0,0 -0.33863022283593275,0.6976785580009056 l -21.546290732519655 -10.68796771882456" fill="#c9ff1d" stroke="none" /><path d="M 118.81262510543309 109.33194174019688 l 0.23622273789057482 0.1171775238888913 a21.263688744547906,21.263688744547906 0 0,0 -0.1654733476135599,0.3264946133021093 l -0.23417072049074591 -0.12122634889369494" fill="#ff0300" stroke="none" /><path d="M 118.64920377521936 109.65438752849418 l 19.650518305474613 10.1727516704444 a43.127533667861,43.127533667861 0 0,0 -0.34696612569674257,0.65632915221979 l -19.472499671552974 -10.509495837750325" fill="#dfff1b" stroke="none" /><line stroke="#e1ed5e" stroke-width="0.3" x1="174.80103733775053" x2="179.2010983576182" y1="140.37084112569926" y2="142.7455964860345" /><path d="M 175.68104954172406 140.8457921977663 a86.0,86.0 0 0,1 -30.038265399797805,32.042727171017184" fill="none" id="id125" stroke="none" /><text fill="#e1ed5e" style="font-size:6.75px; font-family:Arial;" text-anchor="middle"><textPath startOffset="22.206326154141568" xlink:href="#id125">May</textPath></text><path d="M 118.48025628344425 109.97397251340804 l 0.375162502314167 0.20247882003103354 a21.426315113154327,21.426315113154327 0 0,0 -0.177964514964753,0.3230572879487288 l -0.3716215778979068 -0.20890662637756854" fill="#ff0600" stroke="none" /><path d="M 118.30583269289576 110.29060199501023 l 1.647062427252122 0.925894177234826 a22.8894694140692,22.8894694140692 0 0,0 -0.1960297801548312,0.3417944450992966 l -1.6308806509449087 -0.9541084681924366" fill="#ff1a02" stroke="none" /><path d="M 118.12598468904814 110.60418214915192 l 0.2967599431813062 0.17361244346454333 a21.34381353144212,21.34381353144212 0 0,0 -0.18825154531209704,0.31552041815173 l -0.29372752217098197 -0.1786949555023774" fill="#ff0400" stroke="none" /><path d="M 117.94076556474637 110.91462005526583 l 4.554819723001927 2.771014788492945 a26.331501258284945,26.331501258284945 0 0,0 -0.23890867049194336,0.38519684700976436 l -4.5064464128420205 -2.8490079668679824" fill="#ff4a06" stroke="none" /><path d="M 117.75023020441432 111.22182372390056 l 1.641266892550813 1.0376207823771688 a22.941755365797764,22.941755365797764 0 0,0 -0.21389924410555533,0.3319763769310498 l -1.623162785068207 -1.0657187592296715" fill="#ff1b02" stroke="none" /><path d="M 117.55443506779139 111.5257021239791 l 1.5973756891248405 1.0487877451960135 a22.910906807429498,22.910906807429498 0 0,0 -0.21928672002465238,0.3278038932239739 l -1.5790858636894671 -1.0761285526257944" fill="#ff1b02" stroke="none" /><path d="M 117.35343817320211 111.8261652097733 l 5.480730323018421 3.735053631638344 a27.63242267236252,27.63242267236252 0 0,0 -0.2712439305996776,0.3907471123571218 l -5.415625485256607 -3.8288420061824855" fill="#ff5c08" stroke="none" /><path d="M 117.14729908036423 112.12312394758627 l 0.13712181873076004 0.09694499387924305 a21.16793071491028,21.16793071491028 0 0,0 -0.21290927240867638,0.2957123578044518 l -0.13543275394648085 -0.09929095713482604" fill="#ff0200" stroke="none" /><path d="M 116.93607887273984 112.41649034213515 l 0.6793167082461641 0.4980331876445141 a21.842323124517996,21.842323124517996 0 0,0 -0.2249122040420129,0.30130665194136763 l -0.6706432375090592 -0.5096527190951967" fill="#ff0c01" stroke="none" /><path d="M 116.71984013943494 112.70617746262583 l 0.6969853099018624 0.529671274521864 a21.875408579620174,21.875408579620174 0 0,0 -0.23041386897054092,0.29784098574653156 l -0.6877646237132531 -0.5415902543816482" fill="#ff0c01" stroke="none" /><path d="M 116.498646956653 112.99209946851258 l 0.1639778212968524 0.1291267199374556 a21.208716160560385,21.208716160560385 0 0,0 -0.22832908724835493,0.28487564354444006 l -0.16173082199364353 -0.13193019706014594" fill="#ff0300" stroke="none" /><path d="M 116.27256486870786 113.27417163493432 l 0.5531520011222787 0.4512278588131117 a21.71385132689843,21.71385132689843 0 0,0 -0.23875310138560657,0.28759349101342935 l -0.5453028998431287 -0.4606826069403115" fill="#ff0a01" stroke="none" /><path d="M 116.0416608686014 113.55231037782055 l 0.1063760921476674 0.08986861331712709 a21.139256025507525,21.139256025507525 0 0,0 -0.2372201916434213,0.275940675394251 l -0.10481339093346499 -0.09168638787290609" fill="#ff0200" stroke="none" /><path d="M 115.80600337817218 113.82643327865902 l 0.6432915772419685 0.5627246723066287 a21.85468304661615,21.85468304661615 0 0,0 -0.25012284114260885,0.2810156635577493 l -0.633509886451026 -0.5737145056052444" fill="#ff0c01" stroke="none" /><path d="M 115.56566222782051 114.09645910891815 l 0.12217517581482619 0.1106433728801097 a21.164829395277877,21.164829395277877 0 0,0 -0.24687623735861897,0.2679353970037356 l -0.12025253046048293 -0.1127300246851801" fill="#ff0200" stroke="none" /><path d="M 115.32070863581623 114.36230785411682 l 2.7942710817622647 2.619472927662499 a24.830089985513343,24.830089985513343 0 0,0 -0.29499737047887437,0.30930356356315475 l -2.748767159904426 -2.6671836078081608" fill="#ff3605" stroke="none" /><path d="M 115.07121518719521 114.62390073753431 l 0.04480026202960595 0.0434705879253265 a21.062423997729198,21.062423997729198 0 0,0 -0.25471428729898066,0.25802422824883847 l -0.044045349675089676 -0.04423531015482962" fill="#ff0000" stroke="none" /><path d="M 114.81725581225074 114.88116024355365 l 0.22808404807450755 0.22906773773784028 a21.32325587613899,21.32325587613899 0 0,0 -0.26232686529064925,0.2567420501732098 l -0.2241072304080641 -0.23295989083362206" fill="#ff0400" stroke="none" /><path d="M 114.55890576462653 115.13401014063108 l 2.413855148181466 2.5092070023114097 a24.481783516655046,24.481783516655046 0 0,0 -0.3062136780965275,0.2895441455343687 l -2.3703056356941308 -2.5503857845917" fill="#ff3104" stroke="none" /><path d="M 114.29624159901734 115.38237550388516 l 0.11696739910122643 0.12585380865496396 a21.17181546381355,21.17181546381355 0 0,0 -0.26908414694744065,0.24580198831294203 l -0.11478370268692183 -0.12784856355448895" fill="#ff0200" stroke="none" /><path d="M 114.0293411484842 115.62618273729858 l 0.08155295796780022 0.09083544340995402 a21.12207359555932,21.12207359555932 0 0,0 -0.2726333128831524,0.24056720008763682 l -0.0799772921780601 -0.09222578526987966" fill="#ff0100" stroke="none" /><path d="M 113.75828350139079 115.86535959552629 l 0.10842897074314062 0.12503482801752322 a21.165500906081473,21.165500906081473 0 0,0 -0.2773028573715619,0.23632351100905832 l -0.10626063679453143 -0.12688272924952837" fill="#ff0200" stroke="none" /><path d="M 113.48314897796784 116.09983520530334 l 4.243315333608432 5.066819161226023 a27.60896220544524,27.60896220544524 0 0,0 -0.36697552721049576,0.3019958753275454 l -4.155469677853245 -5.139110155410747" fill="#ff5c08" stroke="none" /><path d="M 113.20401910651253 116.32954008644616 l 0.9037368773762311 1.1176602705335414 a22.437325580325783,22.437325580325783 0 0,0 -0.30241508995107264,0.24025683730669162 l -0.8843642947078074 -1.133051021845359" fill="#ff1402" stroke="none" /><path d="M 112.92097659922987 116.55440617244103 l 0.21978664262588862 0.2815915132547304 a21.357211350063025,21.357211350063025 0 0,0 -0.2917509702774175,0.22370220310913314 l -0.2149069438549774 -0.285333058191235" fill="#ff0500" stroke="none" /><path d="M 112.63410532772338 116.77436683061366 l 0.544995575291676 0.7235934372767535 a21.905873964499197,21.905873964499197 0 0,0 -0.3031512481047684,0.2242640460251353 l -0.5324593567683432 -0.7328674320416578" fill="#ff0c01" stroke="none" /><path d="M 112.34349029814194 116.9893568818739 l 0.18406196944371278 0.2533395669886438 a21.313144926188325,21.313144926188325 0 0,0 -0.2986607671130203,0.2130865273999525 l -0.1796738744818079 -0.25647035623281556" fill="#ff0400" stroke="none" /><path d="M 112.04921762599082 117.19931262002967 l 0.5785818822945821 0.8258802337841772 a22.00838244484667,22.00838244484667 0 0,0 -0.31214500913257986,0.21469618357154327 l -0.564279988539119 -0.8357172067208146" fill="#ff0e01" stroke="none" /><path d="M 111.7513745106137 117.40417183066458 l 0.11115876881178297 0.16462978957381177 a21.198643498506417,21.198643498506417 0 0,0 -0.3041756018329308,0.2015910027062566 l -0.10830846823888804 -0.1665188133713868" fill="#ff0200" stroke="none" /><path d="M 111.45004920935366 117.60387380957326 l 0.037559332853533 0.05774558203516025 a21.068885816602418,21.068885816602418 0 0,0 -0.30571775804352735,0.19512353771847016 l -0.03655977276307518 -0.05838354857743928" fill="#ff0000" stroke="none" /><path d="M 111.1453310114006 117.79835938074945 l 0.038638720036359916 0.06170349041368457 a21.072802962956736,21.072802962956736 0 0,0 -0.3090886489675595,0.18986749318307333 l -0.03757087113649171 -0.06235945042513604" fill="#ff0100" stroke="none" /><line stroke="#e1ed5e" stroke-width="0.3" x1="143.8653032363475" x2="146.44561519142675" y1="172.8068346515853" y2="177.08958963109032" /><path d="M 144.38136562736335 173.6633856474863 a86.0,86.0 0 0,1 -40.68145358897372,12.25698825130547" fill="none" id="id126" stroke="none" /><text fill="#e1ed5e" style="font-size:6.75px; font-family:Arial;" text-anchor="middle"><textPath startOffset="21.466115282336833" xlink:href="#id126">June</textPath></text><path d="M 110.8373102113329 117.98757091392108 l 0.11360936546136272 0.1885667640652039 a21.220146570335665,21.220146570335665 0 0,0 -0.31449482829406405,0.185809087975677 l -0.11034666613891658 -0.1904944243346304" fill="#ff0300" stroke="none" /><path d="M 110.5260780823613 118.17145234162733 l 0.2834642828742003 0.4893520327797716 a21.56552401509669,21.56552401509669 0 0,0 -0.3228166221969601,0.18330370307974628 l -0.27499889375604225 -0.49415890165414633" fill="#ff0801" stroke="none" /><path d="M 110.21172684928248 118.3499491758327 l 0.08030384748921983 0.14430189347990072 a21.165141588897093,21.165141588897093 0 0,0 -0.319873005899336,0.17442026708508127 l -0.07780802972123398 -0.14566281232475248" fill="#ff0200" stroke="none" /><path d="M 109.57404056367764 118.69057910512821 l 18.428053577276305 35.975510114960166 a61.42066905283196,61.42066905283196 0 0,0 -0.9451356758063358,0.47391064854407494 l -17.80606399378721 -36.28738860441354" fill="#31ff43" stroke="none" /><path d="M 109.2508944713604 118.85261126421891 l 1.4886386719711078 3.033731092970441 a24.37928534458745,24.37928534458745 0 0,0 -0.37832858366707767,0.18162071115036457 l -1.4361974203037973 -3.0589060806203654" fill="#ff2f04" stroke="none" /><path d="M 108.92500713936063 119.00905698771935 l 1.0853925549178367 2.3117392074105974 a23.553862792193513,23.553862792193513 0 0,0 -0.3684856071685019,0.1691536691733306 l -1.0454389519819154 -2.3300799469180022" fill="#ff2403" stroke="none" /><path d="M 108.59647513512805 119.15986991738527 l 13.876508665478415 30.928036987112822 a54.89839177039696,54.89839177039696 0 0,0 -0.8655105957008261,0.37941441014345734 l -13.342077395119835 -31.162315950550735" fill="#5fff29" stroke="none" /><path d="M 108.2653958097858 119.30500536409082 l 0.4914811483989423 1.147923998383446 a22.24871262718697,22.24871262718697 0 0,0 -0.3533609833621941,0.14770491970382146 l -0.471648705539287 -1.1562139611072406" fill="#ff1101" stroke="none" /><path d="M 107.93186726928326 119.44442032107085 l 0.04431381314913649 0.10863222739972385 a21.11732295114615,21.11732295114615 0 0,0 -0.33775541474797,0.13439985000556326 l -0.04243732235930023 -0.10937892181135603" fill="#ff0100" stroke="none" /><path d="M 107.59598834532513 119.57807347666477 l 0.5076307011133672 1.308378938143693 a22.403404565508772,22.403404565508772 0 0,0 -0.36072658285493964,0.13639592748901863 l -0.48503389749815273 -1.3169231157393424" fill="#ff1402" stroke="none" /><path d="M 107.2578585660854 119.70592522655815 l 0.040807822319111474 0.11079795616805614 a21.118073982965964,21.118073982965964 0 0,0 -0.34219369017035356,0.1226984826267486 l -0.038894571519023126 -0.11148397983476487" fill="#ff0100" stroke="none" /><path d="M 106.91757812671514 119.82793768551818 l 0.8233512192970602 2.359981538404358 a23.499483965127073,23.499483965127073 0 0,0 -0.3830754581723478,0.1299599941497767 l -0.7826060281874855 -2.3738045194522575" fill="#ff2303" stroke="none" /><path d="M 106.57524785965236 119.94407469862006 l 0.05631507773971504 0.17081517549953681 a21.179858867342613,21.179858867342613 0 0,0 -0.34722730104821115,0.1111712167188737 l -0.05336643160056352 -0.1717592388781171" fill="#ff0200" stroke="none" /><path d="M 105.53697534728816 120.25689768951611 l 0.03875080252928677 0.14176892490714435 a21.14696956408043,21.14696956408043 0 0,0 -0.35195561753430915,0.09295467746564007 l -0.0363047421834802 -0.1424149516763684" fill="#ff0200" stroke="none" /><path d="M 104.83641907484287 120.43548508189849 l 12.41838836572034 52.47183634456759 a74.92133139095272,74.92133139095272 0 0,0 -1.2575361759986137,0.2862111394709998 l -11.513332040328862 -52.677824217616276" fill="#42ffd6" stroke="none" /><path d="M 104.48393922423573 120.51570834832081 l 0.37601101620643673 1.7203918158729803 a22.761003203980994,22.761003203980994 0 0,0 -0.38347796571436954,0.08036153620186784 l -0.3463415890626892 -1.7266093328013894" fill="#ff1902" stroke="none" /><path d="M 104.13013068566511 120.58985236759428 l 1.7422582248573972 8.68564274746764 a29.858659811660026,29.858659811660026 0 0,0 -0.5047995818393164,0.09674604129263567 l -1.5924910284463765 -8.714345987108743" fill="#ff7a0b" stroke="none" /><path d="M 103.7750983002368 120.6578951692458 l 11.32529490071043 61.973685507737414 a84.0,84.0 0 0,0 -1.4246041141118002,0.24768568591597528 l -10.256841815126581 -62.15944977217439" fill="#4dd2ff" stroke="none" /><path d="M 103.41894727170886 120.7198165907248 l 0.21098898724382378 1.2786547351956559 a22.295945324686365,22.295945324686365 0 0,0 -0.3792053360439679,0.05922407473844709 l -0.18894778759133876 -1.2820971172812086" fill="#ff1202" stroke="none" /><path d="M 103.06178313531738 120.77559828337769 l 0.027748117312808566 0.18828366116504575 a21.19031735358637,21.19031735358637 0 0,0 -0.36131651371413454,0.050075176477207974 l -0.024503012411843546 -0.1887334031348563" fill="#ff0200" stroke="none" /><path d="M 102.70371172650421 120.8252237178851 l 0.15051650051466423 1.1593468955005366 a22.169076747281338,22.169076747281338 0 0,0 -0.3788511286127894,0.045873595652391796 l -0.13053794885049452 -1.1617660198782793" fill="#ff1001" stroke="none" /><path d="M 102.34483914955558 120.86867818915974 l 0.014558332386916424 0.129566735360488 a21.130382069142435,21.130382069142435 0 0,0 -0.3617998387301466,0.03750203259466938 l -0.012325897051167182 -0.12979813641091578" fill="#ff0100" stroke="none" /><path d="M 101.98527174616119 120.90594882070398 l 0.41010447372142167 4.3186143938934896 a25.33804287236887,25.33804287236887 0 0,0 -0.43455429132343226,0.03749517276448313 l -0.3357058646564477 -4.325033818936636" fill="#ff3d05" stroke="none" /><path d="M 101.62511606390274 120.93702456842531 l 0.6820733458490932 8.78742553637403 a29.81385679520811,29.81385679520811 0 0,0 -0.5119993811979133,0.03531047499291556 l -0.5307112038722495 -8.797864355883231" fill="#ff7a0b" stroke="none" /><path d="M 101.26447882468166 120.96189622390904 l 0.02108927606623172 0.3496074490998383 a21.350242952864285,21.350242952864285 0 0,0 -0.36703297372643,0.01897141234163737 l -0.015068233926322092 -0.34991866820367756" fill="#ff0500" stroke="none" /><path d="M 100.90346689309514 120.98055641714683 l 0.05035378921978922 1.1693295278631253 a22.170413195765235,22.170413195765235 0 0,0 -0.3814151944092244,0.013136710493890338 l -0.03021824313591253 -1.1700230367831095" fill="#ff1001" stroke="none" /><line stroke="#e1ed5e" stroke-width="0.3" x1="102.19456741930631" x2="102.32365962044197" y1="184.97166512339345" y2="189.96999836594603" /><path d="M 102.22038585953345 185.97133177190398 a86.0,86.0 0 0,1 -42.740103519485714,-10.115201625700543" fill="none" id="id127" stroke="none" /><text fill="#e1ed5e" style="font-size:6.75px; font-family:Arial;" text-anchor="middle"><textPath startOffset="22.20632615414155" xlink:href="#id127">July</textPath></text><path d="M 100.54218724476979 120.99299961872073 l 0.005343101080221408 0.20688004010035174 a21.206949026866706,21.206949026866706 0 0,0 -0.3650022015571946,0.006283843912351477 l -0.0017812096303588924 -0.20694136129186289" fill="#ff0200" stroke="none" /><path d="M 100.18074693466247 120.99922214144158 l 0.012444689559307661 1.4458270123651107 a22.445880569059163,22.445880569059163 0 0,0 -0.38638324844352523,0.0 l 0.012444689559306665 -1.4458270123651107" fill="#ff1402" stroke="none" /><path d="M 99.45781275523022 120.99299961872073 l -0.05795324864614647 2.2438973592024842 a23.244645615161673,23.244645615161673 0 0,0 -0.39989606634729336,-0.01377322909064152 l 0.09656966666808284 -2.242567331685749" fill="#ff2003" stroke="none" /><path d="M 99.09653310690486 120.98055641714683 l -0.11218562437007941 2.605205391894135 a23.6076197476376,23.6076197476376 0 0,0 -0.405839638345453,-0.020977273636922675 l 0.15701333112902133 -2.6028883114950103" fill="#ff2503" stroke="none" /><path d="M 98.73552117531835 120.96189622390904 l -0.015869583145357642 0.26307799586397507 a21.26355620952088,21.26355620952088 0 0,0 -0.3651633432106499,-0.02518380211437184 l 0.020395687134937612 -0.2627658492333181" fill="#ff0300" stroke="none" /><path d="M 98.01472825383883 120.90594882070398 l -0.013906554340906433 0.1464432835885055 a21.147102099107457,21.147102099107457 0 0,0 -0.36208612338535595,-0.03753170716972584 l 0.016425274331855713 -0.14618220796301892" fill="#ff0200" stroke="none" /><path d="M 97.65516085044442 120.86867818915974 l -0.13446257192093794 1.196694512046437 a22.20422503644861,22.20422503644861 0 0,0 -0.3794517837131986,-0.045946326620107225 l 0.15504177868552588 -1.1942026567009811" fill="#ff1101" stroke="none" /><path d="M 97.2962882734958 120.8252237178851 l -0.015505542960006965 0.11943078022853054 a21.120433106447024,21.120433106447024 0 0,0 -0.36012491605570385,-0.049910031899609804 l 0.01755905020254183 -0.11914618283631583" fill="#ff0100" stroke="none" /><path d="M 96.93821686468263 120.77559828337769 l -0.17027482174229208 1.1553925075509726 a22.167872151146817,22.167872151146817 0 0,0 -0.37702709107148363,-0.05888387767161548 l 0.19013777642229288 -1.1522903225322514" fill="#ff1001" stroke="none" /><path d="M 96.58105272829116 120.7198165907248 l -0.4170366449897519 2.527363573957663 a23.56153981000342,23.56153981000342 0 0,0 -0.3995936493826171,-0.06947447796520542 l 0.46047926584441895 -2.5198105174714516" fill="#ff2403" stroke="none" /><path d="M 96.22490169976321 120.6578951692458 l -0.006230598797619527 0.034094756365623556 a21.034659382178685,21.034659382178685 0 0,0 -0.3556183474822273,-0.06815510267376754 l 0.0068165608515418944 -0.033982455343387896" fill="#ff0000" stroke="none" /><path d="M 95.86986931433489 120.58985236759428 l -0.08660878471469412 0.43176892615085316 a21.44036971646472,21.44036971646472 0 0,0 -0.3612278988474293,-0.07569881835655443 l 0.09402814499151019 -0.4302141270677576" fill="#ff0600" stroke="none" /><path d="M 95.51606077576429 120.51570834832081 l -0.05003074592756566 0.22890947904714937 a21.23431309211332,21.23431309211332 0 0,0 -0.35641273840253734,-0.08111837888016292 l 0.053963633722965657 -0.22801436658929972" fill="#ff0300" stroke="none" /><path d="M 95.16358092515715 120.4354850818985 l -0.02094595081972906 0.08850363437884282 a21.090948480767995,21.090948480767995 0 0,0 -0.352567056467799,-0.0866524045659183 l 0.022466292030738588 -0.08812997149889457" fill="#ff0100" stroke="none" /><path d="M 94.81253420990036 120.34920634021253 l -0.6720637023498294 2.6363475936525007 a23.720661363450713,23.720661363450713 0 0,0 -0.3947903737789654,-0.10426772590889517 l 0.7173445189402842 -2.624388518440024" fill="#ff2603" stroke="none" /><path d="M 94.46302465271185 120.25689768951611 l -0.58912231374944 2.1552905129112125 a23.234355006618816,23.234355006618816 0 0,0 -0.3848813302854859,-0.10877130841437443 l 0.6261348121395398 -2.144830411158317" fill="#ff1f03" stroke="none" /><path d="M 94.11515582081647 120.15858648285463 l -1.0123523427265813 3.4678220239309088 a24.612567903235075,24.612567903235075 0 0,0 -0.40566789021897265,-0.12222440757853026 l 1.0718952073857997 -3.449882247246653" fill="#ff3304" stroke="none" /><path d="M 93.76903079525671 120.05430185196036 l -0.13018095537225247 0.4189858894543018 a21.438743953466535,21.438743953466535 0 0,0 -0.3514715205351997,-0.11253008177057354 l 0.13737382099839254 -0.4166829610240217" fill="#ff0600" stroke="none" /><path d="M 93.42475214034765 119.94407469862007 l -0.02810220866968064 0.08523975990981923 a21.089752720301938,21.089752720301938 0 0,0 -0.3437933657632777,-0.11663337561871674 l 0.029565307370184115 -0.08474339739297945" fill="#ff0100" stroke="none" /><line stroke="#e1ed5e" stroke-width="0.3" x1="58.666819895761336" x2="56.23545636021788" y1="174.27360380694188" y2="178.64263932499728" /><path d="M 58.180547188652646 175.14741091055294 a86.0,86.0 0 0,1 -31.652253787137756,-30.449443065178592" fill="none" id="id128" stroke="none" /><text fill="#e1ed5e" style="font-size:6.75px; font-family:Arial;" text-anchor="middle"><textPath startOffset="22.20632615414155" xlink:href="#id128">August</textPath></text><line stroke="#e1ed5e" stroke-width="0.3" x1="26.63291911575756" x2="22.317208475507996" y1="142.92168965132927" y2="145.44649492493687" /><path d="M 25.769776987707644 143.4266507060508 a86.0,86.0 0 0,1 -11.730757126820373,-40.83630448921669" fill="none" id="id129" stroke="none" /><text fill="#e1ed5e" style="font-size:6.75px; font-family:Arial;" text-anchor="middle"><textPath startOffset="21.46611528233685" xlink:href="#id129">September</textPath></text><line stroke="#e1ed5e" stroke-width="0.3" x1="15.007084014347285" x2="10.007500721073583" y1="101.09737516637583" y2="101.16192664675087" /><path d="M 14.007167355692545 101.11028546245083 a86.0,86.0 0 0,1 10.666146001902534,-42.60595125391555" fill="none" id="id130" stroke="none" /><text fill="#e1ed5e" style="font-size:6.75px; font-family:Arial;" text-anchor="middle"><textPath startOffset="22.20632615414155" xlink:href="#id130">October</textPath></text><line stroke="#e1ed5e" stroke-width="0.3" x1="26.266209847984243" x2="21.928928074336255" y1="57.711370442889674" y2="55.22380399835377" /><path d="M 25.398753493254645 57.213857153982495 a86.0,86.0 0 0,1 29.58750427330803,-30.492523968695096" fill="none" id="id131" stroke="none" /><text fill="#e1ed5e" style="font-size:6.75px; font-family:Arial;" text-anchor="middle"><textPath startOffset="21.46611528233685" xlink:href="#id131">November</textPath></text><line stroke="#e1ed5e" stroke-width="0.3" x1="56.76296977257108" x2="54.21961505331056" y1="26.818313649435495" y2="22.513508569990535" /><path d="M 56.25429882871898 25.957352633546506 a86.0,86.0 0 0,1 42.26535254187918,-11.944610805530505" fill="none" id="id132" stroke="none" /><text fill="#e1ed5e" style="font-size:6.75px; font-family:Arial;" text-anchor="middle"><textPath startOffset="22.20632615414155" xlink:href="#id132">December</textPath></text></svg>