<?xml version="1.0" encoding="utf-8" ?>
<svg baseProfile="full" height="200mm" version="1.1" viewBox="0,0,200,200" width="200mm" xmlns="http://www.w3.org/2000/svg" xmlns:ev="http://www.w3.org/2001/xml-events" xmlns:xlink="http://www.w3.org/1999/xlink"><defs /><rect fill="#1a1a1a" height="200" width="200" x="0" y="0" /><rect fill="#1a1a1a" height="200" width="180" x="10" y="0" /><text alignment-baseline="middle" fill="#e1ed5e" style="dominant-baseline: central; font-size:9.0px; font-family:Arial;" text-anchor="middle" x="100.0" y="100.0">2026</text><line stroke="#e1ed5e" stroke-width="0.3" x1="100.0" x2="100.0" y1="15.0" y2="10.0" /><path d="M 100.0 14.0 a86.0,86.0 0 0,1 42.46469731375804,11.215312516191453" fill="none" id="id121" stroke="none" /><text fill="#e1ed5e" style="font-size:6.75px; font-family:Arial;" text-anchor="middle"><textPath startOffset="22.20632615414155" xlink:href="#id121">January</textPath></text><path d="M 101.08401301168833 79.027996857942 l 1.8371179019442065 -35.54204792422023 a56.58949525960169,56.58949525960169 0 0,0 0.9723636917464366,0.0586556332962052 l -2.448643642530255 35.50515902154372" fill="#72ff27" stroke="none" /><path d="M 101.44485096284872 79.0497635885617 l 2.4446437534390824 -35.44716091361819 a56.53135938740833,56.53135938740833 0 0,0 0.9702122158050129,0.07530714080916347 l -3.0544461586064364 35.399828510620566" fill="#73ff27" stroke="none" /><path d="M 101.80526077348638 79.07773832637324 l 1.7005185988229738 -19.708341103946278 a40.78156901194749,40.78156901194749 0 0,0 0.6988696173921447,0.06636609118095177 l -2.0395133433053627 19.67614946825015" fill="#ffbe11" stroke="none" /><path d="M 102.16513564639614 79.11191278185805 l 3.7010935534782656 -35.70619932115447 a56.89750358247228,56.89750358247228 0 0,0 0.9733084654285111,0.10936254676236036 l -4.3151687224165025 35.63720082092151" fill="#6fff28" stroke="none" /><path d="M 102.52436894288641 79.15227682838746 l 0.8831589912207748 -7.293646286282891 a28.346920848435914,28.346920848435914 0 0,0 0.48390255315800695,0.06282443949617621 l -1.0085762728866279 7.2773635236225775" fill="#ff0000" stroke="none" /><path d="M 102.88285421437855 79.19881850522331 l 2.724491189563295 -19.658516005549274 a40.84641286939393,40.84641286939393 0 0,0 0.6956163943006394,0.10251577430740207 l -3.0624765642925897 19.608705747080904" fill="#ffbf11" stroke="none" /><path d="M 103.2404852339499 79.25152402106235 l 1.2906419252532246 -8.263840459129323 a29.36401911243417,29.36401911243417 0 0,0 0.49872800037072085,0.08229439332757317 l -1.4326991317628208 8.240399802862125" fill="#ff1001" stroke="none" /><path d="M 103.59715602781102 79.31037775812273 l 9.875881176304192 -56.802721167405075 a78.65485375083739,78.65485375083739 0 0,0 1.3319071306064558,0.24339751478220123 l -10.85218342801355 56.62430817127213" fill="#46fff4" stroke="none" /><path d="M 104.307194497241 79.44645832069477 l 8.242530567946824 -39.33260865738961 a61.18698065243143,61.18698065243143 0 0,0 1.0289822573563558,0.22489566660175384 l -8.918355549456708 39.18489949269199" fill="#3eff2d" stroke="none" /><path d="M 104.66035177308747 79.52364482259891 l 13.20125279900419 -58.002819156286094 a80.48613372492824,80.48613372492824 0 0,0 1.3482435891617404,0.3190856975512843 l -14.197720075128453 57.76698754659394" fill="#48f6ff" stroke="none" /><path d="M 105.01212808612495 79.60689891045804 l 3.343049385874178 -13.602035483129846 a35.00683220720221,35.00683220720221 0 0,0 0.5839324836894152,0.1488573918915398 l -3.5766907582486183 13.542475095069438" fill="#ff6909" stroke="none" /><path d="M 105.36241919743992 79.69619591428918 l 5.011463762061366 -18.974976528524785 a40.62560835481338,40.62560835481338 0 0,0 0.6745826373759178,0.18438891730159473 l -5.3373442886609945 18.885901070396894" fill="#ffbc11" stroke="none" /><path d="M 105.71112130821622 79.79150937346287 l 17.13336392464865 -60.62547187961136 a84.0,84.0 0 0,0 1.3880391291062915,0.40520668432518603 l -18.174393271478365 60.321566866367476" fill="#4dd2ff" stroke="none" /><line stroke="#e1ed5e" stroke-width="0.3" x1="143.23703022742887" x2="145.7803849466894" y1="26.81831364943548" y2="22.513508569990506" /><path d="M 143.74570117128098 25.957352633546492 a86.0,86.0 0 0,1 28.547481713284135,27.462654790039103" fill="none" id="id122" stroke="none" /><text fill="#e1ed5e" style="font-size:6.75px; font-family:Arial;" text-anchor="middle"><textPath startOffset="19.985693538727396" xlink:href="#id122">February</textPath></text><line stroke="#e1ed5e" stroke-width="0.3" x1="172.23445277983987" x2="176.4835382374775" y1="55.19839476539836" y2="52.563006222186495" /><path d="M 173.08426987136738 54.67131705675599 a86.0,86.0 0 0,1 12.851231095245387,41.99856678651699" fill="none" id="id123" stroke="none" /><text fill="#e1ed5e" style="font-size:6.75px; font-family:Arial;" text-anchor="middle"><textPath startOffset="22.20632615414155" xlink:href="#id123">March</textPath></text><line stroke="#e1ed5e" stroke-width="0.3" x1="184.98032266829074" x2="189.97916517819016" y1="98.17113171792111" y2="98.06355123074" /><path d="M 185.9800911702706 98.14961562048488 a86.0,86.0 0 0,1 -9.607161424134198,41.387399972396054" fill="none" id="id124" stroke="none" /><text fill="#e1ed5e" style="font-size:6.75px; font-family:Arial;" text-anchor="middle"><textPath startOffset="21.466115282336823" xlink:href="#id124">April</textPath></text><line stroke="#e1ed5e" stroke-width="0.3" x1="174.80103733775053" x2="179.2010983576182" y1="140.37084112569926" y2="142.7455964860345" /><path d="M 175.68104954172406 140.8457921977663 a86.0,86.0 0 0,1 -30.038265399797805,32.042727171017184" fill="none" id="id125" stroke="none" /><text fill="#e1ed5e" style="font-size:6.75px; font-family:Arial;" text-anchor="middle"><textPath startOffset="22.206326154141568" xlink:href="#id125">May</textPath></text><line stroke="#e1ed5e" stroke-width="0.3" x1="143.8653032363475" x2="146.44561519142675" y1="172.8068346515853" y2="177.08958963109032" /><path d="M 144.38136562736335 173.6633856474863 a86.0,86.0 0 0,1 -40.68145358897372,12.25698825130547" fill="none" id="id126" stroke="none" /><text fill="#e1ed5e" style="font-size:6.75px; font-family:Arial;" text-anchor="middle"><textPath startOffset="21.466115282336833" xlink:href="#id126">June</textPath></text><line stroke="#e1ed5e" stroke-width="0.3" x1="102.19456741930631" x2="102.32365962044197" y1="184.97166512339345" y2="189.96999836594603" /><path d="M 102.22038585953345 185.97133177190398 a86.0,86.0 0 0,1 -42.740103519485714,-10.115201625700543" fill="none" id="id127" stroke="none" /><text fill="#e1ed5e" style="font-size:6.75px; font-family:Arial;" text-anchor="middle"><textPath startOffset="22.20632615414155" xlink:href="#id127">July</textPath></text><line stroke="#e1ed5e" stroke-width="0.3" x1="58.666819895761336" x2="56.23545636021788" y1="174.27360380694188" y2="178.64263932499728" /><path d="M 58.180547188652646 175.14741091055294 a86.0,86.0 0 0,1 -31.652253787137756,-30.449443065178592" fill="none" id="id128" stroke="none" /><text fill="#e1ed5e" style="font-size:6.75px; font-family:Arial;" text-anchor="middle"><textPath startOffset="22.20632615414155" xlink:href="#id128">August</textPath></text><line stroke="#e1ed5e" stroke-width="0.3" x1="26.63291911575756" x2="22.317208475507996" y1="142.92168965132927" y2="145.44649492493687" /><path d="M 25.769776987707644 143.4266507060508 a86.0,86.0 0 0,1 -11.730757126820373,-40.83630448921669" fill="none" id="id129" stroke="none" /><text fill="#e1ed5e" style="font-size:6.75px; font-family:Arial;" text-anchor="middle"><textPath startOffset="21.46611528233685" xlink:href="#id129">September</textPath></text><line stroke="#e1ed5e" stroke-width="0.3" x1="15.007084014347285" x2="10.007500721073583" y1="101.09737516637583" y2="101.16192664675087" /><path d="M 14.007167355692545 101.11028546245083 a86.0,86.0 0 0,1 10.666146001902534,-42.60595125391555" fill="none" id="id130" stroke="none" /><text fill="#e1ed5e" style="font-size:6.75px; font-family:Arial;" text-anchor="middle"><textPath startOffset="22.20632615414155" xlink:href="#id130">October</textPath></text><line stroke="#e1ed5e" stroke-width="0.3" x1="26.266209847984243" x2="21.928928074336255" y1="57.711370442889674" y2="55.22380399835377" /><path d="M 25.398753493254645 57.213857153982495 a86.0,86.0 0 0,1 29.58750427330803,-30.492523968695096" fill="none" id="id131" stroke="none" /><text fill="#e1ed5e" style="font-size:6.75px; font-family:Arial;" text-anchor="middle"><textPath startOffset="21.46611528233685" xlink:href="#id131">November</textPath></text><line stroke="#e1ed5e" stroke-width="0.3" x1="56.762969772571076" x2="54.21961505331055" y1="26.818313649435495" y2="22.513508569990535" /><path d="M 56.25429882871897 25.957352633546506 a86.0,86.0 0 0,1 42.265352541879196,-11.944610805530505" fill="none" id="id132" stroke="none" /><text fill="#e1ed5e" style="font-size:6.75px; font-family:Arial;" text-anchor="middle"><textPath startOffset="22.20632615414155" xlink:href="#id132">December</textPath></text></svg>