<?xml version="1.0" encoding="utf-8" ?>
<svg baseProfile="full" height="200mm" version="1.1" viewBox="0,0,200,200" width="200mm" xmlns="http://www.w3.org/2000/svg" xmlns:ev="http://www.w3.org/2001/xml-events" xmlns:xlink="http://www.w3.org/1999/xlink"><defs /><rect fill="#1a1a1a" height="200" width="200" x="0" y="0" /><rect fill="#1a1a1a" height="200" width="180" x="10" y="0" /><text alignment-baseline="middle" fill="#e1ed5e" style="dominant-baseline: central; font-size:9.0px; font-family:Arial;" text-anchor="middle" x="100.0" y="100.0">2025</text><line stroke="#e1ed5e" stroke-width="0.3" x1="100.0" x2="100.0" y1="15.0" y2="10.0" /><path d="M 100.0 14.0 a86.0,86.0 0 0,1 42.46469731375804,11.215312516191453" fill="none" id="id109" stroke="none" /><text fill="#e1ed5e" style="font-size:6.75px; font-family:Arial;" text-anchor="middle"><textPath startOffset="22.20632615414155" xlink:href="#id109">January</textPath></text><line stroke="#e1ed5e" stroke-width="0.3" x1="143.23703022742887" x2="145.7803849466894" y1="26.81831364943548" y2="22.513508569990506" /><path d="M 143.74570117128098 25.957352633546492 a86.0,86.0 0 0,1 28.547481713284135,27.462654790039103" fill="none" id="id110" stroke="none" /><text fill="#e1ed5e" style="font-size:6.75px; font-family:Arial;" text-anchor="middle"><textPath startOffset="19.985693538727396" xlink:href="#id110">February</textPath></text><path d="M 113.34407831869373 83.78471172551755 l 0.24586375160955395 -0.29876560324212303 a21.38692359715602,21.38692359715602 0 0,0 0.282248794408714,0.23637524827651074 l -0.25097008297738527 0.2944891975717929" fill="#ff0500" stroke="none" /><line stroke="#e1ed5e" stroke-width="0.3" x1="172.23445277983987" x2="176.4835382374775" y1="55.19839476539836" y2="52.563006222186495" /><path d="M 173.08426987136738 54.67131705675599 a86.0,86.0 0 0,1 12.851231095245387,41.99856678651699" fill="none" id="id111" stroke="none" /><text fill="#e1ed5e" style="font-size:6.75px; font-family:Arial;" text-anchor="middle"><textPath startOffset="22.20632615414155" xlink:href="#id111">March</textPath></text><path d="M 120.91429891909075 98.10471618934814 l 0.09673192809319626 -0.008765986275582291 a21.09712830909684,21.09712830909684 0 0,0 0.029662076345354005,0.36195246269759945 l -0.09686848825804502 0.007099606370214055" fill="#ff0100" stroke="none" /><path d="M 120.98425023603335 99.18683210126433 l 0.1008596305131781 -0.003908446234158155 a21.100935330876855,21.100935330876855 0 0,0 0.010940639578774353,0.36306656439525536 l -0.10091196454759753 0.0021717344139037358" fill="#ff0100" stroke="none" /><line stroke="#e1ed5e" stroke-width="0.3" x1="184.98032266829074" x2="189.97916517819016" y1="98.17113171792111" y2="98.06355123074" /><path d="M 185.9800911702706 98.14961562048488 a86.0,86.0 0 0,1 -9.607161424134198,41.387399972396054" fill="none" id="id112" stroke="none" /><text fill="#e1ed5e" style="font-size:6.75px; font-family:Arial;" text-anchor="middle"><textPath startOffset="21.466115282336823" xlink:href="#id112">April</textPath></text><path d="M 120.89721153311464 102.0752229133903 l 0.0963914955745285 0.009572274269954092 a21.0968656226625,21.0968656226625 0 0,0 -0.03899675090539696,0.3610614810232001 l -0.09621244316807966 -0.011230077177945611" fill="#ff0100" stroke="none" /><path d="M 120.81339534386255 102.79330883721812 l 0.09586513305576265 0.012865797190784413 a21.09672462185583,21.09672462185583 0 0,0 -0.05140161598660408,0.35950278249111883 l -0.09562946605255723 -0.01451405166231259" fill="#ff0100" stroke="none" /><path d="M 120.5718875245553 104.21870165774334 l 0.0951160550341753 0.019505563530410955 a21.097095473292544,21.097095473292544 0 0,0 -0.07601580995756575,0.3551205571555529 l -0.09476620635216647 -0.0211399401021329" fill="#ff0100" stroke="none" /><path d="M 120.49622156327973 104.57218783832717 l 0.09461727698612146 0.0211067177331173 a21.096942883378482,21.096942883378482 0 0,0 -0.08211677008965752,0.3537568963507001 l -0.09423994096591111 -0.02273227143238236" fill="#ff0100" stroke="none" /><path d="M 120.32669344350535 105.2749913415812 l 0.09289240668393017 0.024106559304309064 a21.095969398357106,21.095969398357106 0 0,0 -0.09424064146166099,0.35070448525798287 l -0.09246368888049197 -0.02570197773784017" fill="#ff0100" stroke="none" /><path d="M 120.13307415673323 105.97154293290107 l 0.0942704480131974 0.027960957339759254 a21.09832971323036,21.09832971323036 0 0,0 -0.10626849659514928,0.3472915955270108 l -0.09377517891191542 -0.029579525418827184" fill="#ff0100" stroke="none" /><path d="M 119.9155931802556 106.66101706037122 l 0.09153941036310478 0.030616490736990323 a21.09652374399428,21.09652374399428 0 0,0 -0.11814974416750329,0.3433984612200932 l -0.09099883525237071 -0.032187655046383885" fill="#ff0100" stroke="none" /><path d="M 119.79798401119884 107.00284435728193 l 0.091026149652723 0.03219731656011535 a21.096552716762773,21.096552716762773 0 0,0 -0.12404344937830833,0.3413142981474496 l -0.09045843926918792 -0.033759411713696064" fill="#ff0100" stroke="none" /><path d="M 119.54520255179757 107.68017299344265 l 0.0896050538675877 0.035209781682540235 a21.096274578185238,21.096274578185238 0 0,0 -0.13571674021052885,0.33683781915367106 l -0.08898569939966874 -0.03674696867902484" fill="#ff0100" stroke="none" /><path d="M 119.41010516605496 108.01547362559984 l 0.08875004190185914 0.03664965305697087 a21.096019617822495,21.096019617822495 0 0,0 -0.14149303161514531,0.3344477303723559 l -0.08810602909440259 -0.03817190909549029" fill="#ff0100" stroke="none" /><path d="M 119.12269723197855 108.67885076344098 l 0.1955963365834683 0.0887715469470964 a21.214798311055404,21.214798311055404 0 0,0 -0.1537824191221956,0.3312336496629535 l -0.19403930062144137 -0.09212526388888052" fill="#ff0300" stroke="none" /><line stroke="#e1ed5e" stroke-width="0.3" x1="174.80103733775053" x2="179.2010983576182" y1="140.37084112569926" y2="142.7455964860345" /><path d="M 175.68104954172406 140.8457921977663 a86.0,86.0 0 0,1 -30.038265399797805,32.042727171017184" fill="none" id="id113" stroke="none" /><text fill="#e1ed5e" style="font-size:6.75px; font-family:Arial;" text-anchor="middle"><textPath startOffset="22.206326154141568" xlink:href="#id113">May</textPath></text><path d="M 118.48025628344425 109.97397251340804 l 0.06806006308421413 0.0367326723207246 a21.077339908215933,21.077339908215933 0 0,0 -0.17506596695247914,0.3177955813662686 l -0.06741768668022774 -0.03789877208479946" fill="#ff0100" stroke="none" /><path d="M 118.30583269289576 110.29060199501023 l 0.10311078974793902 0.0579636073642807 a21.118286156168523,21.118286156168523 0 0,0 -0.18086102904141416,0.31534644895521713 l -0.102097764554143 -0.0597299021778118" fill="#ff0100" stroke="none" /><path d="M 117.35343817320211 111.8261652097733 l 0.07999423822552415 0.05451513801719717 a21.096803814089714,21.096803814089714 0 0,0 -0.20708933333403995,0.2983276301200073 l -0.07904399772934802 -0.055884030324224024" fill="#ff0100" stroke="none" /><path d="M 116.27256486870786 113.27417163493432 l 0.07529311073202524 0.061419553884032634 a21.09716693945483,21.09716693945483 0 0,0 -0.2319723922492291,0.2794256900476614 l -0.07422471858925275 -0.06270650104546448" fill="#ff0100" stroke="none" /><path d="M 115.56566222782051 114.09645910891815 l 0.07227854561179833 0.06545635821698365 a21.097512681158847,21.097512681158847 0 0,0 -0.24609102445741032,0.26708320348090503 l -0.07114111315866371 -0.0666908164992235" fill="#ff0100" stroke="none" /><path d="M 114.0293411484842 115.62618273729858 l 0.10119784067570885 0.11271633744464958 a21.151479291272313,21.151479291272313 0 0,0 -0.27301286710653855,0.24090211255976224 l -0.09924262066258262 -0.11444159177670064" fill="#ff0200" stroke="none" /><path d="M 113.20401910651253 116.32954008644616 l 0.060369921758596574 0.07466007504384745 a21.096013823268798,21.096013823268798 0 0,0 -0.2843366022003534,0.22589419326343868 l -0.059075826840892104 -0.07568818231241213" fill="#ff0100" stroke="none" /><path d="M 112.04921762599082 117.19931262002967 l 0.016968437273030778 0.02422111263910559 a21.02957347056003,21.02957347056003 0 0,0 -0.2982625560725507,0.2051477057698898 l -0.016548996577596824 -0.024509607774089524" fill="#ff0000" stroke="none" /><path d="M 111.7513745106137 117.40417183066458 l 0.053927182172686716 0.07986792898390709 a21.096369222562313,21.096369222562313 0 0,0 -0.3027080862610256,0.2006184134063761 l -0.05254439717169699 -0.0807843634816016" fill="#ff0100" stroke="none" /><path d="M 111.1453310114006 117.79835938074945 l 0.06124957150971812 0.09781153063392785 a21.11540626298029,21.11540626298029 0 0,0 -0.3097135395655966,0.19025135202667465 l -0.05955683201181281 -0.09885134948898061" fill="#ff0100" stroke="none" /><line stroke="#e1ed5e" stroke-width="0.3" x1="143.8653032363475" x2="146.44561519142675" y1="172.8068346515853" y2="177.08958963109032" /><path d="M 144.38136562736335 173.6633856474863 a86.0,86.0 0 0,1 -40.68145358897372,12.25698825130547" fill="none" id="id114" stroke="none" /><text fill="#e1ed5e" style="font-size:6.75px; font-family:Arial;" text-anchor="middle"><textPath startOffset="21.466115282336833" xlink:href="#id114">June</textPath></text><path d="M 110.21172684928248 118.3499491758327 l 0.04729095744542999 0.0849794239904763 a21.097251926242407,21.097251926242407 0 0,0 -0.31884697588807265,0.17386079371502083 l -0.04582116968870749 -0.08578086946526763" fill="#ff0100" stroke="none" /><path d="M 109.2508944713604 118.85261126421891 l 0.042725582015330055 0.08707144928160321 a21.09698923980807,21.09698923980807 0 0,0 -0.3273924541232786,0.1571682735858462 l -0.041220459891818724 -0.08779399936700946" fill="#ff0100" stroke="none" /><path d="M 108.59647513512805 119.15986991738527 l 0.07914848536693389 0.17640656896589008 a21.193348804780886,21.193348804780886 0 0,0 -0.3341276011442741,0.14647172123658628 l -0.07610020956490601 -0.1777428434969309" fill="#ff0200" stroke="none" /><path d="M 107.93186726928326 119.44442032107085 l 0.036578892187415515 0.089670607238428 a21.096844375965603,21.096844375965603 0 0,0 -0.33742787561483484,0.13426951542485147 l -0.03502994053071439 -0.09028696706934837" fill="#ff0100" stroke="none" /><path d="M 107.2578585660854 119.70592522655815 l 0.026489971804057284 0.07192333645954983 a21.076646493289996,21.076646493289996 0 0,0 -0.3415224061518323,0.12245778406084828 l -0.02524800502249015 -0.07236866156035825" fill="#ff0100" stroke="none" /><path d="M 105.88484417918355 120.15858648285463 l 0.027264339637202713 0.09339423980308752 a21.0972924881183,21.0972924881183 0 0,0 -0.34948049971415185,0.09876668008557657 l -0.025652671818445133 -0.09384971322718313" fill="#ff0100" stroke="none" /><path d="M 105.18746579009965 120.34920634021253 l 0.024032925431634416 0.09427550529598287 a21.0972905566004,21.0972905566004 0 0,0 -0.3526730738434591,0.08667846105746577 l -0.02240656684496419 -0.09467522466747859" fill="#ff0100" stroke="none" /><path d="M 104.13013068566511 120.58985236759428 l 0.01910288510804608 0.09523320546125617 a21.09713024061474,21.09713024061474 0 0,0 -0.35667449881032776,0.06835751658946113 l -0.017460771726013933 -0.09554792039918543" fill="#ff0100" stroke="none" /><path d="M 103.41894727170886 120.7198165907248 l 0.015793673066926226 0.0957142603363459 a21.097008554987067,21.097008554987067 0 0,0 -0.35881404004693723,0.05603937367189375 l -0.014143769411471874 -0.09597194135534542" fill="#ff0100" stroke="none" /><path d="M 102.70371172650421 120.8252237178851 l 0.012454362175774777 0.09592919098273259 a21.09673427944533,21.09673427944533 0 0,0 -0.3605256855268965,0.04365463970166959 l -0.010801253597497966 -0.09612935940975312" fill="#ff0100" stroke="none" /><path d="M 101.62511606390274 120.93702456842531 l 1.7467711286258845 22.50435574898428 a43.572045477817085,43.572045477817085 0 0,0 -0.7482715327778499,0.05160518589738198 l -1.3591368350691042 -22.531089279397946" fill="#daff1c" stroke="none" /><path d="M 100.90346689309514 120.98055641714683 l 0.9777744998242932 22.706148076474996 a43.727190839241786,43.727190839241786 0 0,0 -0.7522735299360304,0.025909821422540516 l -0.5867806182136106 -22.719614696323628" fill="#d8ff1c" stroke="none" /><line stroke="#e1ed5e" stroke-width="0.3" x1="102.19456741930631" x2="102.32365962044197" y1="184.97166512339345" y2="189.96999836594603" /><path d="M 102.22038585953345 185.97133177190398 a86.0,86.0 0 0,1 -42.740103519485714,-10.115201625700543" fill="none" id="id115" stroke="none" /><text fill="#e1ed5e" style="font-size:6.75px; font-family:Arial;" text-anchor="middle"><textPath startOffset="22.20632615414155" xlink:href="#id115">July</textPath></text><path d="M 100.54218724476979 120.99299961872073 l 0.0024918930396976547 0.09648384416434734 a21.09651601792268,21.09651601792268 0 0,0 -0.3631014900810606,0.006251121440576003 l -0.0008307130659691412 -0.09651244288408299" fill="#ff0100" stroke="none" /><path d="M 99.09653310690486 120.98055641714683 l -0.004179590825644514 0.09705960648719648 a21.09714955579373,21.09714955579373 0 0,0 -0.36268203390983805,-0.018746518451325595 l 0.005849693148971483 -0.096973281273669" fill="#ff0100" stroke="none" /><path d="M 98.37488393609728 120.93702456842531 l -0.007473369544394967 0.09628242882797906 a21.09657203194177,21.09657203194177 0 0,0 -0.36181191873708085,-0.03121865477379179 l 0.009129606023017503 -0.09613952177552386" fill="#ff0100" stroke="none" /><path d="M 97.2962882734958 120.8252237178851 l -0.012401393461597065 0.09552120173151739 a21.096322866132724,21.096322866132724 0 0,0 -0.3597138118787436,-0.049853056606672906 l 0.014043796527171665 -0.09529357963223957" fill="#ff0100" stroke="none" /><path d="M 96.22490169976321 120.6578951692458 l -0.017494452296686117 0.09573222545374366 a21.097317597850992,21.097317597850992 0 0,0 -0.3566776663287426,-0.06835812365190228 l 0.019139733197123747 -0.09541690345337324" fill="#ff0100" stroke="none" /><path d="M 94.81253420990036 120.34920634021253 l -0.015157871908627751 0.059460760924122176 a21.061362392150844,21.061362392150844 0 0,0 -0.3505308306413045,-0.09257837829751117 l 0.016179145361421527 -0.05919103332302937" fill="#ff0100" stroke="none" /><path d="M 93.76903079525671 120.05430185196036 l -0.028717201533771317 0.09242597884506083 a21.09678449891072,21.09678449891072 0 0,0 -0.3458653614376801,-0.11073516666421701 l 0.030303908062391766 -0.09191796552113725" fill="#ff0100" stroke="none" /><path d="M 93.08242187328487 119.8279376855182 l -0.03197389235409526 0.0916471536059856 a21.097064569006154,21.097064569006154 0 0,0 -0.3418532571887829,-0.12257641547158209 l 0.03354671017260479 -0.09108319709444572" fill="#ff0100" stroke="none" /><path d="M 92.06813273071674 119.44442032107085 l -18.326576510397388 44.926326250367424 a69.52049254640664,69.52049254640664 0 0,0 -1.10414611495336,-0.4615331655994075 l 19.09719408484821 -44.604208041748045" fill="#3bff9e" stroke="none" /><path d="M 91.7346041902142 119.30500536409082 l -0.022452534307904726 0.05244108149525716 a21.057045449645347,21.057045449645347 0 0,0 -0.33197868576999134,-0.1455296998873 l 0.023351894735639356 -0.052046828313504954" fill="#ff0100" stroke="none" /><path d="M 91.07499286063937 119.00905698771935 l -0.022634558899850055 0.048208546312710605 a21.053257743044327,21.053257743044327 0 0,0 -0.3267138093230458,-0.15684248284056002 l 0.02346103622313788 -0.04781178697258822" fill="#ff0000" stroke="none" /><path d="M 90.7491055286396 118.85261126421891 l -0.02817996078316169 0.05742859220052868 a21.06396994131524,21.06396994131524 0 0,0 -0.3241304559630387,-0.1625257394577557 l 0.029164324428960865 -0.05693501183347089" fill="#ff0100" stroke="none" /><path d="M 90.10565033884886 118.52300852407294 l -29.683048983453403 55.569025572218784 a84.0,84.0 0 0,0 -1.2695087525254378,-0.6922373929609367 l 30.635180547847483 -55.04984752749809" fill="#4dd2ff" stroke="none" /><line stroke="#e1ed5e" stroke-width="0.3" x1="58.666819895761336" x2="56.23545636021788" y1="174.27360380694188" y2="178.64263932499728" /><path d="M 58.180547188652646 175.14741091055294 a86.0,86.0 0 0,1 -31.652253787137756,-30.449443065178592" fill="none" id="id116" stroke="none" /><text fill="#e1ed5e" style="font-size:6.75px; font-family:Arial;" text-anchor="middle"><textPath startOffset="22.20632615414155" xlink:href="#id116">August</textPath></text><path d="M 89.7882731507175 118.34994917583269 l -13.666675497916222 24.558314621094805 a49.10496106017624,49.10496106017624 0 0,0 -0.7350573837882144,-0.41738476633425114 l 14.087381648625644 -24.319426688965923" fill="#9cff22" stroke="none" /><path d="M 89.4739219176387 118.17145234162733 l -0.062286414993257704 0.10752671723739511 a21.124264204067636,21.124264204067636 0 0,0 -0.3130737962471862,-0.18496951719466656 l 0.06412808226882598 -0.10643862774897903" fill="#ff0100" stroke="none" /><path d="M 88.24862548938628 117.40417183066458 l -0.03224303552389037 0.04775299520010818 a21.057619110461516,21.057619110461516 0 0,0 -0.298660327537351,-0.20542129661045508 l 0.03306024768413397 -0.0471909092245543" fill="#ff0100" stroke="none" /><path d="M 87.95078237400918 117.19931262002967 l -0.03282197363190217 0.046850791713128816 a21.05720383411311,21.05720383411311 0 0,0 -0.29507426858548463,-0.21052765592799783 l 0.03362357006627142 -0.04627887394091172" fill="#ff0100" stroke="none" /><path d="M 87.65650970185807 116.9893568818739 l -0.03367465936438741 0.046349192327168144 a21.05729075241859,21.05729075241859 0 0,0 -0.2914078654723343,-0.21557657229828858 l 0.034467495255286064 -0.04576267128911052" fill="#ff0100" stroke="none" /><path d="M 87.36589467227662 116.77436683061367 l -0.03457788978174284 0.04590924267147935 a21.057474246619048,21.057474246619048 0 0,0 -0.2876564005639649,-0.22056266165426663 l 0.035363018839194515 -0.045307239189845916" fill="#ff0100" stroke="none" /><path d="M 86.79598089348748 116.32954008644616 l -21.687685025844235 26.821373034598743 a55.49263302853711,55.49263302853711 0 0,0 -0.7376024535224914,-0.6069966035296287 l 22.146157607911416 -26.44408131221193" fill="#59ff2a" stroke="none" /><path d="M 86.24171649860922 115.8653595955263 l -0.026169428056131844 0.03017726640665723 a21.03994379016272,21.03994379016272 0 0,0 -0.2715732218447218,-0.23963179300089338 l 0.026685002807441363 -0.029722331633475024" fill="#ff0000" stroke="none" /><path d="M 85.70375840098266 115.38237550388516 l -0.06562006839868106 0.0706054472924214 a21.09639046925921,21.09639046925921 0 0,0 -0.26386979999874005,-0.2495053658212998 l 0.06682570278823573 -0.06946544472519312" fill="#ff0100" stroke="none" /><path d="M 85.44109423537348 115.13401014063109 l -0.06812327624931737 0.07081427479770695 a21.098262110103875,21.098262110103875 0 0,0 -0.25955890575872914,-0.25403301919297205 l 0.06933213438384074 -0.06963115268216524" fill="#ff0100" stroke="none" /><path d="M 84.9287848128048 114.62390073753433 l -0.06939900741450473 0.0673392412693697 a21.096699512123138,21.096699512123138 0 0,0 -0.2506423007524508,-0.2627974502842312 l 0.07054785954591303 -0.06613467440263841" fill="#ff0100" stroke="none" /><path d="M 83.28015986056508 112.70617746262583 l -0.07191869337753522 0.05465433122053881 a21.090329366090415,21.090329366090415 0 0,0 -0.2171688622431829,-0.290933180203003 l 0.07284882231580318 -0.05340827150823013" fill="#ff0100" stroke="none" /><line stroke="#e1ed5e" stroke-width="0.3" x1="26.63291911575756" x2="22.317208475507996" y1="142.92168965132927" y2="145.44649492493687" /><path d="M 25.769776987707644 143.4266507060508 a86.0,86.0 0 0,1 -11.730757126820373,-40.83630448921669" fill="none" id="id117" stroke="none" /><text fill="#e1ed5e" style="font-size:6.75px; font-family:Arial;" text-anchor="middle"><textPath startOffset="21.46611528233685" xlink:href="#id117">September</textPath></text><path d="M 80.45479744820244 107.68017299344265 l -0.0889470920323511 0.03495123942879241 a21.095567642634002,21.095567642634002 0 0,0 -0.12989417006736423,-0.3391126895442969 l 0.08953554169322442 -0.03341498305133766" fill="#ff0100" stroke="none" /><path d="M 79.76711848015287 105.62410040840567 l -0.0918867910913191 0.025541618419346095 a21.095370627808247,21.095370627808247 0 0,0 -0.09423796661323622,-0.35069453115191823 l 0.09231283404632788 -0.023956154091888945" fill="#ff0100" stroke="none" /><path d="M 79.67330655649465 105.27499134158121 l -0.09283444942017166 0.024091518783067516 a21.09590952130222,21.09590952130222 0 0,0 -0.0881896271726397,-0.3522737224624849 l 0.09323539088787224 -0.02248995692319076" fill="#ff0100" stroke="none" /><path d="M 79.4281124754447 104.21870165774334 l -0.5271770784637052 0.10810883601149775 a21.53814792806559,21.53814792806559 0 0,0 -0.07135287594931114,-0.363826777231478 l 0.5289598873886828 -0.0990183317120649" fill="#ff0701" stroke="none" /><path d="M 79.35854240842038 103.8639653848113 l -0.7001930277310917 0.13107221763945737 a21.712355390461923,21.712355390461923 0 0,0 -0.0656060092724144,-0.3679533409943824 l 0.7023454793426948 -0.11900012591186124" fill="#ff0a01" stroke="none" /><path d="M 79.07016306316243 101.71520430193888 l -0.17874031454835645 0.014647804345941182 a21.17933950545544,21.17933950545544 0 0,0 -0.026649096902406036,-0.3636057544272428 l 0.17896597011509782 -0.011568913421937731" fill="#ff0200" stroke="none" /><path d="M 79.0235259727143 100.99374915477108 l -1.2118176321297331 0.05740920738629199 a22.213176735118687,22.213176735118687 0 0,0 -0.014806528423380339,-0.3820907072773434 l 1.2126262934043144 -0.036541253094951834" fill="#ff1101" stroke="none" /><path d="M 79.0095281055655 100.63252640178507 l -35.84812631215079 1.0802466214670352 a56.86439868246934,56.86439868246934 0 0,0 -0.021061320400332914,-0.9786368001340381 l 35.86140969523613 -0.46302000554286815" fill="#4bff2c" stroke="none" /><line stroke="#e1ed5e" stroke-width="0.3" x1="15.007084014347285" x2="10.007500721073583" y1="101.09737516637583" y2="101.16192664675087" /><path d="M 14.007167355692545 101.11028546245083 a86.0,86.0 0 0,1 10.666146001902534,-42.60595125391555" fill="none" id="id118" stroke="none" /><text fill="#e1ed5e" style="font-size:6.75px; font-family:Arial;" text-anchor="middle"><textPath startOffset="22.20632615414155" xlink:href="#id118">October</textPath></text><path d="M 79.00019446554 99.90962569577889 l -0.412429334815582 -0.0017749218731180091 a21.412433154055392,21.412433154055392 0 0,0 0.004758651101065146,-0.36856277199499393 l 0.4123376765968013 0.008873951928583914" fill="#ff0600" stroke="none" /><path d="M 79.00486145842228 99.54816195383935 l -0.12245885205400062 -0.00263544669341332 a21.12248720760005,21.12248720760005 0 0,0 0.010951814027289421,-0.36343738993997937 l 0.12239534357106613 0.004742984058387116" fill="#ff0100" stroke="none" /><path d="M 79.03285615573316 98.82574320788736 l -0.3435461143924567 -0.019240167436517904 a21.344084461661872,21.344084461661872 0 0,0 0.02370149691418299,-0.36665166673155497 l 0.3431640264738606 0.025150898421084682" fill="#ff0500" stroke="none" /><path d="M 79.05617556472873 98.46500227214037 l -0.4084268732641042 -0.02993408985043825 a21.40952235658077,21.40952235658077 0 0,0 0.030101295178860215,-0.36731204496690373 l 0.4078510942657469 0.036960052025120385" fill="#ff0600" stroke="none" /><path d="M 79.12142395522702 97.74499172005258 l -34.82727298015168 -3.76154910037042 a56.02981865309184,56.02981865309184 0 0,0 0.11181856766780991,-0.9579932013292898 l 34.75736405948028 4.360486040024572" fill="#54ff2b" stroke="none" /><path d="M 79.32604984820605 96.31383870115002 l -1.1616439431235521 -0.20712088956129976 a22.1799642848359,22.1799642848359 0 0,0 0.07025163181480876,-0.3752870262618746 l 1.1579065873988819 0.22708599328574702" fill="#ff1101" stroke="none" /><path d="M 79.46518482838121 95.60439243477599 l -0.24820388242141966 -0.05312961690531527 a21.25382656173374,21.25382656173374 0 0,0 0.07965692609969666,-0.35708638055136166 l 0.24725256931968542 0.057394167006636125" fill="#ff0300" stroke="none" /><path d="M 79.81627453868168 94.20196356495316 l -0.8796793701666908 -0.2526992873124621 a21.91525555125609,21.91525555125609 0 0,0 0.1072742397123359,-0.36167540742881593 l 0.8751992333426479 0.26780408148781726" fill="#ff0d01" stroke="none" /><path d="M 79.91906864156998 93.8553929516997 l -0.1872196024669625 -0.05728772577152117 a21.19578831188802,21.19578831188802 0 0,0 0.10975836886322961,-0.347964023475445 l 0.18620574983552904 0.0605019156733806" fill="#ff0300" stroke="none" /><path d="M 80.14247586403 93.16781622104843 l -0.2213494738948852 -0.0761575448514607 a21.234084517282422,21.234084517282422 0 0,0 0.12189064144678659,-0.34460125734037134 l 0.22000575163828906 0.07995642861844311" fill="#ff0300" stroke="none" /><path d="M 80.52162464483688 92.15188598940014 l -0.5799021876100803 -0.2336508256143553 a21.625203371316267,21.625203371316267 0 0,0 0.14208614675795403,-0.3440728745464547 l 0.5757943539659242 0.2435982706141213" fill="#ff0901" stroke="none" /><path d="M 80.803312248108 91.48605970444005 l -1.0931008544240626 -0.4848021456552982 a22.195785347951126,22.195785347951126 0 0,0 0.15790470972203266,-0.34792209681005465 l 1.0845938277386782 0.5035462513074238" fill="#ff1101" stroke="none" /><path d="M 81.26839172434947 90.50648371742162 l -0.6617729214080689 -0.33539842987874885 a21.74191340887876,21.74191340887876 0 0,0 0.17206194826691804,-0.332368917833517 l 0.6559015399810368 0.3467400699726013" fill="#ff0a01" stroke="none" /><line stroke="#e1ed5e" stroke-width="0.3" x1="26.266209847984243" x2="21.928928074336255" y1="57.711370442889674" y2="55.22380399835377" /><path d="M 25.398753493254645 57.213857153982495 a86.0,86.0 0 0,1 29.58750427330803,-30.492523968695096" fill="none" id="id119" stroke="none" /><text fill="#e1ed5e" style="font-size:6.75px; font-family:Arial;" text-anchor="middle"><textPath startOffset="21.46611528233685" xlink:href="#id119">November</textPath></text><path d="M 81.78341655067845 89.55222093294921 l -1.2704820274858906 -0.7286610888786446 a22.46460628313908,22.46460628313908 0 0,0 0.19527126399144015,-0.3337818882715957 l 1.257751089024128 0.7504223895041321" fill="#ff1502" stroke="none" /><path d="M 81.96595687620814 89.24020034530311 l -0.6629912260905889 -0.39556591478620445 a21.77202963596856,21.77202963596856 0 0,0 0.1947914479925109,-0.3201859235370352 l 0.6560839798118587 0.4069196115303141" fill="#ff0b01" stroke="none" /><path d="M 82.34701348167596 88.62581576622439 l -0.14437831535832357 -0.09302593397117902 a21.171752503146003,21.171752503146003 0 0,0 0.2000260443806448,-0.30465338858982544 l 0.14275563561975851 0.09549738653867144" fill="#ff0200" stroke="none" /><path d="M 82.54541684631803 88.32363383020206 l -0.3367579131420859 -0.2252765746281683 a21.405160989163583,21.405160989163583 0 0,0 0.20750319456264812,-0.3044853334713299 l 0.33283025291069745 0.231039931369914" fill="#ff0600" stroke="none" /><path d="M 83.17141714833178 87.43820079747577 l -0.9538150852704496 -0.711981138466343 a22.190243823097312,22.190243823097312 0 0,0 0.23112096268593982,-0.30412809519997475 l 0.9414181823604009 0.7282940095473421" fill="#ff1101" stroke="none" /><path d="M 83.39014120810768 87.1503855733568 l -1.1514911593099943 -0.8908093439087036 a22.455841054910916,22.455841054910916 0 0,0 0.23915034375053348,-0.3036966504655294 l 1.1359867349654897 0.9104983883272807" fill="#ff1502" stroke="none" /><path d="M 83.84228863543731 86.58626213691792 l -0.1850584257188973 -0.15363099116822967 a21.24051840340583,21.24051840340583 0 0,0 0.23596130988314257,-0.2793037648732657 l 0.18238650234863052 0.1567937056706113" fill="#ff0300" stroke="none" /><path d="M 84.07557802195018 86.31012108654704 l -0.5689744694703464 -0.4891349653150227 a21.750323237813404,21.750323237813404 0 0,0 0.24651209049578535,-0.28180593336031723 l 0.5604705153967174 0.498856454878283" fill="#ff0a01" stroke="none" /><path d="M 84.5562425177563 85.77008943001954 l -0.08613168825663946 -0.07936191840247361 a21.117119519357193,21.117119519357193 0 0,0 0.2486115243352661,-0.2652014402236182 l 0.0847528419509151 0.08083277550414193" fill="#ff0100" stroke="none" /><path d="M 84.80347519578584 85.50635884689758 l -0.12497815428196508 -0.1191975496685633 a21.172706672988383,21.172706672988383 0 0,0 0.2538060430344156,-0.26156943752800027 l 0.12290784754443573 0.12133118274668725" fill="#ff0200" stroke="none" /><path d="M 85.83668400450813 84.49514656593479 l -0.2042372937733553 -0.22358247932432865 a21.302823376291656,21.302823376291656 0 0,0 0.27286787720981653,-0.2449834743517816 l 0.2003584289675674 0.22706496244538904" fill="#ff0400" stroke="none" /><path d="M 86.10567301691215 84.25364557470407 l -0.16497429718255557 -0.18696434578390098 a21.249343508688877,21.249343508688877 0 0,0 0.2763489279479934,-0.23964706712894276 l 0.16173157058778867 0.1897764063325243" fill="#ff0300" stroke="none" /><path d="M 86.65592168130627 83.78471172551755 l -0.8630128078022831 -1.0487049857523938 a22.35815067410531,22.35815067410531 0 0,0 0.29927619851780124,-0.24199387260351762 l 0.8448332107199814 1.0634049556200482" fill="#ff1302" stroke="none" /><path d="M 86.93701828274178 83.55741782278169 l -1.1045686718916945 -1.3903380982280102 a22.775700419076614,22.775700419076614 0 0,0 0.3090634834704124,-0.2412289511324008 l 1.0804726332618564 1.4091454385836306" fill="#ff1902" stroke="none" /><path d="M 88.39885842347998 82.49532879139004 l -0.3389085623821845 -0.5113706194474676 a21.61348098918389,21.61348098918389 0 0,0 0.3118855917765315,-0.20285906455359917 l 0.3300559448213658 0.5171286081606018" fill="#ff0901" stroke="none" /><path d="M 89.00827224532344 82.1063720568725 l -0.7976037357216968 -1.2984332228370956 a22.52384400560042,22.52384400560042 0 0,0 0.3321065008919121,-0.2000904508223768 l 0.7751351686121378 1.3119702831180917" fill="#ff1502" stroke="none" /><line stroke="#e1ed5e" stroke-width="0.3" x1="56.76296977257108" x2="54.21961505331056" y1="26.818313649435495" y2="22.513508569990535" /><path d="M 56.25429882871898 25.957352633546506 a86.0,86.0 0 0,1 42.26535254187918,-11.944610805530505" fill="none" id="id120" stroke="none" /><text fill="#e1ed5e" style="font-size:6.75px; font-family:Arial;" text-anchor="middle"><textPath startOffset="22.20632615414155" xlink:href="#id120">December</textPath></text><path d="M 89.63071344664047 81.73862282372117 l -0.010373789881882582 -0.018269307999704824 a21.02100912019342,21.02100912019342 0 0,0 0.3161919240221873,-0.1759604633846159 l 0.010057776787649672 0.018445168944505323" fill="#ff0000" stroke="none" /><path d="M 89.94658935756843 81.56283822128135 l -0.017817716366757736 -0.03267628577656315 a21.037218418406454,21.037218418406454 0 0,0 0.31942006190356514,-0.1706231348516114 l 0.017252607934887268 0.03297814712992401" fill="#ff0000" stroke="none" /><path d="M 90.26544431104013 81.39251694778311 l -0.025934871630180278 -0.049574187023995915 a21.055948347478402,21.055948347478402 0 0,0 0.32259669307970845,-0.16524655591896403 l 0.025077690961708105 0.05001326825546515" fill="#ff0100" stroke="none" /><path d="M 90.91171255644093 81.06846463323043 l -0.369109442728712 -0.7688806623495964 a21.852888769797477,21.852888769797477 0 0,0 0.34051149292970617,-0.1598747116911342 l 0.3558197384993974 0.7751203566807382" fill="#ff0c01" stroke="none" /><path d="M 91.23893434514133 80.91482961587045 l -0.08525704082016052 -0.18572456988689232 a21.20435845680833,21.20435845680833 0 0,0 0.3330274564521743,-0.14941971219274006 l 0.08204746590121183 0.1871646125961613" fill="#ff0300" stroke="none" /><path d="M 93.25333710446033 80.11325718540243 l -0.09121041348138516 -0.26885559023804134 a21.28390608998345,21.28390608998345 0 0,0 0.3479585985938436,-0.11471647921625895 l 0.08656899264513228 0.27038579371353416" fill="#ff0400" stroke="none" /><path d="M 93.94186890950719 79.89281104454417 l -0.4951030267994316 -1.643267529799271 a22.71623284598523,22.71623284598523 0 0,0 0.37536928638235234,-0.10958058799858313 l 0.46674352269365793 1.6515464467165528" fill="#ff1802" stroke="none" /><path d="M 94.28887869178378 79.79150937346287 l -0.05647152174990389 -0.19982139344640462 a21.207647831791263,21.207647831791263 0 0,0 0.3521500744545504,-0.09625591789455855 l 0.053023558071631 0.20076385216725912" fill="#ff0300" stroke="none" /><path d="M 94.63758080256005 79.69619591428918 l -0.05180777210217339 -0.19616050445699285 a21.20288664016887,21.20288664016887 0 0,0 0.3536753678224158,-0.09015972616849138 l 0.04842351559475814 0.19702322679434742" fill="#ff0300" stroke="none" /><path d="M 94.98787191387505 79.60689891045804 l -0.03967602693890782 -0.16143187370578432 a21.166236088024885,21.166236088024885 0 0,0 0.35456097580599766,-0.08391312756759482 l 0.036891364170376126 0.1620909134142501" fill="#ff0200" stroke="none" /><path d="M 95.692805502759 79.44645832069477 l -0.07139966746636948 -0.3407127405318202 a21.348113608000336,21.348113608000336 0 0,0 0.36030897891366875,-0.0722745915591947 l 0.0655242790855643 0.34189128816822556" fill="#ff0500" stroke="none" /><path d="M 96.40284397218896 79.31037775812273 l -0.04345922934547658 -0.2499627570028364 a21.253712602177664,21.253712602177664 0 0,0 0.3609799307768894,-0.05956478157358573 l 0.0391500924297015 0.2506738015160491" fill="#ff0300" stroke="none" /><path d="M 96.75951476605007 79.25152402106235 l -0.019953271981049885 -0.12775863937370477 a21.129307397303364,21.129307397303364 0 0,0 0.3598331308254331,-0.053030049795063254 l 0.01775116072696798 0.12808317332973698" fill="#ff0200" stroke="none" /><path d="M 97.47563105711357 79.15227682838746 l -0.02925123566170285 -0.24157390512240112 a21.243338419539175,21.243338419539175 0 0,0 0.36339592804331977,-0.040831766686004856 l 0.025088604108665088 0.24204162527900447" fill="#ff0300" stroke="none" /><path d="M 97.83486435360386 79.11191278185805 l -0.01234067856782168 -0.11905636059559417 a21.119694232717297,21.119694232717297 0 0,0 0.3619260608520098,-0.03436924049566645 l 0.010289490625575541 0.11925114560644116" fill="#ff0100" stroke="none" /><path d="M 98.19473922651362 79.07773832637324 l -0.03729282408176668 -0.4322091497509285 a21.43381505720343,21.43381505720343 0 0,0 0.36785510600044946,-0.028552636025059867 l 0.029847528718983062 0.43278704796445056" fill="#ff0601" stroke="none" /></svg>