<?xml version="1.0" encoding="utf-8" ?>
<svg baseProfile="full" height="200mm" version="1.1" viewBox="0,0,200,200" width="200mm" xmlns="http://www.w3.org/2000/svg" xmlns:ev="http://www.w3.org/2001/xml-events" xmlns:xlink="http://www.w3.org/1999/xlink"><defs /><rect fill="#1a1a1a" height="200" width="200" x="0" y="0" /><rect fill="#1a1a1a" height="200" width="180" x="10" y="0" /><text alignment-baseline="middle" fill="#e1ed5e" style="dominant-baseline: central; font-size:9.0px; font-family:Arial;" text-anchor="middle" x="100.0" y="100.0">2026</text><line stroke="#e1ed5e" stroke-width="0.3" x1="100.0" x2="100.0" y1="15.0" y2="10.0" /><path d="M 100.0 14.0 a86.0,86.0 0 0,1 42.46469731375804,11.215312516191453" fill="none" id="id121" stroke="none" /><text fill="#e1ed5e" style="font-size:6.75px; font-family:Arial;" text-anchor="middle"><textPath startOffset="22.20632615414155" xlink:href="#id121">January</textPath></text><path d="M 101.08401301168833 79.027996857942 l 0.9181414343595387 -17.762946420958713 a38.786659305427136,38.786659305427136 0 0,0 0.6664618417203014,0.040202798320912114 l -1.223765324919452 17.744510353257496" fill="#ffdd14" stroke="none" /><path d="M 101.44485096284872 79.0497635885617 l 1.2217662894173966 -17.715524480361413 a38.75760458170643,38.75760458170643 0 0,0 0.665172425145813,0.05163018220840017 l -1.5265289039255507 17.691869035964547" fill="#ffdd14" stroke="none" /><path d="M 101.80526077348638 79.07773832637324 l 0.8498728273379026 -9.84969149278577 a30.886288804485922,30.886288804485922 0 0,0 0.529295202769923,0.05026295723048827 l -1.01929315719807 9.833602991040102" fill="#ff750a" stroke="none" /><path d="M 102.16513564639614 79.11191278185805 l 1.8497056396288816 -17.844984813200078 a38.940593466678195,38.940593466678195 0 0,0 0.6661313218248792,0.07484761555101982 l -2.156603664963486 17.810501244178457" fill="#ffdf14" stroke="none" /><path d="M 102.52436894288641 79.15227682838746 l 0.44137878255327767 -3.645165536687625 a24.67179071020441,24.67179071020441 0 0,0 0.4211654090926299,0.05467935762839942 l -0.5040589201537536 3.637027855895089" fill="#ff1e03" stroke="none" /><path d="M 102.88285421437855 79.19881850522331 l 1.3616264073406976 -9.824790267197082 a30.91869599632825,30.91869599632825 0 0,0 0.5265468939515862,0.07759932483603164 l -1.5305422817209395 9.799896458200083" fill="#ff760a" stroke="none" /><path d="M 103.2404852339499 79.25152402106235 l 0.6450276420704877 -4.130042129813082 a25.180108689145055,25.180108689145055 0 0,0 0.4276671121746083,0.07056873790202929 l -0.7160239603839711 4.118327128971427" fill="#ff2503" stroke="none" /><path d="M 103.59715602781102 79.31037775812273 l 4.935696124445955 -28.388451189209594 a49.814323819152975,49.814323819152975 0 0,0 0.8435341232881322,0.15415046929648077 l -5.423625368836987 28.299285238562376" fill="#9eff22" stroke="none" /><path d="M 104.307194497241 79.44645832069477 l 4.119392027260794 -19.657365317479154 a41.084357144282514,41.084357144282514 0 0,0 0.690916173760874,0.1510075148070046 l -4.4571509251751955 19.58354430457628" fill="#fffa17" stroke="none" /><path d="M 104.66035177308747 79.52364482259891 l 6.597626187950938 -28.98822744075943 a50.72954761635525,50.72954761635525 0 0,0 0.8497834867876454,0.20111629591933464 l -7.095633361701107 28.87036523269923" fill="#94ff23" stroke="none" /><path d="M 105.01212808612495 79.60689891045804 l 1.6707649275166174 -6.797926445261681 a28.00023281028622,28.00023281028622 0 0,0 0.4670586984853897,0.11906366173965337 l -1.7875325146870322 6.76815978735316" fill="#ff4d07" stroke="none" /><path d="M 105.36241919743992 79.69619591428918 l 2.5045929397729063 -9.48317587477705 a30.808343920658256,30.808343920658256 0 0,0 0.5115683121264472,0.13983094430910312 l -2.667459141123064 9.438658389641654" fill="#ff740a" stroke="none" /><path d="M 105.71112130821622 79.79150937346287 l 8.562788110949796 -30.29895775952258 a52.48568216739724,52.48568216739724 0 0,0 0.867287863883139,0.253185110066626 l -9.083066192556362 30.14707432053725" fill="#80ff25" stroke="none" /><path d="M 106.0581310904928 79.89281104454417 l 1.5611463350790635 -5.1815095906085284 a26.411581979153503,26.411581979153503 0 0,0 0.4341744966216089,0.13490012955348835 l -1.6501062044113908 5.1538693261725195" fill="#ff3705" stroke="none" /><path d="M 106.40334571778207 80.00007090966166 l 0.9655044382333294 -3.015614204219785 a24.16640614087018,24.16640614087018 0 0,0 0.395082969182241,0.13025264329161046 l -1.0172702296579879 2.9985478366689384" fill="#ff1602" stroke="none" /><path d="M 107.08798089147638 80.2323363322302 l 4.475644306105357 -12.482120464807187 a34.260268596553075,34.260268596553075 0 0,0 0.5534137443680748,0.20382695250147312 l -4.689840376246009 12.403230244499388" fill="#ffa30f" stroke="none" /><path d="M 107.76421540070413 80.48803036053334 l 3.523920987090639 -8.855838711759107 a30.53120655593766,30.53120655593766 0 0,0 0.48663272929529094,0.19850970889970582 l -3.675837585974317 8.79386811667582" fill="#ff700a" stroke="none" /><path d="M 108.09893153111575 80.62456947434976 l 6.3640965131459835 -15.22510832141898 a37.501686211644504,37.501686211644504 0 0,0 0.5934485446847834,0.25408369601828945 l -6.625228815621083 15.1133050974379" fill="#ffcd13" stroke="none" /><path d="M 108.43124777332544 80.76684994638697 l 8.91372397408718 -20.333762610144245 a43.20172013542907,43.20172013542907 0 0,0 0.6785095149361077,0.30442744127419574 l -9.262415607490068 20.177314838353517" fill="#eaff1a" stroke="none" /><path d="M 108.76106565485865 80.91482961587045 l 6.286251236818633 -13.694016305607107 a36.06794734496498,36.06794734496498 0 0,0 0.5620103926176836,0.2638714150706264 l -6.521039840735915 13.583779907896478" fill="#ffba11" stroke="none" /><path d="M 109.08828744355905 81.06846463323043 l 4.936028775710839 -10.282091529244974 a32.40551560826676,32.40551560826676 0 0,0 0.5007867105821184,0.24573386398984015 l -5.1122867533033896 10.195602505120302" fill="#ff8a0c" stroke="none" /><path d="M 109.41281617654863 81.2277094730956 l 4.817825147189737 -9.608347987948672 a31.748571542600956,31.748571542600956 0 0,0 0.4864176156128544,0.24916199527959393 l -4.982503250391346 9.523993467356577" fill="#ff810b" stroke="none" /><path d="M 109.73455568895987 81.39251694778311 l 8.091290529521915 -15.46640198169427 a38.45504433373022,38.45504433373022 0 0,0 0.5838848272277753,0.31189105349297314 l -8.356320403278001 15.324832201699543" fill="#ffd914" stroke="none" /><path d="M 110.05341064243156 81.56283822128135 l 1.6476714635709853 -3.0216994423584946 a24.44172758535823,24.44172758535823 0 0,0 0.3676453793180095,0.20459425554926572 l -1.6994409319610297 2.992889789249049" fill="#ff1a02" stroke="none" /><line stroke="#e1ed5e" stroke-width="0.3" x1="143.23703022742887" x2="145.7803849466894" y1="26.81831364943548" y2="22.513508569990506" /><path d="M 143.74570117128098 25.957352633546492 a86.0,86.0 0 0,1 28.547481713284135,27.462654790039103" fill="none" id="id122" stroke="none" /><text fill="#e1ed5e" style="font-size:6.75px; font-family:Arial;" text-anchor="middle"><textPath startOffset="19.985693538727396" xlink:href="#id122">February</textPath></text><path d="M 110.99172775467656 82.1063720568725 l 3.257590813370055 -5.303089678562467 a27.22371738161597,27.22371738161597 0 0,0 0.39718217175987863,0.24871543951847352 l -3.3483921375021968 5.246229897721049" fill="#ff4206" stroke="none" /><path d="M 111.2981086023043 82.29822771554956 l 16.80478766151955 -26.329586211632844 a52.23536454764961,52.23536454764961 0 0,0 0.7537637084817443,0.4902688832981423 l -17.255518395785575 26.036418404175173" fill="#83ff25" stroke="none" /><path d="M 111.60114157652 82.49532879139004 l 4.046281744113737 -6.10533291753503 a28.324444414881235,28.324444414881235 0 0,0 0.40408907524958393,0.2728427474232828 l -4.150775513769863 6.034778257813077" fill="#ff5207" stroke="none" /><path d="M 111.90073688211348 82.69761687909136 l 4.793241310847317 -6.968853977092395 a29.458137384675766,29.458137384675766 0 0,0 0.41531605549853345,0.29095543797733864 l -4.912488505929502 6.885313696351121" fill="#ff6209" stroke="none" /><path d="M 112.48926042617603 83.11751280151076 l 1.6821875810322051 -2.273914493984907 a23.82850529144522,23.82850529144522 0 0,0 0.32764631205207295,0.24677640941721285 l -1.7210800468426608 2.244621495061847" fill="#ff1101" stroke="none" /><path d="M 112.77801427241765 83.33499621200491 l 2.6049514186198746 -3.397360836616892 a25.28110179130886,25.28110179130886 0 0,0 0.34306147524874453,0.2677649229825977 l -2.6630454490280497 3.3520175244110706" fill="#ff2703" stroke="none" /><path d="M 114.16331599549186 84.49514656593476 l 1.1072553855339384 -1.2121336890490608 a22.641731576391706,22.641731576391706 0 0,0 0.2854929532696095,0.2653345859180476 l -1.1279562225983948 1.1928945170563727" fill="#ff0000" stroke="none" /><path d="M 114.42810811169701 84.74124197986012 l 18.85566978729935 -19.941221701742762 a48.44428184678422,48.44428184678422 0 0,0 0.6009784367738111,0.5781407800218149 l -19.19613146768558 19.613697834958646" fill="#adff20" stroke="none" /><path d="M 114.68862486808459 84.99185889309783 l 5.975323646590323 -6.105302657860784 a29.54278720474667,29.54278720474667 0 0,0 0.360371640244333,0.35882408989539366 l -6.079531087001978 6.001542717315272" fill="#ff6309" stroke="none" /><path d="M 114.94478906791727 85.2469230424477 l 44.8343672037518 -44.25923087265689 a84.0,84.0 0 0,0 1.0069429451875638,1.0377432177995427 l -45.58957441264248 43.480923459307235" fill="#4dd2ff" stroke="none" /><path d="M 115.19652480421416 85.50635884689758 l 36.08796843043901 -34.418794501636675 a70.86977922933144,70.86977922933144 0 0,0 0.8343488242966511,0.8900251524702429 l -36.675084576706126 33.79249993228837" fill="#3dffa9" stroke="none" /><line stroke="#e1ed5e" stroke-width="0.3" x1="172.23445277983987" x2="176.4835382374775" y1="55.19839476539836" y2="52.563006222186495" /><path d="M 173.08426987136738 54.67131705675599 a86.0,86.0 0 0,1 12.851231095245387,41.99856678651699" fill="none" id="id123" stroke="none" /><text fill="#e1ed5e" style="font-size:6.75px; font-family:Arial;" text-anchor="middle"><textPath startOffset="22.20632615414155" xlink:href="#id123">March</textPath></text><line stroke="#e1ed5e" stroke-width="0.3" x1="184.98032266829074" x2="189.97916517819016" y1="98.17113171792111" y2="98.06355123074" /><path d="M 185.9800911702706 98.14961562048488 a86.0,86.0 0 0,1 -9.607161424134198,41.387399972396054" fill="none" id="id124" stroke="none" /><text fill="#e1ed5e" style="font-size:6.75px; font-family:Arial;" text-anchor="middle"><textPath startOffset="21.466115282336823" xlink:href="#id124">April</textPath></text><line stroke="#e1ed5e" stroke-width="0.3" x1="174.80103733775053" x2="179.2010983576182" y1="140.37084112569926" y2="142.7455964860345" /><path d="M 175.68104954172406 140.8457921977663 a86.0,86.0 0 0,1 -30.038265399797805,32.042727171017184" fill="none" id="id125" stroke="none" /><text fill="#e1ed5e" style="font-size:6.75px; font-family:Arial;" text-anchor="middle"><textPath startOffset="22.206326154141568" xlink:href="#id125">May</textPath></text><line stroke="#e1ed5e" stroke-width="0.3" x1="143.8653032363475" x2="146.44561519142675" y1="172.8068346515853" y2="177.08958963109032" /><path d="M 144.38136562736335 173.6633856474863 a86.0,86.0 0 0,1 -40.68145358897372,12.25698825130547" fill="none" id="id126" stroke="none" /><text fill="#e1ed5e" style="font-size:6.75px; font-family:Arial;" text-anchor="middle"><textPath startOffset="21.466115282336833" xlink:href="#id126">June</textPath></text><line stroke="#e1ed5e" stroke-width="0.3" x1="102.19456741930631" x2="102.32365962044197" y1="184.97166512339345" y2="189.96999836594603" /><path d="M 102.22038585953345 185.97133177190398 a86.0,86.0 0 0,1 -42.740103519485714,-10.115201625700543" fill="none" id="id127" stroke="none" /><text fill="#e1ed5e" style="font-size:6.75px; font-family:Arial;" text-anchor="middle"><textPath startOffset="22.20632615414155" xlink:href="#id127">July</textPath></text><line stroke="#e1ed5e" stroke-width="0.3" x1="58.666819895761336" x2="56.23545636021788" y1="174.27360380694188" y2="178.64263932499728" /><path d="M 58.180547188652646 175.14741091055294 a86.0,86.0 0 0,1 -31.652253787137756,-30.449443065178592" fill="none" id="id128" stroke="none" /><text fill="#e1ed5e" style="font-size:6.75px; font-family:Arial;" text-anchor="middle"><textPath startOffset="22.20632615414155" xlink:href="#id128">August</textPath></text><line stroke="#e1ed5e" stroke-width="0.3" x1="26.63291911575756" x2="22.317208475507996" y1="142.92168965132927" y2="145.44649492493687" /><path d="M 25.769776987707644 143.4266507060508 a86.0,86.0 0 0,1 -11.730757126820373,-40.83630448921669" fill="none" id="id129" stroke="none" /><text fill="#e1ed5e" style="font-size:6.75px; font-family:Arial;" text-anchor="middle"><textPath startOffset="21.46611528233685" xlink:href="#id129">September</textPath></text><line stroke="#e1ed5e" stroke-width="0.3" x1="15.007084014347285" x2="10.007500721073583" y1="101.09737516637583" y2="101.16192664675087" /><path d="M 14.007167355692545 101.11028546245083 a86.0,86.0 0 0,1 10.666146001902534,-42.60595125391555" fill="none" id="id130" stroke="none" /><text fill="#e1ed5e" style="font-size:6.75px; font-family:Arial;" text-anchor="middle"><textPath startOffset="22.20632615414155" xlink:href="#id130">October</textPath></text><line stroke="#e1ed5e" stroke-width="0.3" x1="26.266209847984243" x2="21.928928074336255" y1="57.711370442889674" y2="55.22380399835377" /><path d="M 25.398753493254645 57.213857153982495 a86.0,86.0 0 0,1 29.58750427330803,-30.492523968695096" fill="none" id="id131" stroke="none" /><text fill="#e1ed5e" style="font-size:6.75px; font-family:Arial;" text-anchor="middle"><textPath startOffset="21.46611528233685" xlink:href="#id131">November</textPath></text><line stroke="#e1ed5e" stroke-width="0.3" x1="56.762969772571076" x2="54.21961505331055" y1="26.818313649435495" y2="22.513508569990535" /><path d="M 56.25429882871897 25.957352633546506 a86.0,86.0 0 0,1 42.265352541879196,-11.944610805530505" fill="none" id="id132" stroke="none" /><text fill="#e1ed5e" style="font-size:6.75px; font-family:Arial;" text-anchor="middle"><textPath startOffset="22.20632615414155" xlink:href="#id132">December</textPath></text></svg>