<?xml version="1.0" encoding="utf-8" ?>
<svg baseProfile="full" height="200mm" version="1.1" viewBox="0,0,200,200" width="200mm" xmlns="http://www.w3.org/2000/svg" xmlns:ev="http://www.w3.org/2001/xml-events" xmlns:xlink="http://www.w3.org/1999/xlink"><defs /><rect fill="#1a1a1a" height="200" width="200" x="0" y="0" /><rect fill="#1a1a1a" height="200" width="180" x="10" y="0" /><text alignment-baseline="middle" fill="#e1ed5e" style="dominant-baseline: central; font-size:9.0px; font-family:Arial;" text-anchor="middle" x="100.0" y="100.0">2026</text><line stroke="#e1ed5e" stroke-width="0.3" x1="100.0" x2="100.0" y1="15.0" y2="10.0" /><path d="M 100.0 14.0 a86.0,86.0 0 0,1 42.46469731375804,11.215312516191453" fill="none" id="id121" stroke="none" /><text fill="#e1ed5e" style="font-size:6.75px; font-family:Arial;" text-anchor="middle"><textPath startOffset="22.20632615414155" xlink:href="#id121">January</textPath></text><path d="M 101.08401301168833 79.027996857942 l 0.27487197820890275 -5.317847598233649 a26.324946730479457,26.324946730479457 0 0,0 0.4523352306015507,0.027286096383818625 l -0.36636925765006534 5.312328232469526" fill="#ff4506" stroke="none" /><path d="M 101.44485096284872 79.0497635885617 l 0.36577078902377674 -5.303650479865303 a26.316248365405677,26.316248365405677 0 0,0 0.45164924238425996,0.03505667372407014 l -0.45701022077037784 5.296568543952768" fill="#ff4406" stroke="none" /><path d="M 101.80526077348638 79.07773832637324 l 0.25443381219290845 -2.9487877183737035 a23.95974417354247,23.95974417354247 0 0,0 0.41059570901923137,0.03899101003268787 l -0.305154648302384 2.9439711638258377" fill="#ff2303" stroke="none" /><path d="M 102.16513564639614 79.11191278185805 l 0.5537624479649127 -5.342408144485645 a26.371031337745354,26.371031337745354 0 0,0 0.45111202472888584,0.050687692187857014 l -0.6456411762035238 5.332084498827187" fill="#ff4506" stroke="none" /><path d="M 102.52436894288641 79.15227682838746 l 0.13213940092409265 -1.091284876678254 a22.099255886199046,22.099255886199046 0 0,0 0.377250368863745,0.04897792503659647 l -0.15090449829568375 1.0888486284775207" fill="#ff0901" stroke="none" /><path d="M 102.88285421437855 79.19881850522331 l 0.4076419276604129 -2.9413328221221677 a23.969446196124768,23.969446196124768 0 0,0 0.40820083246097993,0.06015819172107888 l -0.45821174055004865 2.93388014624012" fill="#ff2403" stroke="none" /><path d="M 103.2404852339499 79.25152402106235 l 0.19310752934161693 -1.2364465950714085 a22.251435455927354,22.251435455927354 0 0,0 0.3779255785054852,0.06236095864471721 l -0.2143623139859773 1.2329393734870666" fill="#ff0b01" stroke="none" /><path d="M 103.59715602781102 79.31037775812273 l 1.4776422311349526 -8.49889727731124 a29.626394466607813,29.626394466607813 0 0,0 0.5016804960217028,0.09167890398693582 l -1.6237178482595562 8.472202891973566" fill="#ff720a" stroke="none" /><path d="M 104.307194497241 79.44645832069477 l 1.233258181340014 -5.884996242392309 a27.01282849537667,27.01282849537667 0 0,0 0.45427509163500857,0.09928693990925304 l -1.3343759971285505 5.862895804387185" fill="#ff4e07" stroke="none" /><path d="M 104.66035177308747 79.52364482259891 l 1.9751886734422004 -8.678457504719148 a29.9003929664319,29.9003929664319 0 0,0 0.5008690474334814,0.11853952109761308 l -2.1242814078382053 8.643172071480667" fill="#ff750a" stroke="none" /><path d="M 105.01212808612495 79.60689891045804 l 0.5001914123055559 -2.0351543017238183 a23.0957205159012,23.0957205159012 0 0,0 0.3852488383873856,0.09820850682815176 l -0.5351491393779665 2.0262427987267984" fill="#ff1702" stroke="none" /><path d="M 105.36241919743992 79.69619591428918 l 0.7498217488067749 -2.8390607534461383 a23.936409136469543,23.936409136469543 0 0,0 0.3974607804900849,0.1086410454759058 l -0.7985804185205706 2.8257331671439387" fill="#ff2303" stroke="none" /><path d="M 105.71112130821622 79.79150937346287 l 2.5635162720679054 -9.070862228146247 a30.426142224641385,30.426142224641385 0 0,0 0.5027699518518499,0.1467723358053985 l -2.7192764416431827 9.025391563422145" fill="#ff7c0b" stroke="none" /><path d="M 106.0581310904928 79.89281104454417 l 0.4673739418982822 -1.5512335441788139 a22.620112314054523,22.620112314054523 0 0,0 0.3718473162732393,0.11553477122608208 l -0.49400663088223973 1.5429586380702114" fill="#ff1001" stroke="none" /><path d="M 106.40334571778207 80.00007090966166 l 0.28905145217827616 -0.9028106246037921 a21.947954516790684,21.947954516790684 0 0,0 0.3588147524883983,0.11829558247062916 l -0.3045490269090919 0.8977013178739267" fill="#ff0701" stroke="none" /><path d="M 107.08798089147638 80.2323363322302 l 1.339912521251972 -3.7368808508208846 a24.969841817735265,24.969841817735265 0 0,0 0.40334341272565805,0.14855478286194404 l -1.4040382597502066 3.7132628001526156" fill="#ff3204" stroke="none" /><path d="M 107.76421540070413 80.48803036053334 l 1.0549868424674145 -2.651249376517059 a23.853440115765785,23.853440115765785 0 0,0 0.38019672250258335,0.15509178927998665 l -1.1004674345583854 2.6326967010534927" fill="#ff2203" stroke="none" /><path d="M 108.09893153111575 80.62456947434976 l 1.905274865741215 -4.558072957106583 a25.940253171278933,25.940253171278933 0 0,0 0.41049368837367967,0.17575197457020375 l -1.98345231190521 4.524601454573588" fill="#ff3f05" stroke="none" /><path d="M 108.43124777332544 80.76684994638697 l 2.6685789904194737 -6.087495176578513 a27.646721850128444,27.646721850128444 0 0,0 0.4342087253308353,0.19481679817540004 l -2.772969834217089 6.0406580478865814" fill="#ff5708" stroke="none" /><path d="M 108.76106565485865 80.91482961587045 l 1.8819696490310642 -4.0996966378855255 a25.511022310138134,25.511022310138134 0 0,0 0.39751249294758395,0.18663744549949263 l -1.952260353278246 4.06669420974603" fill="#ff3905" stroke="none" /><path d="M 109.08828744355905 81.06846463323043 l 1.477741819834265 -3.0782390740703933 a24.414568301150357,24.414568301150357 0 0,0 0.3772966151076,0.18513781045209027 l -1.5305097019522969 3.0523461034834707" fill="#ff2a04" stroke="none" /><path d="M 109.41281617654863 81.2277094730956 l 1.4423541725860711 -2.8765346164878087 a24.21789324854463,24.21789324854463 0 0,0 0.3710406269244913,0.1900614204068611 l -1.491655287099318 2.851280670768447" fill="#ff2703" stroke="none" /><path d="M 109.73455568895987 81.39251694778311 l 2.422359944646302 -4.63031113659295 a26.225668275262365,26.225668275262365 0 0,0 0.398199249412987,0.21270424852310627 l -2.5017042405876007 4.587928161568089" fill="#ff4306" stroke="none" /><path d="M 110.05341064243156 81.56283822128135 l 0.493277721363311 -0.9046324152152012 a22.03037988967733,22.03037988967733 0 0,0 0.3313745864638546,0.18440959859548273 l -0.5087763968992006 0.8960074190595385" fill="#ff0801" stroke="none" /><line stroke="#e1ed5e" stroke-width="0.3" x1="143.23703022742887" x2="145.7803849466894" y1="26.81831364943548" y2="22.513508569990506" /><path d="M 143.74570117128098 25.957352633546492 a86.0,86.0 0 0,1 28.547481713284135,27.462654790039103" fill="none" id="id122" stroke="none" /><text fill="#e1ed5e" style="font-size:6.75px; font-family:Arial;" text-anchor="middle"><textPath startOffset="19.985693538727396" xlink:href="#id122">February</textPath></text><path d="M 110.99172775467656 82.1063720568725 l 0.975253264428468 -1.587632031422803 a22.86324834549184,22.86324834549184 0 0,0 0.33356482893405903,0.20887826527721157 l -1.0024372457347903 1.5706094248226472" fill="#ff1402" stroke="none" /><path d="M 111.2981086023043 82.29822771554956 l 5.0309952857367755 -7.882516981124827 a30.351202464005734,30.351202464005734 0 0,0 0.4379721501757687,0.2848692694622626 l -5.165934461696824 7.794748787503036" fill="#ff7b0b" stroke="none" /><path d="M 111.60114157652 82.49532879139004 l 1.2113705206768584 -1.8278065599309592 a23.192782560786995,23.192782560786995 0 0,0 0.3308785132791241,0.22341064917592163 l -1.2426537283625243 1.8066839984563676" fill="#ff1802" stroke="none" /><path d="M 111.90073688211348 82.69761687909136 l 1.4349942959107311 -2.0863263619821013 a23.532186074915863,23.532186074915863 0 0,0 0.331768929252658,0.23242533689699996 l -1.47069436474704 2.0613161823211654" fill="#ff1d03" stroke="none" /><path d="M 112.48926042617603 83.11751280151076 l 0.5036111113309188 -0.6807615383086694 a21.84679420374513,21.84679420374513 0 0,0 0.3003974216371653,0.22625311008544652 l -0.5152546867264671 0.6719918387173754" fill="#ff0500" stroke="none" /><path d="M 112.77801427241765 83.33499621200491 l 0.7798669385546323 -1.017097430639049 a22.281670638371313,22.281670638371313 0 0,0 0.3023595594569437,0.23599643210400667 l -0.7972590531710063 1.0035226093118181" fill="#ff0b01" stroke="none" /><path d="M 114.16331599549186 84.49514656593476 l 0.33148866483351747 -0.3628869937614617 a21.491499445731467,21.491499445731467 0 0,0 0.2709895056503387,0.2518552119987581 l -0.33768605427870296 0.35712719568806317" fill="#ff0000" stroke="none" /><path d="M 114.42810811169701 84.74124197986012 l 5.644985686224048 -5.9699767943529025 a29.21623309812876,29.21623309812876 0 0,0 0.36244372764704824,0.3486705788326714 l -5.746912657483515 5.8719231287579285" fill="#ff6c0a" stroke="none" /><path d="M 114.68862486808459 84.99185889309783 l 1.788884554940522 -1.8277975008293774 a23.55752842700582,23.55752842700582 0 0,0 0.28736168664473805,0.28612766423904223 l -1.8200820417525825 1.7967339859402165" fill="#ff1e03" stroke="none" /><path d="M 114.94478906791727 85.2469230424477 l 13.422454040140527 -13.250270479795988 a39.86085735716799,39.86085735716799 0 0,0 0.47782867982057264,0.4924444568818581 l -13.64854698366421 13.017261827364017" fill="#fff517" stroke="none" /><path d="M 115.19652480421416 85.50635884689758 l 10.803968648833203 -10.30425354763567 a35.929949086950465,35.929949086950465 0 0,0 0.42300273972531827,0.451229829725869 l -10.979738710528984 10.116754301031746" fill="#ffc412" stroke="none" /><path d="M 115.4437574822437 85.77008943001954 l 3.0690173905779283 -2.8277990674128364 a25.173166101334893,25.173166101334893 0 0,0 0.2908775638246547,0.3211942710692075 l -3.1172385950186188 2.77455200907408" fill="#ff3505" stroke="none" /><path d="M 115.68641384162765 86.03803664274999 l 19.68929252008503 -17.524794607043187 a47.358806231704165,47.358806231704165 0 0,0 0.5367514863993189,0.6135997358307428 l -19.988035870062195 17.183279315009496" fill="#b2ff20" stroke="none" /><path d="M 115.9244219780498 86.31012108654704 l 9.798261992003594 -8.423352534723822 a33.921254040849924,33.921254040849924 0 0,0 0.37683183547321547,0.4460500343208672 l -9.941804440963926 8.253443550773849" fill="#ffaa0f" stroke="none" /><path d="M 116.15771136456269 86.58626213691792 l 44.56742520616654 -36.99878933715649 a78.92379305538039,78.92379305538039 0 0,0 0.8587717011525652,1.0527525633041086 l -45.19769539939551 36.22615260424428" fill="#47fffd" stroke="none" /><path d="M 116.38621287248628 86.86637796730983 l 10.405123894582179 -8.33975278474583 a34.33484457248306,34.33484457248306 0 0,0 0.36565942295601506,0.46435033385835367 l -10.547137398132158 8.159410056934439" fill="#ffb010" stroke="none" /><path d="M 116.82858285166822 87.43820079747576 l 1.6009098594886964 -1.1950090137414502 a22.997738451632603,22.997738451632603 0 0,0 0.23407031117842245,0.3192716413938617 l -1.6212427831807452 1.1672749286760948" fill="#ff1602" stroke="none" /><path d="M 117.04232023915458 87.72973835380427 l 10.397796182314593 -7.486285782125654 a33.812440839301956,33.812440839301956 0 0,0 0.33601093794238684,0.4752636426124266 l -10.525119740060862 7.306195639181434" fill="#ffa90f" stroke="none" /><path d="M 117.2510076193507 88.02491185347247 l 21.19847431316575 -14.715291075943203 a46.80533093482201,46.80533093482201 0 0,0 0.4537342978384835,0.665799094206325 l -21.44863307667297 14.34821395846647" fill="#b8ff1f" stroke="none" /><path d="M 117.45458315368197 88.32363383020206 l 20.121264913314146 -13.460261689366286 a45.208344562526136,45.208344562526136 0 0,0 0.4271184605287355,0.6505307182985021 l -20.34998000920081 13.11191290709011" fill="#caff1d" stroke="none" /><path d="M 117.65298651832404 88.62581576622439 l 0.5913233135793708 -0.38100183804009247 a21.703438456279166,21.703438456279166 0 0,0 0.19964311315844815,0.31578746061933605 l -0.5977940229837747 0.3707667297065503" fill="#ff0300" stroke="none" /><line stroke="#e1ed5e" stroke-width="0.3" x1="172.23445277983987" x2="176.4835382374775" y1="55.19839476539836" y2="52.563006222186495" /><path d="M 173.08426987136738 54.67131705675599 a86.0,86.0 0 0,1 12.851231095245387,41.99856678651699" fill="none" id="id123" stroke="none" /><text fill="#e1ed5e" style="font-size:6.75px; font-family:Arial;" text-anchor="middle"><textPath startOffset="22.20632615414155" xlink:href="#id123">March</textPath></text><path d="M 117.84615892207809 88.93136811851018 l 4.5983335493651145 -2.852000901060016 a26.41096854277161,26.41096854277161 0 0,0 0.23629541624506167,0.38840753461056565 l -4.6467447638964 2.7724255932423687" fill="#ff4606" stroke="none" /><path d="M 118.03404312379186 89.2402003453031 l 10.976861612674782 -6.549215335627967 a33.78216383779514,33.78216383779514 0 0,0 0.29364796114513625,0.5019395529821822 l -11.087969248290245 6.35929637029189" fill="#ffa90f" stroke="none" /><path d="M 118.21658344932153 89.55222093294921 l 2.2560901656437244 -1.2939381125756355 a23.600811157060452,23.600811157060452 0 0,0 0.19908111217969296,0.3541430845002212 l -2.2780289191158505 1.2549115181406203" fill="#ff1e03" stroke="none" /><path d="M 118.3937258080291 89.86733742301442 l 3.578357363748806 -1.9712312842518898 a25.085387888402845,25.085387888402845 0 0,0 0.20509323468580884,0.3800066156086935 l -3.6117586976530798 1.9093436853107375" fill="#ff3304" stroke="none" /><path d="M 118.89224826269711 90.83032412892265 l 18.547771254865637 -9.002478062593628 a41.6170907208146,41.6170907208146 0 0,0 0.307256614876504,0.6471607911360809 l -18.699986063583896 8.681874855817007" fill="#f4ff19" stroke="none" /><path d="M 119.34039704204932 91.81776055985345 l 5.591023022655742 -2.3653645262441714 a27.070789716493305,27.070789716493305 0 0,0 0.1778658047495343,0.43071615439007765 l -5.630910514291474 2.2687738014007905" fill="#ff4f07" stroke="none" /><path d="M 119.47837535516314 92.15188598940014 l 6.005417575182882 -2.4196680139856888 a27.47455276835558,27.47455276835558 0 0,0 0.17296729000439007,0.44018288661697696 l -6.046178415068973 2.3159361224729276" fill="#ff5407" stroke="none" /><path d="M 119.61058180528143 92.48833698450437 l 6.263582000044649 -2.3992106772471335 a27.70735949126778,27.70735949126778 0 0,0 0.1667658621158186,0.44684959970014765 l -6.303952450662093 2.2910379405176524" fill="#ff5808" stroke="none" /><path d="M 119.7369772167798 92.82701384747503 l 5.0690239264411145 -1.8422293359222004 a26.39340453637263,26.39340453637263 0 0,0 0.15150683827619607,0.4283302339370643 l -5.09998384552712 1.7547014755585215" fill="#ff4606" stroke="none" /><path d="M 119.97218684219823 93.5106431181261 l 15.931308693860789 -5.176395981401908 a37.75116927427331,37.75116927427331 0 0,0 0.19548726856740048,0.6197480630720859 l -16.018051446196395 4.901397751903403" fill="#ffdb14" stroke="none" /><path d="M 120.28053869075195 94.5502522615342 l 8.01442668709566 -2.1536214781620324 a29.298742109141116,29.298742109141116 0 0,0 0.1266872978617161,0.48817783766242334 l -8.05031031682768 2.0153472149507587" fill="#ff6d0a" stroke="none" /><path d="M 120.37134235888165 94.90015583598534 l 15.130213500716918 -3.787758786955208 a36.59713041573458,36.59713041573458 0 0,0 0.14772553637292446,0.6124177193798034 l -15.193171837350661 3.5267558359159987" fill="#ffcc13" stroke="none" /><path d="M 120.45610955862082 95.25157060432595 l 10.058158634764176 -2.334777098783151 a31.3255866285206,31.3255866285206 0 0,0 0.11740473800564231,0.5263024197236101 l -10.096857759771856 2.161296509509577" fill="#ff880c" stroke="none" /><path d="M 120.53481517161879 95.60439243477599 l 44.27248301459635 -9.476806080006735 a66.27540839965748,66.27540839965748 0 0,0 0.22918889626210734,1.1176064529538385 l -44.42905120677345 8.713323970889485" fill="#37ff79" stroke="none" /><path d="M 120.6074358757038 95.95851677861258 l 3.828781672370537 -0.7508919101131378 a24.901718564344932,24.901718564344932 0 0,0 0.07887237065275339,0.42133935784615395 l -3.8411397669331495 0.6848744748044211" fill="#ff3104" stroke="none" /><path d="M 120.73433829027371 96.67025291283417 l 16.587566975618554 -2.663813141610746 a37.80009757781333,37.80009757781333 0 0,0 0.09763964385789374,0.6433232583798282 l -16.630962512915747 2.3778907708388357" fill="#ffdb14" stroke="none" /><path d="M 120.78858239683441 97.02765380044208 l 7.323646093885486 -1.047133047291501 a28.398126771501968,28.398126771501968 0 0,0 0.06502359783031371,0.48450133056912215 l -7.340585690773636 0.9209133746577145" fill="#ff6109" stroke="none" /><path d="M 120.83666639777658 97.38593545837742 l 1.6470135201566796 -0.206626125332312 a22.659924061892212,22.659924061892212 0 0,0 0.04522235325711354,0.38743750588122555 l -1.650326226417382 0.17824488112623374" fill="#ff1101" stroke="none" /><path d="M 120.87857604477298 97.74499172005257 l 13.66607154126309 -1.4760156254821482 a34.74554958877921,34.74554958877921 0 0,0 0.059105281002945285,0.5951821136288733 l -13.689453947948262 1.2405579811488396" fill="#ffb510" stroke="none" /><path d="M 120.91429891909075 98.10471618934814 l 57.79423397643796 -5.23739650218841 a79.03105895160273,79.03105895160273 0 0,0 0.11111584808752432,1.355894792790231 l -57.87582430834498 4.241787792190411" fill="#47fffe" stroke="none" /><path d="M 120.96714384426684 98.82574320788733 l 16.68721546440237 -0.9345610563872782 a37.713364841452645,37.713364841452645 0 0,0 0.030720933038617573,0.6484703417201525 l -16.700830005674487 0.6471796080441259" fill="#ffda14" stroke="none" /><path d="M 120.98425023603335 99.18683210126433 l 48.994405601908404 -1.8985990638204466 a70.03117843463946,70.03117843463946 0 0,0 0.036310517544171174,1.2049693037829456 l -49.01982781390822 1.0549596126125018" fill="#3cffa2" stroke="none" /><line stroke="#e1ed5e" stroke-width="0.3" x1="184.98032266829074" x2="189.97916517819016" y1="98.17113171792111" y2="98.06355123074" /><path d="M 185.9800911702706 98.14961562048488 a86.0,86.0 0 0,1 -9.607161424134198,41.387399972396054" fill="none" id="id124" stroke="none" /><text fill="#e1ed5e" style="font-size:6.75px; font-family:Arial;" text-anchor="middle"><textPath startOffset="21.466115282336823" xlink:href="#id124">April</textPath></text><path d="M 120.99980553446 99.90962569577887 l 18.910906930047766 -0.08138456583272173 a39.91108205165649,39.91108205165649 0 0,0 -0.0029566561203156973,0.6870227560147076 l -18.909505976637945 -0.24414766838567056" fill="#fff517" stroke="none" /><path d="M 120.9904718944345 100.63252640178507 l 36.174507395600024 1.0900817815988761 a57.190927918539124,57.190927918539124 0 0,0 -0.038121476720005945,0.9837459251694398 l -36.15038378602881 -1.712604953782322" fill="#4aff2c" stroke="none" /><path d="M 120.9764740272857 100.99374915477107 l 7.967172529688566 0.37744050582545585 a28.97610803921699,28.97610803921699 0 0,0 -0.027891089549989218,0.4980141400892348 l -7.959495089251048 -0.5145263622501139" fill="#ff6909" stroke="none" /><path d="M 120.95626037817324 101.35467743843564 l 2.4896452979596138 0.16093836657832478 a23.494841651786604,23.494841651786604 0 0,0 -0.029562598575079,0.4033581699630317 l -2.4865061407201967 -0.20376967303812674" fill="#ff1d02" stroke="none" /><path d="M 120.92983693683757 101.71520430193887 l 19.64809994138335 1.610165700100176 a40.71396623940417,40.71396623940417 0 0,0 -0.06325283741533742,0.6979897901043175 l -19.617472507690938 -1.948136878753064" fill="#ffff18" stroke="none" /><path d="M 120.81339534386255 102.79330883721812 l 6.524866601187319 0.8756844924939327 a27.58336596990355,27.58336596990355 0 0,0 -0.06720614742888094,0.4700396385881654 l -6.508826402741837 -0.9878696030625074" fill="#ff5608" stroke="none" /><path d="M 120.76222939487914 103.15116336523771 l 62.28668818463745 9.453490095713112 a84.0,84.0 0 0,0 -0.2292729825548463,1.4276830812271801 l -62.114733447721314 -10.524252406633499" fill="#4dd2ff" stroke="none" /><line stroke="#e1ed5e" stroke-width="0.3" x1="174.80103733775053" x2="179.2010983576182" y1="140.37084112569926" y2="142.7455964860345" /><path d="M 175.68104954172406 140.8457921977663 a86.0,86.0 0 0,1 -30.038265399797805,32.042727171017184" fill="none" id="id125" stroke="none" /><text fill="#e1ed5e" style="font-size:6.75px; font-family:Arial;" text-anchor="middle"><textPath startOffset="22.206326154141568" xlink:href="#id125">May</textPath></text><line stroke="#e1ed5e" stroke-width="0.3" x1="143.8653032363475" x2="146.44561519142675" y1="172.8068346515853" y2="177.08958963109032" /><path d="M 144.38136562736335 173.6633856474863 a86.0,86.0 0 0,1 -40.68145358897372,12.25698825130547" fill="none" id="id126" stroke="none" /><text fill="#e1ed5e" style="font-size:6.75px; font-family:Arial;" text-anchor="middle"><textPath startOffset="21.466115282336833" xlink:href="#id126">June</textPath></text><line stroke="#e1ed5e" stroke-width="0.3" x1="102.19456741930631" x2="102.32365962044197" y1="184.97166512339345" y2="189.96999836594603" /><path d="M 102.22038585953345 185.97133177190398 a86.0,86.0 0 0,1 -42.740103519485714,-10.115201625700543" fill="none" id="id127" stroke="none" /><text fill="#e1ed5e" style="font-size:6.75px; font-family:Arial;" text-anchor="middle"><textPath startOffset="22.20632615414155" xlink:href="#id127">July</textPath></text><line stroke="#e1ed5e" stroke-width="0.3" x1="58.666819895761336" x2="56.23545636021788" y1="174.27360380694188" y2="178.64263932499728" /><path d="M 58.180547188652646 175.14741091055294 a86.0,86.0 0 0,1 -31.652253787137756,-30.449443065178592" fill="none" id="id128" stroke="none" /><text fill="#e1ed5e" style="font-size:6.75px; font-family:Arial;" text-anchor="middle"><textPath startOffset="22.20632615414155" xlink:href="#id128">August</textPath></text><line stroke="#e1ed5e" stroke-width="0.3" x1="26.63291911575756" x2="22.317208475507996" y1="142.92168965132927" y2="145.44649492493687" /><path d="M 25.769776987707644 143.4266507060508 a86.0,86.0 0 0,1 -11.730757126820373,-40.83630448921669" fill="none" id="id129" stroke="none" /><text fill="#e1ed5e" style="font-size:6.75px; font-family:Arial;" text-anchor="middle"><textPath startOffset="21.46611528233685" xlink:href="#id129">September</textPath></text><line stroke="#e1ed5e" stroke-width="0.3" x1="15.007084014347285" x2="10.007500721073583" y1="101.09737516637583" y2="101.16192664675087" /><path d="M 14.007167355692545 101.11028546245083 a86.0,86.0 0 0,1 10.666146001902534,-42.60595125391555" fill="none" id="id130" stroke="none" /><text fill="#e1ed5e" style="font-size:6.75px; font-family:Arial;" text-anchor="middle"><textPath startOffset="22.20632615414155" xlink:href="#id130">October</textPath></text><line stroke="#e1ed5e" stroke-width="0.3" x1="26.266209847984243" x2="21.928928074336255" y1="57.711370442889674" y2="55.22380399835377" /><path d="M 25.398753493254645 57.213857153982495 a86.0,86.0 0 0,1 29.58750427330803,-30.492523968695096" fill="none" id="id131" stroke="none" /><text fill="#e1ed5e" style="font-size:6.75px; font-family:Arial;" text-anchor="middle"><textPath startOffset="21.46611528233685" xlink:href="#id131">November</textPath></text><line stroke="#e1ed5e" stroke-width="0.3" x1="56.762969772571076" x2="54.21961505331055" y1="26.818313649435495" y2="22.513508569990535" /><path d="M 56.25429882871897 25.957352633546506 a86.0,86.0 0 0,1 42.265352541879196,-11.944610805530505" fill="none" id="id132" stroke="none" /><text fill="#e1ed5e" style="font-size:6.75px; font-family:Arial;" text-anchor="middle"><textPath startOffset="22.20632615414155" xlink:href="#id132">December</textPath></text></svg>