<?xml version="1.0" encoding="utf-8" ?>
<svg baseProfile="full" height="200mm" version="1.1" viewBox="0,0,200,200" width="200mm" xmlns="http://www.w3.org/2000/svg" xmlns:ev="http://www.w3.org/2001/xml-events" xmlns:xlink="http://www.w3.org/1999/xlink"><defs /><rect fill="#1a1a1a" height="200" width="200" x="0" y="0" /><rect fill="#1a1a1a" height="200" width="180" x="10" y="0" /><text alignment-baseline="middle" fill="#e1ed5e" style="dominant-baseline: central; font-size:9.0px; font-family:Arial;" text-anchor="middle" x="100.0" y="100.0">2026</text><line stroke="#e1ed5e" stroke-width="0.3" x1="100.0" x2="100.0" y1="15.0" y2="10.0" /><path d="M 100.0 14.0 a86.0,86.0 0 0,1 42.46469731375804,11.215312516191453" fill="none" id="id121" stroke="none" /><text fill="#e1ed5e" style="font-size:6.75px; font-family:Arial;" text-anchor="middle"><textPath startOffset="22.20632615414155" xlink:href="#id121">January</textPath></text><path d="M 101.08401301168833 79.027996857942 l 0.298408041142296 -5.773191196943806 a26.780898196257034,26.780898196257034 0 0,0 0.46016973501772956,0.027758695085306054 l -0.3977398249996375 5.7671992324781955" fill="#ff4a06" stroke="none" /><path d="M 101.44485096284872 79.0497635885617 l 0.3970901121710706 -5.757778442578049 a26.771455028933392,26.771455028933392 0 0,0 0.4594616684510706,0.03566306834608212 l -0.49614196998448234 5.750090112043503" fill="#ff4a06" stroke="none" /><path d="M 101.80526077348638 79.07773832637324 l 0.2762198460228259 -3.201279273784692 a24.213173881398316,24.213173881398316 0 0,0 0.41493870825285895,0.03940343014076649 l -0.331283681365929 3.196050299128747" fill="#ff2603" stroke="none" /><path d="M 102.16513564639614 79.11191278185805 l 0.6011786593604108 -5.799854753353592 a26.83092882313518,26.83092882313518 0 0,0 0.4589791909062276,0.051571659973525044 l -0.7009245537763636 5.7886471399094654" fill="#ff4b07" stroke="none" /><path d="M 102.52436894288641 79.15227682838746 l 0.1434539091413205 -1.1847267389703762 a22.193380270525413,22.193380270525413 0 0,0 0.3788571405527578,0.04918653011648658 l -0.16382577820192445 1.1820818856897528" fill="#ff0a01" stroke="none" /><path d="M 102.88285421437855 79.19881850522331 l 0.44254648987232925 -3.193186047978858 a24.22370664495161,24.22370664495161 0 0,0 0.41253090024910427,0.06079633115502565 l -0.4974463705500893 3.185095232662863" fill="#ff2703" stroke="none" /><path d="M 103.2404852339499 79.25152402106235 l 0.20964246678090068 -1.3423180086109276 a22.358590298846266,22.358590298846266 0 0,0 0.3797455310240544,0.06266126640423604 l -0.23271720394383022 1.3385104792670668" fill="#ff0c01" stroke="none" /><path d="M 103.59715602781102 79.31037775812273 l 1.604166152458794 -9.226619988395376 a30.365034194008665,30.365034194008665 0 0,0 0.5141883003460346,0.0939646252793342 l -1.7627495739077295 9.197639881765303" fill="#ff7b0b" stroke="none" /><path d="M 104.307194497241 79.44645832069477 l 1.3388565852161667 -6.38890225284224 a27.527680212154188,27.527680212154188 0 0,0 0.4629333597189146,0.10117930195770028 l -1.4486326690886093 6.36490945278867" fill="#ff5507" stroke="none" /><path d="M 104.66035177308747 79.52364482259891 l 2.144315280040601 -9.421555158131511 a30.662493964703422,30.662493964703422 0 0,0 0.5136351940684402,0.12156085554845256 l -2.306174161071565 9.383248390442189" fill="#ff7f0b" stroke="none" /><path d="M 105.01212808612495 79.60689891045804 l 0.5430205745776715 -2.209415497923798 a23.27516772719739,23.27516772719739 0 0,0 0.38824211281916254,0.09897155912884707 l -0.5809715760818591 2.199740942626083" fill="#ff1902" stroke="none" /><path d="M 105.36241919743992 79.69619591428918 l 0.8140256446849164 -3.0821568776863892 a24.187840769058926,24.187840769058926 0 0,0 0.40163576815674423,0.1097822273162766 l -0.8669593020653715 3.067688109543819" fill="#ff2603" stroke="none" /><path d="M 105.71112130821622 79.79150937346287 l 2.78301874992439 -9.847559749854097 a31.23326078966901,31.23326078966901 0 0,0 0.5161070012576411,0.15066578625292407 l -2.952115968905458 9.79819563468247" fill="#ff870c" stroke="none" /><path d="M 106.0581310904928 79.89281104454417 l 0.5073930903819667 -1.6840587617877043 a22.758835313871455,22.758835313871455 0 0,0 0.37412775478172755,0.11624331457127522 l -0.5363062178744125 1.6750753123339084" fill="#ff1202" stroke="none" /><path d="M 106.40334571778207 80.00007090966166 l 0.31380164029780255 -0.9801142763476678 a22.029123638905503,22.029123638905503 0 0,0 0.3601417407705659,0.11873306964383505 l -0.33062620331078596 0.9745674824445966" fill="#ff0701" stroke="none" /><path d="M 107.08798089147638 80.2323363322302 l 1.4546432611073834 -4.056853310191293 a25.309761686856383,25.309761686856383 0 0,0 0.40883421403170356,0.15057709132173902 l -1.5242598009116635 4.03121295106323" fill="#ff3605" stroke="none" /><path d="M 107.76421540070413 80.48803036053334 l 1.1453206657985944 -2.878264049254639 a24.097767480741098,24.097767480741098 0 0,0 0.38409102298630726,0.15668037222735953 l -1.1946955583732892 2.8581227908437" fill="#ff2503" stroke="none" /><path d="M 108.09893153111575 80.62456947434976 l 2.0684150644537125 -4.948360438109561 a26.363265041400332,26.363265041400332 0 0,0 0.41718767480648133,0.17861799021583305 l -2.153286497050509 4.912022919930938" fill="#ff4506" stroke="none" /><path d="M 108.43124777332544 80.76684994638697 l 2.897077520791711 -6.608740268625658 a28.215851030864687,28.215851030864687 0 0,0 0.44314724822174795,0.19882725284486416 l -3.010406887480239 6.557892685264262" fill="#ff5e08" stroke="none" /><path d="M 108.76106565485865 80.91482961587045 l 2.043114325861919 -4.450735396750068 a25.89728105385286,25.89728105385286 0 0,0 0.40353117280565554,0.1894632963945432 l -2.119423709967172 4.414907117715522" fill="#ff3e05" stroke="none" /><path d="M 109.08828744355905 81.06846463323043 l 1.604274268494759 -3.3418149723610853 a24.706942572801893,24.706942572801893 0 0,0 0.38181489377130573,0.1873549101697019 l -1.6615604292764965 3.3137049020565517" fill="#ff2d04" stroke="none" /><path d="M 109.41281617654863 81.2277094730956 l 1.56585653466544 -3.1228394606734455 a24.49342711163317,24.49342711163317 0 0,0 0.37526206172272436,0.19222380327193317 l -1.61937908397692 3.095423132089012" fill="#ff2a04" stroke="none" /><path d="M 109.73455568895987 81.39251694778311 l 2.629775835040181 -5.0267840510826876 a26.673118969207376,26.673118969207376 0 0,0 0.40499314799387803,0.21633331385741048 l -2.7159140295623705 4.980772010723523" fill="#ff4906" stroke="none" /><path d="M 110.05341064243156 81.56283822128135 l 0.5355148950806847 -0.9820920587730133 a22.118606729265604,22.118606729265604 0 0,0 0.33270166900305653,0.18514811859174682 l -0.5523406531557763 0.9727285426210865" fill="#ff0801" stroke="none" /><line stroke="#e1ed5e" stroke-width="0.3" x1="143.23703022742887" x2="145.7803849466894" y1="26.81831364943548" y2="22.513508569990506" /><path d="M 143.74570117128098 25.957352633546492 a86.0,86.0 0 0,1 28.547481713284135,27.462654790039103" fill="none" id="id122" stroke="none" /><text fill="#e1ed5e" style="font-size:6.75px; font-family:Arial;" text-anchor="middle"><textPath startOffset="19.985693538727396" xlink:href="#id122">February</textPath></text><path d="M 110.99172775467656 82.1063720568725 l 1.058759856686995 -1.723573889338342 a23.022790000504443,23.022790000504443 0 0,0 0.3358924721480921,0.21033583524430063 l -1.0882714812073502 1.7050937127710972" fill="#ff1502" stroke="none" /><path d="M 111.2981086023043 82.29822771554956 l 5.461776998861108 -8.557461793434129 a31.151904271188393,31.151904271188393 0 0,0 0.4495263906562669,0.292384468872887 l -5.608270415301655 8.462178400401715" fill="#ff860c" stroke="none" /><path d="M 111.60114157652 82.49532879139004 l 1.315094781680428 -1.9843134927399089 a23.380540762573233,23.380540762573233 0 0,0 0.33355715498587774,0.2252192800135206 l -1.3490566310728476 1.9613823004277182" fill="#ff1b02" stroke="none" /><path d="M 111.90073688211348 82.69761687909136 l 1.5578664645388023 -2.2649691937293586 a23.74900588756693,23.74900588756693 0 0,0 0.3348257671025288,0.2345668471604721 l -1.596623371224982 2.237817503804951" fill="#ff2003" stroke="none" /><path d="M 112.48926042617603 83.11751280151076 l 0.5467330871957411 -0.7390521160265947 a21.919301418925247,21.919301418925247 0 0,0 0.3013944091259047,0.22700402039224676 l -0.5593736500800288 0.7295315061285006" fill="#ff0600" stroke="none" /><path d="M 112.77801427241765 83.33499621200491 l 0.8466434701789097 -1.1041869524335184 a22.391414385264508,22.391414385264508 0 0,0 0.30384876874929534,0.2371587835781335 l -0.8655247940876354 1.0894497796321607" fill="#ff0c01" stroke="none" /><path d="M 114.16331599549186 84.49514656593476 l 0.35987256241400783 -0.3939593903678144 a21.533584353628743,21.533584353628743 0 0,0 0.2715201604990253,0.25234839784775764 l -0.3666006067078799 0.38770640644541626" fill="#ff0000" stroke="none" /><path d="M 114.42810811169701 84.74124197986012 l 6.128340662001532 -6.481159310877013 a29.91975253482456,29.91975253482456 0 0,0 0.37117128010912487,0.35706647738635827 l -6.238995185723076 6.374709746728352" fill="#ff750a" stroke="none" /><path d="M 114.68862486808459 84.99185889309783 l 1.942058769860521 -1.98430365794782 a23.77651819236562,23.77651819236562 0 0,0 0.2900329884549733,0.28878749463036735 l -1.9759275584828166 1.9505803126673338" fill="#ff2003" stroke="none" /><path d="M 114.94478906791727 85.2469230424477 l 14.571758982273382 -14.384832110738042 a41.47582854713296,41.47582854713296 0 0,0 0.49718801132552976,0.5123959497309988 l -14.81721125730202 14.131871965456929" fill="#f6ff19" stroke="none" /><path d="M 115.19652480421416 85.50635884689758 l 11.729064352317723 -11.186560873246277 a37.20833411401847,37.20833411401847 0 0,0 0.43805314704888426,0.46728455489934556 l -11.919884821337071 10.983006901468878" fill="#ffd413" stroke="none" /><path d="M 115.4437574822437 85.77008943001954 l 3.3318036771939594 -3.0699309036491114 a25.530495723046545,25.530495723046545 0 0,0 0.2950065307343975,0.3257535794579534 l -3.3841538485443925 3.012124536921609" fill="#ff3905" stroke="none" /><path d="M 115.68641384162765 86.03803664274999 l 21.375198922353942 -19.02536469590356 a49.61579338027053,49.61579338027053 0 0,0 0.5623315485497488,0.6428421688295416 l -21.69952233448154 18.654606970871072" fill="#99ff23" stroke="none" /><path d="M 115.9244219780498 86.31012108654704 l 10.6372435149088 -9.144606686053667 a35.02764345990041,35.02764345990041 0 0,0 0.38912273589295987,0.4605985836682883 l -10.793076864288876 8.960149152756273" fill="#ffb811" stroke="none" /><path d="M 116.15771136456269 86.58626213691792 l 48.38353527772297 -40.166830837686824 a83.88354940295604,83.88354940295604 0 0,0 0.9127389299313575,1.1189100046299487 l -49.06777269973073 39.32803666344878" fill="#4dd3ff" stroke="none" /><path d="M 116.38621287248628 86.86637796730983 l 11.29606829862223 -9.053848661923762 a35.47664790620249,35.47664790620249 0 0,0 0.377819406591756,0.4797922782100725 l -11.45024178580795 8.858063989760652" fill="#ffbe11" stroke="none" /><path d="M 116.82858285166822 87.43820079747576 l 1.7379886386685068 -1.2973323117970106 a23.168795895277697,23.168795895277697 0 0,0 0.23581132885055578,0.32164638754205654 l -1.760062580032689 1.2672234805834603" fill="#ff1802" stroke="none" /><path d="M 117.04232023915458 87.72973835380427 l 11.288113146998283 -8.127303082083257 a34.909513068669064,34.909513068669064 0 0,0 0.3469130869629838,0.49068395924724045 l -11.426338853765149 7.931792622504223" fill="#ffb710" stroke="none" /><path d="M 117.2510076193507 88.02491185347247 l 23.013605228938484 -15.975295893834751 a49.014926459460824,49.014926459460824 0 0,0 0.47515427829487983,0.6972302724393236 l -23.285183972902097 15.576787598125023" fill="#a0ff22" stroke="none" /><path d="M 117.45458315368197 88.32363383020206 l 21.844159187168877 -14.612803932068445 a47.28119725871425,47.28119725871425 0 0,0 0.4467023152587888,0.6803582726234174 l -22.092458137785588 14.234627595467353" fill="#b3ff20" stroke="none" /><path d="M 117.65298651832404 88.62581576622439 l 0.6419556945629622 -0.4136253280599988 a21.763670757456744,21.763670757456744 0 0,0 0.20019717117759628,0.3166638473483072 l -0.6489804619865142 0.40251383299748533" fill="#ff0300" stroke="none" /><line stroke="#e1ed5e" stroke-width="0.3" x1="172.23445277983987" x2="176.4835382374775" y1="55.19839476539836" y2="52.563006222186495" /><path d="M 173.08426987136738 54.67131705675599 a86.0,86.0 0 0,1 12.851231095245387,41.99856678651699" fill="none" id="id123" stroke="none" /><text fill="#e1ed5e" style="font-size:6.75px; font-family:Arial;" text-anchor="middle"><textPath startOffset="22.20632615414155" xlink:href="#id123">March</textPath></text><path d="M 117.84615892207809 88.93136811851018 l 4.992068365521378 -3.0962050324918047 a26.87428567310672,26.87428567310672 0 0,0 0.2404406528723631,0.39522121370926555 l -5.044624816679965 3.009816045575458" fill="#ff4c07" stroke="none" /><path d="M 118.03404312379186 89.2402003453031 l 11.916761370411145 -7.109995467921176 a34.87664358240792,34.87664358240792 0 0,0 0.30316161299595773,0.5182014678907936 l -12.03738265787743 6.903814587676487" fill="#ffb610" stroke="none" /><path d="M 118.21658344932153 89.55222093294921 l 2.449269115597089 -1.4047322686330812 a23.823507029769324,23.823507029769324 0 0,0 0.2009596299018877,0.3574847579173654 l -2.47308638679141 1.3623640007809221" fill="#ff2103" stroke="none" /><path d="M 118.3937258080291 89.86733742301442 l 3.8847561631468133 -2.1400190372441785 a25.435201452794974,25.435201452794974 0 0,0 0.20795324210436353,0.3853057749954264 l -3.9210175044696416 2.072832278916293" fill="#ff3805" stroke="none" /><path d="M 118.89224826269711 90.83032412892265 l 20.135934276695856 -9.773320152858156 a43.38244034965085,43.38244034965085 0 0,0 0.3202900908267687,0.6746126154381111 l -20.30118256136438 9.425265121779505" fill="#e0ff1b" stroke="none" /><path d="M 119.34039704204932 91.81776055985345 l 6.069757415956709 -2.5679001528761023 a27.590604394416538,27.590604394416538 0 0,0 0.18128119295866013,0.4389867878446385 l -6.113060295801567 2.4630387945781607" fill="#ff5607" stroke="none" /><path d="M 119.47837535516314 92.15188598940014 l 6.519634727880017 -2.6268534063497095 a28.028939877636613,28.028939877636613 0 0,0 0.17645745913340868,0.4490649863593843 l -6.563885736895126 2.514239415094541" fill="#ff5c08" stroke="none" /><path d="M 119.61058180528143 92.48833698450437 l 6.799904622314576 -2.604644399004111 a28.281680803072778,28.281680803072778 0 0,0 0.17022260395095568,0.45611194923440074 l -6.843731814767156 2.487209312740377" fill="#ff5f08" stroke="none" /><path d="M 119.7369772167798 92.82701384747503 l 5.503061862650539 -1.9999712267855003 a26.855217739087824,26.855217739087824 0 0,0 0.15415779822041853,0.43582485468148646 l -5.536672741680768 1.9049487456773995" fill="#ff4b07" stroke="none" /><path d="M 119.97218684219823 93.5106431181261 l 17.29543568298972 -5.619627708332789 a39.185497272406266,39.185497272406266 0 0,0 0.20291466400905217,0.6432949363409556 l -17.38960583076698 5.321082605565414" fill="#ffec16" stroke="none" /><path d="M 120.28053869075195 94.5502522615342 l 8.70066633986664 -2.3380264909065698 a30.009326424870466,30.009326424870466 0 0,0 0.12975985321331876,0.5000176468063577 l -8.739622524950262 2.187912418551362" fill="#ff760a" stroke="none" /><path d="M 120.37134235888165 94.90015583598534 l 16.42574627735343 -4.11208769733449 a37.93264320767906,37.93264320767906 0 0,0 0.15311637825811436,0.6347662393034732 l -16.494095455872362 3.8287362263716114" fill="#ffdd14" stroke="none" /><path d="M 120.45610955862082 95.25157060432595 l 10.919393949343776 -2.5346936602692485 a32.20972061080804,32.20972061080804 0 0,0 0.12071837167460721,0.5411567897233118 l -10.961406708020421 2.3463587009959728" fill="#ff940d" stroke="none" /><path d="M 120.53481517161879 95.60439243477599 l 48.063338500262496 -10.288262765260724 a70.15213991799203,70.15213991799203 0 0,0 0.2425951330435349,1.1829800246281645 l -48.23331292922103 9.459407084469149" fill="#3cffa4" stroke="none" /><path d="M 120.6074358757038 95.95851677861258 l 4.156623189670088 -0.8151874391363518 a25.235805342768813,25.235805342768813 0 0,0 0.07993053923457014,0.42699213672253067 l -4.170039452814518 0.7435172249512584" fill="#ff3505" stroke="none" /><path d="M 120.73433829027371 96.67025291283417 l 18.007886437769496 -2.891903593581451 a39.23861508860176,39.23861508860176 0 0,0 0.10135541038859092,0.6678055171986528 l -18.054997741597386 2.5814989639907164" fill="#ffed16" stroke="none" /><path d="M 120.78858239683441 97.02765380044208 l 7.95073728190243 -1.1367943851305953 a29.031595408130173,29.031595408130173 0 0,0 0.0664740600455738,0.4953089588253693 l -7.969127341005839 0.9997670842405615" fill="#ff6909" stroke="none" /><path d="M 120.83666639777658 97.38593545837742 l 1.7880399504066784 -0.22431859992064007 a22.80205596431428,22.80205596431428 0 0,0 0.04550600553603912,0.38986766538353246 l -1.7916363089463065 0.19350719621225493" fill="#ff1202" stroke="none" /><path d="M 120.87857604477298 97.74499172005257 l 14.83623636469581 -1.6024002678105038 a35.92251976334431,35.92251976334431 0 0,0 0.06110741231826692,0.6153433027442133 l -14.861620902696307 1.3467814343618556" fill="#ffc412" stroke="none" /><path d="M 120.91429891909075 98.10471618934814 l 62.74289675727228 -5.6858514319555935 a84.0,84.0 0 0,0 0.118102064722021,1.441144331168925 l -62.831473305813795 4.6049931835789" fill="#4dd2ff" stroke="none" /><path d="M 120.96714384426684 98.82574320788733 l 18.116067382711698 -1.0145833561559097 a39.14445581442274,39.14445581442274 0 0,0 0.031886685554671536,0.6730775348511805 l -18.130847676499865 0.7025947146817295" fill="#ffec16" stroke="none" /><path d="M 120.98425023603335 99.18683210126433 l 53.18957828245836 -2.061167643355311 a74.2294998090324,74.2294998090324 0 0,0 0.03848730830120863,1.2772063915577971 l -53.217177285215215 1.1452911043725151" fill="#41ffce" stroke="none" /><line stroke="#e1ed5e" stroke-width="0.3" x1="184.98032266829074" x2="189.97916517819016" y1="98.17113171792111" y2="98.06355123074" /><path d="M 185.9800911702706 98.14961562048488 a86.0,86.0 0 0,1 -9.607161424134198,41.387399972396054" fill="none" id="id124" stroke="none" /><text fill="#e1ed5e" style="font-size:6.75px; font-family:Arial;" text-anchor="middle"><textPath startOffset="21.466115282336823" xlink:href="#id124">April</textPath></text><path d="M 120.99980553446 99.90962569577887 l 20.530163641966503 -0.08835316363496867 a41.53035375845842,41.53035375845842 0 0,0 -0.0030766135195205943,0.7148966309776522 l -20.52864273115748 -0.26505294554636827" fill="#f5ff19" stroke="none" /><path d="M 120.9904718944345 100.63252640178507 l 39.27196930566884 1.1834206282191666 a60.28979584483343,60.28979584483343 0 0,0 -0.04018707393638381,1.0370498110492505 l -39.24578009888125 -1.8592476862824232" fill="#30ff34" stroke="none" /><path d="M 120.9764740272857 100.99374915477107 l 8.649366019479075 0.40975905483363556 a29.659066636880528,29.659066636880528 0 0,0 -0.028548474571489974,0.5097521912544094 l -8.641031194020057 -0.5585829624234683" fill="#ff720a" stroke="none" /><path d="M 120.95626037817324 101.35467743843564 l 2.702822533399999 0.1747188019245068 a23.708463827855326,23.708463827855326 0 0,0 -0.029831390624476543,0.4070256239207837 l -2.6994145841111847 -0.22121756234206072" fill="#ff1f03" stroke="none" /><path d="M 120.92983693683757 101.71520430193887 l 21.330479206651876 1.748037015676576 a42.40198534233643,42.40198534233643 0 0,0 -0.0658753281165362,0.7269287564634203 l -21.297229282258265 -2.114947160688567" fill="#ebff1a" stroke="none" /><path d="M 120.81339534386255 102.79330883721812 l 7.083561859824513 0.9506654543927477 a28.147070268867957,28.147070268867957 0 0,0 -0.068579598162335,0.4796455498190474 l -7.066148210645577 -1.0724564761922044" fill="#ff5d08" stroke="none" /><line stroke="#e1ed5e" stroke-width="0.3" x1="174.80103733775053" x2="179.2010983576182" y1="140.37084112569926" y2="142.7455964860345" /><path d="M 175.68104954172406 140.8457921977663 a86.0,86.0 0 0,1 -30.038265399797805,32.042727171017184" fill="none" id="id125" stroke="none" /><text fill="#e1ed5e" style="font-size:6.75px; font-family:Arial;" text-anchor="middle"><textPath startOffset="22.206326154141568" xlink:href="#id125">May</textPath></text><line stroke="#e1ed5e" stroke-width="0.3" x1="143.8653032363475" x2="146.44561519142675" y1="172.8068346515853" y2="177.08958963109032" /><path d="M 144.38136562736335 173.6633856474863 a86.0,86.0 0 0,1 -40.68145358897372,12.25698825130547" fill="none" id="id126" stroke="none" /><text fill="#e1ed5e" style="font-size:6.75px; font-family:Arial;" text-anchor="middle"><textPath startOffset="21.466115282336833" xlink:href="#id126">June</textPath></text><line stroke="#e1ed5e" stroke-width="0.3" x1="102.19456741930631" x2="102.32365962044197" y1="184.97166512339345" y2="189.96999836594603" /><path d="M 102.22038585953345 185.97133177190398 a86.0,86.0 0 0,1 -42.740103519485714,-10.115201625700543" fill="none" id="id127" stroke="none" /><text fill="#e1ed5e" style="font-size:6.75px; font-family:Arial;" text-anchor="middle"><textPath startOffset="22.20632615414155" xlink:href="#id127">July</textPath></text><line stroke="#e1ed5e" stroke-width="0.3" x1="58.666819895761336" x2="56.23545636021788" y1="174.27360380694188" y2="178.64263932499728" /><path d="M 58.180547188652646 175.14741091055294 a86.0,86.0 0 0,1 -31.652253787137756,-30.449443065178592" fill="none" id="id128" stroke="none" /><text fill="#e1ed5e" style="font-size:6.75px; font-family:Arial;" text-anchor="middle"><textPath startOffset="22.20632615414155" xlink:href="#id128">August</textPath></text><line stroke="#e1ed5e" stroke-width="0.3" x1="26.63291911575756" x2="22.317208475507996" y1="142.92168965132927" y2="145.44649492493687" /><path d="M 25.769776987707644 143.4266507060508 a86.0,86.0 0 0,1 -11.730757126820373,-40.83630448921669" fill="none" id="id129" stroke="none" /><text fill="#e1ed5e" style="font-size:6.75px; font-family:Arial;" text-anchor="middle"><textPath startOffset="21.46611528233685" xlink:href="#id129">September</textPath></text><line stroke="#e1ed5e" stroke-width="0.3" x1="15.007084014347285" x2="10.007500721073583" y1="101.09737516637583" y2="101.16192664675087" /><path d="M 14.007167355692545 101.11028546245083 a86.0,86.0 0 0,1 10.666146001902534,-42.60595125391555" fill="none" id="id130" stroke="none" /><text fill="#e1ed5e" style="font-size:6.75px; font-family:Arial;" text-anchor="middle"><textPath startOffset="22.20632615414155" xlink:href="#id130">October</textPath></text><line stroke="#e1ed5e" stroke-width="0.3" x1="26.266209847984243" x2="21.928928074336255" y1="57.711370442889674" y2="55.22380399835377" /><path d="M 25.398753493254645 57.213857153982495 a86.0,86.0 0 0,1 29.58750427330803,-30.492523968695096" fill="none" id="id131" stroke="none" /><text fill="#e1ed5e" style="font-size:6.75px; font-family:Arial;" text-anchor="middle"><textPath startOffset="21.46611528233685" xlink:href="#id131">November</textPath></text><line stroke="#e1ed5e" stroke-width="0.3" x1="56.762969772571076" x2="54.21961505331055" y1="26.818313649435495" y2="22.513508569990535" /><path d="M 56.25429882871897 25.957352633546506 a86.0,86.0 0 0,1 42.265352541879196,-11.944610805530505" fill="none" id="id132" stroke="none" /><text fill="#e1ed5e" style="font-size:6.75px; font-family:Arial;" text-anchor="middle"><textPath startOffset="22.20632615414155" xlink:href="#id132">December</textPath></text></svg>