<?xml version="1.0" encoding="utf-8" ?>
<svg baseProfile="full" height="200mm" version="1.1" viewBox="0,0,200,200" width="200mm" xmlns="http://www.w3.org/2000/svg" xmlns:ev="http://www.w3.org/2001/xml-events" xmlns:xlink="http://www.w3.org/1999/xlink"><defs /><rect fill="#1a1a1a" height="200" width="200" x="0" y="0" /><rect fill="#1a1a1a" height="200" width="180" x="10" y="0" /><text alignment-baseline="middle" fill="#e1ed5e" style="dominant-baseline: central; font-size:9.0px; font-family:Arial;" text-anchor="middle" x="100.0" y="100.0">2023</text><line stroke="#e1ed5e" stroke-width="0.3" x1="100.0" x2="100.0" y1="15.0" y2="10.0" /><path d="M 100.0 14.0 a86.0,86.0 0 0,1 42.46469731375804,11.215312516191453" fill="none" id="id85" stroke="none" /><text fill="#e1ed5e" style="font-size:6.75px; font-family:Arial;" text-anchor="middle"><textPath startOffset="22.20632615414155" xlink:href="#id85">January</textPath></text><line stroke="#e1ed5e" stroke-width="0.3" x1="143.23703022742887" x2="145.7803849466894" y1="26.81831364943548" y2="22.513508569990506" /><path d="M 143.74570117128098 25.957352633546492 a86.0,86.0 0 0,1 28.547481713284135,27.462654790039103" fill="none" id="id86" stroke="none" /><text fill="#e1ed5e" style="font-size:6.75px; font-family:Arial;" text-anchor="middle"><textPath startOffset="19.985693538727396" xlink:href="#id86">February</textPath></text><line stroke="#e1ed5e" stroke-width="0.3" x1="172.23445277983987" x2="176.4835382374775" y1="55.19839476539836" y2="52.563006222186495" /><path d="M 173.08426987136738 54.67131705675599 a86.0,86.0 0 0,1 12.851231095245387,41.99856678651699" fill="none" id="id87" stroke="none" /><text fill="#e1ed5e" style="font-size:6.75px; font-family:Arial;" text-anchor="middle"><textPath startOffset="22.20632615414155" xlink:href="#id87">March</textPath></text><line stroke="#e1ed5e" stroke-width="0.3" x1="184.98032266829074" x2="189.97916517819016" y1="98.17113171792111" y2="98.06355123074" /><path d="M 185.9800911702706 98.14961562048488 a86.0,86.0 0 0,1 -9.607161424134198,41.387399972396054" fill="none" id="id88" stroke="none" /><text fill="#e1ed5e" style="font-size:6.75px; font-family:Arial;" text-anchor="middle"><textPath startOffset="21.466115282336823" xlink:href="#id88">April</textPath></text><path d="M 120.95626037817324 101.35467743843564 l 46.05795158133543 2.977328337301139 a67.15408311186276,67.15408311186276 0 0,0 -0.0844972369312618,1.1528976645597662 l -45.999877785739834 -3.7696991383576752" fill="red" stroke="none" /><path d="M 120.81339534386255 102.79330883721812 l 33.34593570282399 4.475266785890944 a54.644902150277844,54.644902150277844 0 0,0 -0.13314087026780608,0.9311869365554473 l -33.26396078153959 -5.0485991944268" fill="red" stroke="none" /><path d="M 119.26925614724726 108.34839909993367 l 19.550915967713188 8.470428127608466 a42.30695820246436,42.30695820246436 0 0,0 -0.2952600905939311,0.6657335579018419 l -19.402214792387984 -8.805710022002996" fill="red" stroke="none" /><line stroke="#e1ed5e" stroke-width="0.3" x1="174.80103733775053" x2="179.2010983576182" y1="140.37084112569926" y2="142.7455964860345" /><path d="M 175.68104954172406 140.8457921977663 a86.0,86.0 0 0,1 -30.038265399797805,32.042727171017184" fill="none" id="id89" stroke="none" /><text fill="#e1ed5e" style="font-size:6.75px; font-family:Arial;" text-anchor="middle"><textPath startOffset="22.206326154141568" xlink:href="#id89">May</textPath></text><path d="M 115.32070863581623 114.36230785411682 l 9.287184819343548 8.706216575496283 a33.72988644600145,33.72988644600145 0 0,0 -0.40073265195280117,0.42016658346448243 l -9.135945616011782 -8.864790275543273" fill="red" stroke="none" /><line stroke="#e1ed5e" stroke-width="0.3" x1="143.8653032363475" x2="146.44561519142675" y1="172.8068346515853" y2="177.08958963109032" /><path d="M 144.38136562736335 173.6633856474863 a86.0,86.0 0 0,1 -40.68145358897372,12.25698825130547" fill="none" id="id90" stroke="none" /><text fill="#e1ed5e" style="font-size:6.75px; font-family:Arial;" text-anchor="middle"><textPath startOffset="21.466115282336833" xlink:href="#id90">June</textPath></text><line stroke="#e1ed5e" stroke-width="0.3" x1="102.19456741930631" x2="102.32365962044197" y1="184.97166512339345" y2="189.96999836594603" /><path d="M 102.22038585953345 185.97133177190398 a86.0,86.0 0 0,1 -42.740103519485714,-10.115201625700543" fill="none" id="id91" stroke="none" /><text fill="#e1ed5e" style="font-size:6.75px; font-family:Arial;" text-anchor="middle"><textPath startOffset="22.20632615414155" xlink:href="#id91">July</textPath></text><line stroke="#e1ed5e" stroke-width="0.3" x1="58.666819895761336" x2="56.23545636021788" y1="174.27360380694188" y2="178.64263932499728" /><path d="M 58.180547188652646 175.14741091055294 a86.0,86.0 0 0,1 -31.652253787137756,-30.449443065178592" fill="none" id="id92" stroke="none" /><text fill="#e1ed5e" style="font-size:6.75px; font-family:Arial;" text-anchor="middle"><textPath startOffset="22.20632615414155" xlink:href="#id92">August</textPath></text><line stroke="#e1ed5e" stroke-width="0.3" x1="26.63291911575756" x2="22.317208475507996" y1="142.92168965132927" y2="145.44649492493687" /><path d="M 25.769776987707644 143.4266507060508 a86.0,86.0 0 0,1 -11.730757126820373,-40.83630448921669" fill="none" id="id93" stroke="none" /><text fill="#e1ed5e" style="font-size:6.75px; font-family:Arial;" text-anchor="middle"><textPath startOffset="21.46611528233685" xlink:href="#id93">September</textPath></text><path d="M 80.32549172779594 107.34259656027581 l -59.02352481661217 22.027789680827432 a84.0,84.0 0 0,0 -0.4939029559791024,-1.3590088119755315 l 59.3939520335965 -21.008533071845783" fill="red" stroke="none" /><path d="M 80.20201598880116 107.00284435728193 l -34.799536887527005 12.30911896842603 a57.912358057501805,57.912358057501805 0 0,0 -0.32433449091719124,-0.9426678482152676 l 35.00626220938743 -11.708278417121464" fill="red" stroke="none" /><path d="M 80.0844068197444 106.66101706037122 l -49.84552033161702 16.671452278968495 a73.55961584923894,73.55961584923894 0 0,0 -0.39129424298228155,-1.2042798498180265 l 50.125106825615546 -15.810973529172665" fill="red" stroke="none" /><path d="M 79.97269907076064 106.31721596034903 l -35.42035506819627 11.172650430960369 a58.14067407586373,58.14067407586373 0 0,0 -0.29284413074634585,-0.9570315631270707 l 35.60742597144875 -10.56129189528125" fill="red" stroke="none" /><line stroke="#e1ed5e" stroke-width="0.3" x1="15.007084014347285" x2="10.007500721073583" y1="101.09737516637583" y2="101.16192664675087" /><path d="M 14.007167355692545 101.11028546245083 a86.0,86.0 0 0,1 10.666146001902534,-42.60595125391555" fill="none" id="id94" stroke="none" /><text fill="#e1ed5e" style="font-size:6.75px; font-family:Arial;" text-anchor="middle"><textPath startOffset="22.20632615414155" xlink:href="#id94">October</textPath></text><path d="M 79.16333360222342 97.38593545837743 l -12.677442656728887 -1.5904489084177378 a33.776818071998065,33.776818071998065 0 0,0 0.0773392643808252,-0.576267351362659 l 12.648187393290227 1.8084346018450563" fill="red" stroke="none" /><path d="M 79.26566170972629 96.67025291283419 l -42.24640212284388 -6.784389858139908 a63.78769026334864,63.78769026334864 0 0,0 0.18342951775848662,-1.0826113971602638 l 42.12336074356517 7.510587043615999" fill="red" stroke="none" /><path d="M 79.54389044137918 95.25157060432595 l -12.461966719512546 -2.8927675093481793 a33.793307562213094,33.793307562213094 0 0,0 0.1364078119987541,-0.5654984451637081 l 12.410326107252978 3.106851186171284" fill="red" stroke="none" /><path d="M 80.14247586403 93.16781622104843 l -12.11409723201842 -4.167978748937596 a33.811065474752354,33.811065474752354 0 0,0 0.19408665607234335,-0.5487091127067079 l 12.040557495136268 4.3758854880709155" fill="red" stroke="none" /><path d="M 80.2630227832202 92.82701384747504 l -12.140696785194828 -4.41227899114002 a33.91761294998792,33.91761294998792 0 0,0 0.20414431646934514,-0.5470052739692807 l 12.062947880223854 4.620607402138642" fill="red" stroke="none" /><path d="M 80.38941819471856 92.48833698450439 l -12.520164875684024 -4.795740400687887 a34.40722396714182,34.40722396714182 0 0,0 0.21661223519625794,-0.5512545115485336 l 12.435759090606076 5.010543917132184" fill="red" stroke="none" /><path d="M 80.52162464483688 92.15188598940014 l -12.060450940189494 -4.859326934202652 a34.00259724571153,34.00259724571153 0 0,0 0.2234105242595785,-0.5410063052584009 l 11.975018729043713 5.066207809914365" fill="red" stroke="none" /><path d="M 80.95270993114464 91.15688171328213 l -11.532377123109814 -5.354156662603282 a33.71466537811065,33.71466537811065 0 0,0 0.2489134578211068,-0.5242752230173142 l 11.438505471446955 5.551874301261128" fill="red" stroke="none" /><line stroke="#e1ed5e" stroke-width="0.3" x1="26.266209847984243" x2="21.928928074336255" y1="57.711370442889674" y2="55.22380399835377" /><path d="M 25.398753493254645 57.213857153982495 a86.0,86.0 0 0,1 29.58750427330803,-30.492523968695096" fill="none" id="id95" stroke="none" /><text fill="#e1ed5e" style="font-size:6.75px; font-family:Arial;" text-anchor="middle"><textPath startOffset="21.46611528233685" xlink:href="#id95">November</textPath></text><path d="M 81.96595687620814 89.24020034530311 l -10.903646512995683 -6.5055324077987375 a33.69690746557139,33.69690746557139 0 0,0 0.3014817409234295,-0.49555671279178903 l 10.790048973786034 6.692256893797601" fill="red" stroke="none" /><line stroke="#e1ed5e" stroke-width="0.3" x1="56.76296977257108" x2="54.21961505331056" y1="26.818313649435495" y2="22.513508569990535" /><path d="M 56.25429882871898 25.957352633546506 a86.0,86.0 0 0,1 42.26535254187918,-11.944610805530505" fill="none" id="id96" stroke="none" /><text fill="#e1ed5e" style="font-size:6.75px; font-family:Arial;" text-anchor="middle"><textPath startOffset="22.20632615414155" xlink:href="#id96">December</textPath></text></svg>