<?xml version="1.0" encoding="utf-8" ?>
<svg baseProfile="full" height="200mm" version="1.1" viewBox="0,0,200,200" width="200mm" xmlns="http://www.w3.org/2000/svg" xmlns:ev="http://www.w3.org/2001/xml-events" xmlns:xlink="http://www.w3.org/1999/xlink"><defs /><rect fill="#1a1a1a" height="200" width="200" x="0" y="0" /><rect fill="#1a1a1a" height="200" width="180" x="10" y="0" /><text alignment-baseline="middle" fill="#e1ed5e" style="dominant-baseline: central; font-size:9.0px; font-family:Arial;" text-anchor="middle" x="100.0" y="100.0">2026</text><line stroke="#e1ed5e" stroke-width="0.3" x1="100.0" x2="100.0" y1="15.0" y2="10.0" /><path d="M 100.0 14.0 a86.0,86.0 0 0,1 42.46469731375804,11.215312516191453" fill="none" id="id121" stroke="none" /><text fill="#e1ed5e" style="font-size:6.75px; font-family:Arial;" text-anchor="middle"><textPath startOffset="22.20632615414155" xlink:href="#id121">January</textPath></text><path d="M 101.08401301168833 79.027996857942 l 0.7650601869952552 -14.801339534235332 a35.82109878171801,35.82109878171801 0 0,0 0.6155053282242381,0.03712896227062731 l -1.0197275640591053 14.785977302584401" fill="#ffba11" stroke="none" /><path d="M 101.44485096284872 79.0497635885617 l 1.0180618267143144 -14.761824229312454 a35.796888337083885,35.796888337083885 0 0,0 0.6143595117612296,0.047686122176130184 l -1.2720115278378852 14.74211284494786" fill="#ffba11" stroke="none" /><path d="M 101.80526077348638 79.07773832637324 l 0.708173969578968 -8.207457515053566 a29.237952975867152,29.237952975867152 0 0,0 0.5010478386348385,0.047580529640051654 l -0.8493469353040507 8.194051440898335" fill="#ff6209" stroke="none" /><path d="M 102.16513564639614 79.11191278185805 l 1.54130517323597 -14.869699707690257 a35.949367579731515,35.949367579731515 0 0,0 0.6149623724955982,0.06909818789003605 l -1.7970342492412934 14.84096556632962" fill="#ffbc11" stroke="none" /><path d="M 102.52436894288641 79.15227682838746 l 0.3677879259980271 -3.0374089685563916 a24.05959494063785,24.05959494063785 0 0,0 0.4107147821088482,0.053322566310901834 l -0.4200174366147214 3.030628079081353" fill="#ff1902" stroke="none" /><path d="M 102.88285421437855 79.19881850522331 l 1.1346031393784346 -8.186708057952131 a29.26495693334368,29.26495693334368 0 0,0 0.4983836374182466,0.07344879291328127 l -1.2753557572253371 8.165964780877882" fill="#ff6209" stroke="none" /><path d="M 103.2404852339499 79.25152402106235 l 0.537482516300762 -3.4414423376254537 a24.48316132536665,24.48316132536665 0 0,0 0.41582993267373863,0.06861550185951805 l -0.5966416551133759 3.431680572826311" fill="#ff1f03" stroke="none" /><path d="M 103.59715602781102 79.31037775812273 l 4.112770057648524 -23.655259377845905 a45.0101264840537,45.0101264840537 0 0,0 0.7621819322621443,0.13928387637660025 l -4.519347111013569 23.580960020118567" fill="#d3ff1c" stroke="none" /><path d="M 104.307194497241 79.44645832069477 l 3.4325679211736406 -16.37990294612435 a37.73570264607744,37.73570264607744 0 0,0 0.6346018070781532,0.1386993754354819 l -3.714012452405322 16.318390072592997" fill="#ffd213" stroke="none" /><path d="M 104.66035177308747 79.52364482259891 l 5.497607379629418 -24.155035244606697 a45.77275549002871,45.77275549002871 0 0,0 0.7667510078022957,0.18146519081530416 l -5.912582074394237 24.056824141650523" fill="#caff1d" stroke="none" /><path d="M 105.01212808612495 79.60689891045804 l 1.3921991536768274 -5.664511678442871 a26.83308760766664,26.83308760766664 0 0,0 0.4475900989572205,0.11410068223347203 l -1.489498141319073 5.639708000040531" fill="#ff4006" stroke="none" /><path d="M 105.36241919743992 79.69619591428918 l 2.0870034519096734 -7.902050856823363 a29.17300380228137,29.17300380228137 0 0,0 0.4844137144542964,0.1324085669944346 l -2.2227150555876807 7.864955749002635" fill="#ff6109" stroke="none" /><path d="M 105.71112130821622 79.79150937346287 l 7.135118869712887 -25.247228173981235 a47.23609063397222,47.23609063397222 0 0,0 0.7805421679281506,0.2278616626937602 l -7.568651255364465 25.12066818236877" fill="#b9ff1f" stroke="none" /><path d="M 106.0581310904928 79.89281104454417 l 1.3008572125662694 -4.3175991714979345 a25.509311709474666,25.509311709474666 0 0,0 0.4193422635329718,0.13029168253323767 l -1.3749848488099596 4.294567354082177" fill="#ff2e04" stroke="none" /><path d="M 106.40334571778207 80.00007090966166 l 0.8045263816841113 -2.512822404747806 a23.638472879646155,23.638472879646155 0 0,0 0.38645208550187016,0.12740717664029505 l -0.8476612894283988 2.4986015038482745" fill="#ff1302" stroke="none" /><path d="M 107.08798089147638 80.2323363322302 l 3.7294224414801254 -10.400982963549747 a32.0493908590052,32.0493908590052 0 0,0 0.5177009441713044,0.1906736267962837 l -3.9079057114240063 10.33524606894714" fill="#ff880c" stroke="none" /><path d="M 107.76421540070413 80.48803036053334 l 2.936379460121747 -7.379309295135345 a28.942073407309692,28.942073407309692 0 0,0 0.4613037531896921,0.18817738357351718 l -3.0629670828998266 7.327671025378248" fill="#ff5e08" stroke="none" /><path d="M 108.09893153111575 80.62456947434976 l 5.303013986946024 -12.686633870884087 a34.75036858850004,34.75036858850004 0 0,0 0.5499100907015143,0.2354428022018472 l -5.520607835437853 12.593471540719449" fill="#ffac0f" stroke="none" /><path d="M 108.43124777332544 80.76684994638697 l 7.427543377558471 -16.94352486737052 a39.500038798789475,39.500038798789475 0 0,0 0.6203723389093682,0.2783429850490028 l -7.718097834934619 16.81316155180499" fill="#ffe915" stroke="none" /><path d="M 108.76106565485865 80.91482961587045 l 5.238147813353451 -11.410820036449001 a33.5556762629006,33.5556762629006 0 0,0 0.5228642098951407,0.24549175738938928 l -5.43379023454819 11.318963296419609" fill="#ff9c0e" stroke="none" /><path d="M 109.08828744355905 81.06846463323043 l 4.113047246139745 -8.567763716658549 a30.503879878947778,30.503879878947778 0 0,0 0.4713993089705193,0.23131359364711238 l -4.259917822120696 8.495694962876604" fill="#ff730a" stroke="none" /><path d="M 109.41281617654863 81.2277094730956 l 4.014551647579863 -8.006353088185435 a29.956467758205946,29.956467758205946 0 0,0 0.45896092048039744,0.23509760960892476 l -4.1517730556490156 7.93606295326401" fill="#ff6c09" stroke="none" /><path d="M 109.73455568895987 81.39251694778311 l 6.74223383662792 -12.88769676374847 a35.544773803057346,35.544773803057346 0 0,0 0.5396965331969312,0.28828719715922935 l -6.963075416353163 12.769730840087487" fill="#ffb610" stroke="none" /><path d="M 110.05341064243156 81.56283822128135 l 1.3729560510529504 -2.517893054273127 a23.8678901218282,23.8678901218282 0 0,0 0.359013882579098,0.1997908369591847 l -1.4160940227040835 2.4938868197537625" fill="#ff1602" stroke="none" /><line stroke="#e1ed5e" stroke-width="0.3" x1="143.23703022742887" x2="145.7803849466894" y1="26.81831364943548" y2="22.513508569990506" /><path d="M 143.74570117128098 25.957352633546492 a86.0,86.0 0 0,1 28.547481713284135,27.462654790039103" fill="none" id="id122" stroke="none" /><text fill="#e1ed5e" style="font-size:6.75px; font-family:Arial;" text-anchor="middle"><textPath startOffset="19.985693538727396" xlink:href="#id122">February</textPath></text><path d="M 110.99172775467656 82.1063720568725 l 2.714454378773814 -4.4189082741525 a26.1860401955459,26.1860401955459 0 0,0 0.38204291386311134,0.23923523761239607 l -2.790116445009189 4.371528695217159" fill="#ff3705" stroke="none" /><path d="M 111.2981086023043 82.29822771554956 l 14.002934090112209 -21.939667895100524 a47.02750834173973,47.02750834173973 0 0,0 0.6786136058453317,0.4413891661073177 l -14.378514721741821 21.695379804833678" fill="#bbff1f" stroke="none" /><path d="M 111.60114157652 82.49532879139004 l 3.3716472777928304 -5.087393912045714 a27.103243578800342,27.103243578800342 0 0,0 0.38666688297926766,0.26107920543137475 l -3.45871885517864 5.0286027943156695" fill="#ff4406" stroke="none" /><path d="M 111.90073688211348 82.69761687909136 l 3.9940666615795144 -5.8069405511320324 a28.047916505005045,28.047916505005045 0 0,0 0.3954340322233215,0.2770268100966489 l -4.093431833386487 5.737328898271448" fill="#ff5107" stroke="none" /><path d="M 112.48926042617603 83.11751280151076 l 1.4017173140686543 -1.8947859043011719 a23.35691006440599,23.35691006440599 0 0,0 0.3211617913055602,0.24189240282915303 l -1.4341252591325975 1.8703769119661715" fill="#ff0e01" stroke="none" /><path d="M 112.77801427241765 83.33499621200491 l 2.17062921338811 -2.8309206182003663 a24.567315899743928,24.567315899743928 0 0,0 0.3333754875495775,0.26020485594680676 l -2.219037256097118 2.7931373730303353" fill="#ff2003" stroke="none" /><path d="M 114.16331599549186 84.49514656593476 l 0.9226432667195951 -1.0100352648326048 a22.368006518196633,22.368006518196633 0 0,0 0.2820415133925689,0.26212684870384473 l -0.9398926639070109 0.9940038300541195" fill="#ff0000" stroke="none" /><path d="M 114.42810811169701 84.74124197986012 l 15.711873697819632 -16.6164321019793 a43.86851090245984,43.86851090245984 0 0,0 0.5442134365648621,0.5235328947956567 l -15.995570377996913 16.34351612042134" fill="#e0ff1b" stroke="none" /><path d="M 114.68862486808459 84.99185889309783 l 4.979061019728903 -5.087368697551334 a28.118452704275626,28.118452704275626 0 0,0 0.342997187501131,0.34152424857385394 l -5.065894007397356 5.000908598327361" fill="#ff5207" stroke="none" /><path d="M 114.94478906791727 85.2469230424477 l 37.35915630541539 -36.879912157892335 a73.49604252347326,73.49604252347326 0 0,0 0.8810276371216261,0.9079764245695378 l -37.98844820624013 36.23137153777268" fill="#40ffc5" stroke="none" /><path d="M 115.19652480421416 85.50635884689758 l 30.071040084287098 -28.68016666293026 a62.55501668347948,62.55501668347948 0 0,0 0.7364592523256668,0.7856033822446216 l -30.560266658583227 28.158293863807586" fill="#32ff4b" stroke="none" /><path d="M 115.4437574822437 85.77008943001954 l 8.54209670271581 -7.870705836939337 a32.61531000232793,32.61531000232793 0 0,0 0.3768720183497283,0.4161514955934937 l -8.676312361681575 7.722501554076294" fill="#ff900d" stroke="none" /><path d="M 115.68641384162765 86.03803664274999 l 47.05924152488298 -41.88589007175005 a84.0,84.0 0 0,0 0.9520325456886072,1.0883377751882088 l -47.773265934149435 41.069636740358895" fill="#4dd2ff" stroke="none" /><path d="M 115.9244219780498 86.31012108654704 l 27.271823780209463 -23.44499321951633 a56.964149918522544,56.964149918522544 0 0,0 0.6328157898914288,0.7490542948564695 l -27.67135018358801 22.972079975030752" fill="#50ff2b" stroke="none" /><line stroke="#e1ed5e" stroke-width="0.3" x1="172.23445277983987" x2="176.4835382374775" y1="55.19839476539836" y2="52.563006222186495" /><path d="M 173.08426987136738 54.67131705675599 a86.0,86.0 0 0,1 12.851231095245387,41.99856678651699" fill="none" id="id123" stroke="none" /><text fill="#e1ed5e" style="font-size:6.75px; font-family:Arial;" text-anchor="middle"><textPath startOffset="22.20632615414155" xlink:href="#id123">March</textPath></text><line stroke="#e1ed5e" stroke-width="0.3" x1="184.98032266829074" x2="189.97916517819016" y1="98.17113171792111" y2="98.06355123074" /><path d="M 185.9800911702706 98.14961562048488 a86.0,86.0 0 0,1 -9.607161424134198,41.387399972396054" fill="none" id="id124" stroke="none" /><text fill="#e1ed5e" style="font-size:6.75px; font-family:Arial;" text-anchor="middle"><textPath startOffset="21.466115282336823" xlink:href="#id124">April</textPath></text><line stroke="#e1ed5e" stroke-width="0.3" x1="174.80103733775053" x2="179.2010983576182" y1="140.37084112569926" y2="142.7455964860345" /><path d="M 175.68104954172406 140.8457921977663 a86.0,86.0 0 0,1 -30.038265399797805,32.042727171017184" fill="none" id="id125" stroke="none" /><text fill="#e1ed5e" style="font-size:6.75px; font-family:Arial;" text-anchor="middle"><textPath startOffset="22.206326154141568" xlink:href="#id125">May</textPath></text><line stroke="#e1ed5e" stroke-width="0.3" x1="143.8653032363475" x2="146.44561519142675" y1="172.8068346515853" y2="177.08958963109032" /><path d="M 144.38136562736335 173.6633856474863 a86.0,86.0 0 0,1 -40.68145358897372,12.25698825130547" fill="none" id="id126" stroke="none" /><text fill="#e1ed5e" style="font-size:6.75px; font-family:Arial;" text-anchor="middle"><textPath startOffset="21.466115282336833" xlink:href="#id126">June</textPath></text><line stroke="#e1ed5e" stroke-width="0.3" x1="102.19456741930631" x2="102.32365962044197" y1="184.97166512339345" y2="189.96999836594603" /><path d="M 102.22038585953345 185.97133177190398 a86.0,86.0 0 0,1 -42.740103519485714,-10.115201625700543" fill="none" id="id127" stroke="none" /><text fill="#e1ed5e" style="font-size:6.75px; font-family:Arial;" text-anchor="middle"><textPath startOffset="22.20632615414155" xlink:href="#id127">July</textPath></text><line stroke="#e1ed5e" stroke-width="0.3" x1="58.666819895761336" x2="56.23545636021788" y1="174.27360380694188" y2="178.64263932499728" /><path d="M 58.180547188652646 175.14741091055294 a86.0,86.0 0 0,1 -31.652253787137756,-30.449443065178592" fill="none" id="id128" stroke="none" /><text fill="#e1ed5e" style="font-size:6.75px; font-family:Arial;" text-anchor="middle"><textPath startOffset="22.20632615414155" xlink:href="#id128">August</textPath></text><line stroke="#e1ed5e" stroke-width="0.3" x1="26.63291911575756" x2="22.317208475507996" y1="142.92168965132927" y2="145.44649492493687" /><path d="M 25.769776987707644 143.4266507060508 a86.0,86.0 0 0,1 -11.730757126820373,-40.83630448921669" fill="none" id="id129" stroke="none" /><text fill="#e1ed5e" style="font-size:6.75px; font-family:Arial;" text-anchor="middle"><textPath startOffset="21.46611528233685" xlink:href="#id129">September</textPath></text><line stroke="#e1ed5e" stroke-width="0.3" x1="15.007084014347285" x2="10.007500721073583" y1="101.09737516637583" y2="101.16192664675087" /><path d="M 14.007167355692545 101.11028546245083 a86.0,86.0 0 0,1 10.666146001902534,-42.60595125391555" fill="none" id="id130" stroke="none" /><text fill="#e1ed5e" style="font-size:6.75px; font-family:Arial;" text-anchor="middle"><textPath startOffset="22.20632615414155" xlink:href="#id130">October</textPath></text><line stroke="#e1ed5e" stroke-width="0.3" x1="26.266209847984243" x2="21.928928074336255" y1="57.711370442889674" y2="55.22380399835377" /><path d="M 25.398753493254645 57.213857153982495 a86.0,86.0 0 0,1 29.58750427330803,-30.492523968695096" fill="none" id="id131" stroke="none" /><text fill="#e1ed5e" style="font-size:6.75px; font-family:Arial;" text-anchor="middle"><textPath startOffset="21.46611528233685" xlink:href="#id131">November</textPath></text><line stroke="#e1ed5e" stroke-width="0.3" x1="56.762969772571076" x2="54.21961505331055" y1="26.818313649435495" y2="22.513508569990535" /><path d="M 56.25429882871897 25.957352633546506 a86.0,86.0 0 0,1 42.265352541879196,-11.944610805530505" fill="none" id="id132" stroke="none" /><text fill="#e1ed5e" style="font-size:6.75px; font-family:Arial;" text-anchor="middle"><textPath startOffset="22.20632615414155" xlink:href="#id132">December</textPath></text></svg>